<svg width="56" height="56" viewBox="0 0 56 56" fill="none" xmlns="http://www.w3.org/2000/svg">
<g clip-path="url(#clip0_81_77)">
<path d="M23.5564 12.4444H14.6675C13.4402 12.4444 12.4453 13.4394 12.4453 14.6667V23.5556C12.4453 24.7829 13.4402 25.7778 14.6675 25.7778H23.5564C24.7837 25.7778 25.7786 24.7829 25.7786 23.5556V14.6667C25.7786 13.4394 24.7837 12.4444 23.5564 12.4444Z" fill="white"/>
<path d="M41.3338 12.4444H32.4449C31.2176 12.4444 30.2227 13.4394 30.2227 14.6667V23.5556C30.2227 24.7829 31.2176 25.7778 32.4449 25.7778H41.3338C42.5611 25.7778 43.556 24.7829 43.556 23.5556V14.6667C43.556 13.4394 42.5611 12.4444 41.3338 12.4444Z" fill="white"/>
<path d="M23.5564 30.2222H14.6675C13.4402 30.2222 12.4453 31.2172 12.4453 32.4445V41.3333C12.4453 42.5606 13.4402 43.5556 14.6675 43.5556H23.5564C24.7837 43.5556 25.7786 42.5606 25.7786 41.3333V32.4445C25.7786 31.2172 24.7837 30.2222 23.5564 30.2222Z" fill="white"/>
<path d="M41.3338 30.2222H32.4449C31.2176 30.2222 30.2227 31.2172 30.2227 32.4445V41.3333C30.2227 42.5606 31.2176 43.5556 32.4449 43.5556H41.3338C42.5611 43.5556 43.556 42.5606 43.556 41.3333V32.4445C43.556 31.2172 42.5611 30.2222 41.3338 30.2222Z" fill="white"/>
</g>
<defs>
<clipPath id="clip0_81_77">
<rect width="40" height="40" fill="white" transform="translate(8 8)"/>
</clipPath>
</defs>
</svg>
