<svg width="44" height="44" viewBox="0 0 44 44" fill="none" xmlns="http://www.w3.org/2000/svg">
<rect width="44" height="44" rx="4" fill="#0C1219"/>
<path fill-rule="evenodd" clip-rule="evenodd" d="M27 13C25.9391 13 24.9217 13.4214 24.1716 14.1716C23.4214 14.9217 23 15.9391 23 17C23 18.0609 23.4214 19.0783 24.1716 19.8284C24.9217 20.5786 25.9391 21 27 21C28.0609 21 29.0783 20.5786 29.8284 19.8284C30.5786 19.0783 31 18.0609 31 17C31 15.9391 30.5786 14.9217 29.8284 14.1716C29.0783 13.4214 28.0609 13 27 13ZM13 27C13 25.9391 13.4214 24.9217 14.1716 24.1716C14.9217 23.4214 15.9391 23 17 23C18.0609 23 19.0783 23.4214 19.8284 24.1716C20.5786 24.9217 21 25.9391 21 27C21 28.0609 20.5786 29.0783 19.8284 29.8284C19.0783 30.5786 18.0609 31 17 31C15.9391 31 14.9217 30.5786 14.1716 29.8284C13.4214 29.0783 13 28.0609 13 27ZM23 24C23 23.7348 23.1054 23.4804 23.2929 23.2929C23.4804 23.1054 23.7348 23 24 23H30C30.2652 23 30.5196 23.1054 30.7071 23.2929C30.8946 23.4804 31 23.7348 31 24V29C31 29.5304 30.7893 30.0391 30.4142 30.4142C30.0391 30.7893 29.5304 31 29 31H25C24.4696 31 23.9609 30.7893 23.5858 30.4142C23.2107 30.0391 23 29.5304 23 29V24ZM13 14C13 13.7348 13.1054 13.4804 13.2929 13.2929C13.4804 13.1054 13.7348 13 14 13H20C20.2652 13 20.5196 13.1054 20.7071 13.2929C20.8946 13.4804 21 13.7348 21 14V19C21 19.5304 20.7893 20.0391 20.4142 20.4142C20.0391 20.7893 19.5304 21 19 21H15C14.4696 21 13.9609 20.7893 13.5858 20.4142C13.2107 20.0391 13 19.5304 13 19V14Z" fill="white"/>
</svg>
