<svg width="24" height="25" viewBox="0 0 24 25" fill="none" xmlns="http://www.w3.org/2000/svg">
<path d="M6.59961 11.897C6.59961 9.171 6.59961 7.808 7.44261 6.961C8.28661 6.114 9.64361 6.114 12.3596 6.114H15.2396C17.9546 6.114 19.3126 6.114 20.1556 6.961C20.9996 7.808 20.9996 9.171 20.9996 11.897V16.717C20.9996 19.443 20.9996 20.806 20.1556 21.653C19.3126 22.5 17.9546 22.5 15.2396 22.5H12.3596C9.64361 22.5 8.28661 22.5 7.44261 21.653C6.59961 20.806 6.59961 19.443 6.59961 16.717V11.897Z" fill="white"/>
<path opacity="0.5" d="M4.172 3.672C3 4.843 3 6.729 3 10.5V12.5C3 16.271 3 18.157 4.172 19.328C4.789 19.946 5.605 20.238 6.792 20.376C6.6 19.536 6.6 18.38 6.6 16.716V11.897C6.6 9.171 6.6 7.808 7.443 6.961C8.287 6.114 9.644 6.114 12.36 6.114H15.24C16.892 6.114 18.04 6.114 18.878 6.304C18.74 5.111 18.448 4.292 17.828 3.672C16.657 2.5 14.771 2.5 11 2.5C7.229 2.5 5.343 2.5 4.172 3.672Z" fill="white"/>
</svg>
