<svg width="32" height="33" viewBox="0 0 32 33" fill="none" xmlns="http://www.w3.org/2000/svg">
<rect y="0.5" width="32" height="32" rx="4" fill="#626377" fill-opacity="0.5"/>
<path d="M9.33398 14.5C9.33398 13.2427 9.33398 12.6147 9.72465 12.224C10.1153 11.8333 10.7433 11.8333 12.0007 11.8333H20.0007C21.258 11.8333 21.886 11.8333 22.2767 12.224C22.6673 12.6147 22.6673 13.2427 22.6673 14.5C22.6673 14.814 22.6673 14.9713 22.57 15.0693C22.472 15.1667 22.314 15.1667 22.0007 15.1667H10.0007C9.68665 15.1667 9.52932 15.1667 9.43132 15.0693C9.33398 14.9713 9.33398 14.8133 9.33398 14.5ZM9.33398 20.5C9.33398 21.7573 9.33398 22.3853 9.72465 22.776C10.1153 23.1667 10.7433 23.1667 12.0007 23.1667H20.0007C21.258 23.1667 21.886 23.1667 22.2767 22.776C22.6673 22.3853 22.6673 21.7573 22.6673 20.5V17.1667C22.6673 16.8527 22.6673 16.6953 22.57 16.5973C22.472 16.5 22.314 16.5 22.0007 16.5H10.0007C9.68665 16.5 9.52932 16.5 9.43132 16.5973C9.33398 16.6953 9.33398 16.8533 9.33398 17.1667V20.5Z" fill="white"/>
<path d="M12.668 10.5V12.5M19.3346 10.5V12.5" stroke="white" stroke-width="2" stroke-linecap="round"/>
</svg>
