<svg width="54" height="54" viewBox="0 0 54 54" fill="none" xmlns="http://www.w3.org/2000/svg">
<path d="M27.0007 0.328003C41.7313 0.328003 53.6727 12.2693 53.6727 27C53.6727 41.728 41.7313 53.6667 27.0007 53.6667C12.27 53.6693 0.333985 41.728 0.333985 27C0.331318 12.2693 12.27 0.328003 27.0007 0.328003ZM26.99 22.328C26.3365 22.3289 25.706 22.5697 25.2184 23.0048C24.7307 23.4398 24.4198 24.0388 24.3447 24.688L24.326 24.9973L24.3367 39.6693L24.3527 39.9787C24.4272 40.6291 24.7384 41.2294 25.2269 41.6652C25.7155 42.101 26.3473 42.3418 27.002 42.3418C27.6567 42.3418 28.2885 42.101 28.777 41.6652C29.2656 41.2294 29.5768 40.6291 29.6513 39.9787L29.6673 39.6667L29.6567 24.9947L29.638 24.6827C29.5609 24.034 29.2484 23.4362 28.7598 23.0027C28.2713 22.5692 27.6405 22.33 26.9873 22.3307M27.0007 12.3333C26.1155 12.3333 25.2667 12.6849 24.6408 13.3108C24.0149 13.9367 23.6633 14.7856 23.6633 15.6707C23.6633 16.5558 24.0149 17.4046 24.6408 18.0305C25.2667 18.6564 26.1155 19.008 27.0007 19.008C27.8858 19.008 28.7346 18.6564 29.3605 18.0305C29.9864 17.4046 30.338 16.5558 30.338 15.6707C30.338 14.7856 29.9864 13.9367 29.3605 13.3108C28.7346 12.6849 27.8858 12.3333 27.0007 12.3333Z" fill="url(#paint0_linear_72_2707)"/>
<defs>
<linearGradient id="paint0_linear_72_2707" x1="0.60039" y1="0.600001" x2="53.4004" y2="53.4" gradientUnits="userSpaceOnUse">
<stop stop-color="#22A1FE"/>
<stop offset="1" stop-color="#FB18EE"/>
</linearGradient>
</defs>
</svg>
