<svg width="64" height="64" viewBox="0 0 64 64" fill="none" xmlns="http://www.w3.org/2000/svg">
<path d="M49.7778 46.585L35.5556 32.653V21.5771C40.3556 19.8704 43.5911 14.9942 42.4178 9.52593C41.9619 7.49565 40.9006 5.64375 39.3687 4.20513C37.8368 2.76651 35.9033 1.80599 33.8133 1.44539C32.2807 1.187 30.7089 1.25992 29.2081 1.65903C27.7073 2.05815 26.3136 2.77382 25.1248 3.75593C23.9359 4.73804 22.9806 5.96284 22.3256 7.34459C21.6707 8.72634 21.332 10.2316 21.3333 11.755C21.3333 16.2829 24.32 20.1142 28.4444 21.5771V32.653L14.2222 46.585H3.55556C1.6 46.585 0 48.1523 0 50.068V60.5169C0 62.4326 1.6 63.9999 3.55556 63.9999H14.2222C16.1778 63.9999 17.7778 62.4326 17.7778 60.5169V53.3768L32 38.7482L46.2222 53.3768V60.5169C46.2222 62.4326 47.8222 63.9999 49.7778 63.9999H60.4444C62.4 63.9999 64 62.4326 64 60.5169V50.068C64 48.1523 62.4 46.585 60.4444 46.585H49.7778Z" fill="url(#paint0_linear_73_2767)"/>
<defs>
<linearGradient id="paint0_linear_73_2767" x1="0.319654" y1="1.61371" x2="62.3794" y2="64.9542" gradientUnits="userSpaceOnUse">
<stop stop-color="#22A1FE"/>
<stop offset="1" stop-color="#FB18EE"/>
</linearGradient>
</defs>
</svg>
