<svg width="68" height="68" viewBox="0 0 68 68" fill="none" xmlns="http://www.w3.org/2000/svg">
<rect width="68" height="68" rx="4" fill="#06090D"/>
<path d="M16.8574 34C16.8574 24.5321 24.5324 16.8571 34.0003 16.8571C43.4681 16.8571 51.1431 24.5321 51.1431 34C51.1431 43.4679 43.4681 51.1429 34.0003 51.1429C24.5324 51.1429 16.8574 43.4679 16.8574 34ZM34.4096 35.2457C36.5338 35.7686 37.1703 36.4614 37.1703 37.6314C37.1703 38.8471 36.3524 39.7671 34.4096 39.915V35.2457ZM33.126 32.6221C31.3088 32.1671 30.6267 31.4064 30.6267 30.3721C30.6267 29.3386 31.4903 28.3957 33.1267 28.1914L33.126 32.6221ZM34.4096 32.9286V28.1914C35.8638 28.3729 36.886 29.2021 37.0338 30.6343H39.3967C39.306 28.0557 37.2496 26.3514 34.4096 26.1236V24.2043H33.126V26.1236C30.2631 26.34 28.2189 28.0207 28.2189 30.5657C28.2189 32.8714 29.7753 34.1671 32.6603 34.8371L33.126 34.9507V39.9036C31.2974 39.7107 30.4339 38.7336 30.2296 37.4043H27.8781C27.9567 40.1307 30.241 41.755 33.126 41.9714V43.8793H34.4096V41.9714C37.3067 41.7664 39.5788 40.1879 39.5788 37.4043C39.5788 34.985 37.9431 33.7579 34.9553 33.065L34.4096 32.9286Z" fill="white"/>
</svg>
