<svg width="56" height="56" viewBox="0 0 56 56" fill="none" xmlns="http://www.w3.org/2000/svg">
<rect x="0.5" y="0.5" width="55" height="55" rx="7.5" stroke="white"/>
<path d="M33.9697 16.0053C34.1924 16.0253 34.2897 16.2973 34.1297 16.456L23.0364 27.5493C22.9111 27.6747 22.8214 27.8312 22.7764 28.0027L21.4431 33.1093C21.3991 33.2781 21.4 33.4554 21.4457 33.6237C21.4914 33.7921 21.5803 33.9455 21.7036 34.0688C21.8269 34.1921 21.9804 34.2811 22.1487 34.3268C22.317 34.3725 22.4943 34.3733 22.6631 34.3293L27.7684 32.996C27.94 32.9506 28.0965 32.8604 28.2217 32.7347L39.4724 21.484C39.5076 21.4479 39.5524 21.4226 39.6016 21.4111C39.6507 21.3997 39.7021 21.4025 39.7496 21.4193C39.7972 21.4362 39.8389 21.4663 39.8699 21.5061C39.9009 21.5459 39.9198 21.5938 39.9244 21.644C40.3925 26.1102 40.3657 30.6144 39.8444 35.0747C39.5471 37.6147 37.5057 39.608 34.9751 39.892C30.3399 40.4059 25.6622 40.4059 21.0271 39.892C18.4951 39.608 16.4537 37.6147 16.1564 35.0747C15.6067 30.3747 15.6067 25.6266 16.1564 20.9267C16.4537 18.3853 18.4951 16.392 21.0271 16.1093C25.3264 15.6329 29.6633 15.598 33.9697 16.0053Z" fill="white"/>
<path d="M35.7648 17.6493C35.7958 17.6183 35.8326 17.5937 35.8731 17.5768C35.9136 17.56 35.957 17.5514 36.0008 17.5514C36.0447 17.5514 36.0881 17.56 36.1286 17.5768C36.1691 17.5937 36.2059 17.6183 36.2368 17.6493L38.1221 19.536C38.1844 19.5985 38.2194 19.6831 38.2194 19.7713C38.2194 19.8595 38.1844 19.9442 38.1221 20.0067L27.0648 31.0667C27.0227 31.1084 26.9702 31.1383 26.9128 31.1533L24.3608 31.82C24.3046 31.8347 24.2454 31.8344 24.1893 31.8191C24.1332 31.8039 24.0821 31.7743 24.041 31.7331C23.9999 31.692 23.9702 31.6409 23.955 31.5848C23.9398 31.5287 23.9395 31.4696 23.9541 31.4133L24.6208 28.8613C24.6357 28.8038 24.6656 28.7514 24.7075 28.7093L35.7648 17.6493Z" fill="white"/>
</svg>
