<svg width="44" height="44" viewBox="0 0 44 44" fill="none" xmlns="http://www.w3.org/2000/svg">
<rect width="44" height="44" rx="4" fill="#06090D"/>
<path d="M31.75 22V22.1425C31.7181 23.4794 31.2222 25 29.125 25C26.9556 25 26.5 23.3688 26.5 22V18.25C26.5002 18.1472 26.4793 18.0454 26.4385 17.951C26.3978 17.8566 26.3381 17.7716 26.2631 17.7013C26.1881 17.631 26.0994 17.5768 26.0026 17.5422C25.9058 17.5075 25.8029 17.4932 25.7003 17.5C25.5071 17.5166 25.3274 17.6058 25.1974 17.7497C25.0675 17.8936 24.9969 18.0814 25 18.2753V18.6503C24.3229 18.0435 23.4779 17.656 22.5763 17.5389C21.6747 17.4218 20.7587 17.5805 19.9491 17.9942C19.1395 18.4079 18.4741 19.0571 18.0407 19.8564C17.6074 20.6556 17.4262 21.5674 17.5213 22.4716C17.6163 23.3759 17.9829 24.2301 18.573 24.9218C19.1631 25.6135 19.9488 26.1103 20.8267 26.3467C21.7047 26.583 22.6336 26.5479 23.4912 26.2459C24.3488 25.944 25.0948 25.3893 25.6309 24.655C25.7247 24.819 25.8306 24.9757 25.9478 25.1238C26.4513 25.75 27.4103 26.5 29.125 26.5C29.4146 26.501 29.7037 26.4774 29.9894 26.4297C30.06 26.4179 30.1325 26.4266 30.1983 26.4547C30.2642 26.4828 30.3206 26.5292 30.3609 26.5884C30.4012 26.6475 30.4238 26.717 30.4259 26.7885C30.428 26.8601 30.4096 26.9308 30.3728 26.9922C29.4914 28.4708 28.2343 29.6898 26.7294 30.5254C25.2244 31.361 23.5251 31.7835 21.8041 31.75C16.6684 31.6469 12.4562 27.5181 12.2575 22.3853C12.2067 21.09 12.4147 19.7975 12.8693 18.5835C13.324 17.3694 14.0162 16.2583 14.9054 15.315C15.7946 14.3717 16.863 13.6152 18.0481 13.0898C19.2332 12.5643 20.5112 12.2805 21.8073 12.2549C23.1034 12.2293 24.3916 12.4624 25.5965 12.9406C26.8015 13.4188 27.899 14.1324 28.8248 15.0399C29.7506 15.9473 30.4861 17.0302 30.9884 18.2253C31.4907 19.4204 31.7496 20.7037 31.75 22ZM19 22C19 22.5933 19.1759 23.1734 19.5056 23.6667C19.8352 24.1601 20.3038 24.5446 20.8519 24.7716C21.4001 24.9987 22.0033 25.0581 22.5853 24.9424C23.1672 24.8266 23.7018 24.5409 24.1213 24.1213C24.5409 23.7018 24.8266 23.1672 24.9424 22.5853C25.0581 22.0033 24.9987 21.4001 24.7716 20.852C24.5446 20.3038 24.1601 19.8352 23.6667 19.5056C23.1734 19.176 22.5933 19 22 19C21.2044 19 20.4413 19.3161 19.8787 19.8787C19.3161 20.4413 19 21.2044 19 22Z" fill="white"/>
</svg>
