<svg width="40" height="40" viewBox="0 0 40 40" fill="none" xmlns="http://www.w3.org/2000/svg">
<path d="M14.8399 27.5H25.1599C24.1266 32.955 22.0583 36.6667 19.9999 36.6667C18.0049 36.6667 15.9999 33.1767 14.9366 27.9933L14.8399 27.5ZM5.10993 27.5017H12.2866C12.8933 30.9717 13.9249 33.925 15.2733 35.99C11.0358 34.7324 7.46902 31.8475 5.35327 27.9667L5.10993 27.5017ZM27.7149 27.5017H34.8899C33.8636 29.5341 32.4329 31.3354 30.6855 32.795C28.9381 34.2547 26.9109 35.3419 24.7283 35.99C25.9866 34.06 26.9683 31.36 27.5866 28.1883L27.7149 27.5017ZM28.2183 16.6683H36.3349C36.8976 19.4378 36.7503 22.3045 35.9066 25.0017H28.0666C28.3219 22.5973 28.3943 20.177 28.2833 17.7617L28.2183 16.6683ZM3.6666 16.6667H11.7833C11.6089 19.1199 11.6273 21.583 11.8383 24.0333L11.9333 25H4.09327C3.24902 22.303 3.1011 19.4362 3.66327 16.6667M14.2916 16.6667H25.7066C25.897 19.1222 25.8764 21.5896 25.6449 24.0417L25.5416 25H14.4566C14.1653 22.5045 14.0917 19.9883 14.2366 17.48L14.2916 16.6667ZM24.9049 4.29334L24.7249 4.01C27.203 4.74497 29.4767 6.04473 31.3675 7.80708C33.2583 9.56944 34.7145 11.7464 35.6216 14.1667H27.9716C27.4449 10.14 26.3766 6.68 24.9083 4.295L24.7283 4.01167L24.9049 4.29334ZM15.0683 4.07167L15.2716 4.01C13.8049 6.26167 12.7133 9.56 12.1333 13.4333L12.0299 14.1667H4.38327C5.27741 11.7805 6.70531 9.63047 8.55781 7.8808C10.4103 6.13114 12.6384 4.82823 15.0716 4.07167L15.2749 4.01L15.0683 4.07167ZM19.9999 3.33667C22.1983 3.33667 24.4099 7.57334 25.3566 13.6417L25.4349 14.1667H14.5649C15.4666 7.81834 17.7399 3.33667 19.9999 3.33667Z" fill="white"/>
</svg>
