<svg width="44" height="44" viewBox="0 0 44 44" fill="none" xmlns="http://www.w3.org/2000/svg">
<rect width="44" height="44" rx="4" fill="#0C1219"/>
<g clip-path="url(#clip0_71_2670)">
<path fill-rule="evenodd" clip-rule="evenodd" d="M12.5714 11.2857C12.5714 10.9447 12.436 10.6177 12.1949 10.3766C11.9537 10.1355 11.6267 10 11.2857 10C10.9447 10 10.6177 10.1355 10.3766 10.3766C10.1355 10.6177 10 10.9447 10 11.2857V32.7143C10 33.424 10.576 34 11.2857 34H32.7143C33.0553 34 33.3823 33.8645 33.6234 33.6234C33.8645 33.3823 34 33.0553 34 32.7143C34 32.3733 33.8645 32.0463 33.6234 31.8051C33.3823 31.564 33.0553 31.4286 32.7143 31.4286H12.5714V26.6629L16.3463 22.6309C16.8451 22.9154 17.4229 23.0766 18.0366 23.0766C18.8149 23.0766 19.5314 22.8194 20.1074 22.3806L22.5469 24.6571C22.3568 25.2299 22.3211 25.8426 22.4434 26.4335C22.5656 27.0245 22.8416 27.5727 23.2433 28.023C23.6451 28.4733 24.1584 28.8097 24.7316 28.9982C25.3049 29.1868 25.9177 29.2209 26.5083 29.0971C27.0989 28.9733 27.6464 28.696 28.0957 28.2931C28.5449 27.8901 28.88 27.3759 29.0671 26.8022C29.2541 26.2285 29.2867 25.6156 29.1613 25.0253C29.036 24.435 28.7572 23.8882 28.3531 23.44L28.3566 23.4314L30.3434 17.9749C31.1353 17.9039 31.8778 17.5598 32.4439 17.0016C33.0099 16.4434 33.3643 15.7057 33.4462 14.9149C33.5282 14.1241 33.3326 13.3294 32.893 12.6669C32.4535 12.0045 31.7972 11.5155 31.0368 11.2837C30.2763 11.0519 29.4589 11.0917 28.7245 11.3964C27.9902 11.701 27.3846 12.2515 27.0115 12.9536C26.6384 13.6556 26.5211 14.4655 26.6795 15.2446C26.838 16.0237 27.2623 16.7234 27.88 17.224L26.0269 22.3154C25.3994 22.2768 24.7732 22.4089 24.2149 22.6977L21.5714 20.2291C21.5283 20.1889 21.4825 20.1517 21.4343 20.1177C21.5032 19.6132 21.4588 19.0996 21.3042 18.6145C21.1497 18.1293 20.8889 17.6847 20.5408 17.313C20.1928 16.9413 19.7662 16.6519 19.2922 16.4658C18.8182 16.2797 18.3087 16.2017 17.8007 16.2374C17.2928 16.273 16.7992 16.4215 16.3558 16.672C15.9125 16.9225 15.5306 17.2687 15.2379 17.6853C14.9452 18.102 14.7491 18.5787 14.6638 19.0808C14.5786 19.5828 14.6064 20.0975 14.7451 20.5874L14.6937 20.6371L12.5714 22.9V11.2857Z" fill="white"/>
</g>
<defs>
<clipPath id="clip0_71_2670">
<rect width="24" height="24" fill="white" transform="translate(10 10)"/>
</clipPath>
</defs>
</svg>
