<svg width="40" height="40" viewBox="0 0 40 40" fill="none" xmlns="http://www.w3.org/2000/svg">
<path d="M19.9999 3.33331C10.7999 3.33331 3.33325 10.8 3.33325 20C3.33325 29.2 10.7999 36.6666 19.9999 36.6666C29.1999 36.6666 36.6666 29.2 36.6666 20C36.6666 10.8 29.1999 3.33331 19.9999 3.33331ZM19.9999 28.3333C19.0833 28.3333 18.3333 27.5833 18.3333 26.6666V20C18.3333 19.0833 19.0833 18.3333 19.9999 18.3333C20.9166 18.3333 21.6666 19.0833 21.6666 20V26.6666C21.6666 27.5833 20.9166 28.3333 19.9999 28.3333ZM21.6666 15H18.3333V11.6666H21.6666V15Z" fill="#CECECE"/>
</svg>
