<svg width="44" height="44" viewBox="0 0 44 44" fill="none" xmlns="http://www.w3.org/2000/svg">
<rect width="44" height="44" rx="4" fill="#06090D"/>
<path d="M24 12.75C25.907 12.75 27.262 12.752 28.29 12.89C29.295 13.025 29.875 13.279 30.298 13.702C30.721 14.125 30.975 14.705 31.11 15.711C31.248 16.739 31.25 18.093 31.25 20C31.25 20.1989 31.329 20.3897 31.4697 20.5303C31.6103 20.671 31.8011 20.75 32 20.75C32.1989 20.75 32.3897 20.671 32.5303 20.5303C32.671 20.3897 32.75 20.1989 32.75 20V19.944C32.75 18.106 32.75 16.65 32.597 15.511C32.439 14.339 32.107 13.39 31.359 12.641C30.61 11.893 29.661 11.561 28.489 11.403C27.349 11.25 25.894 11.25 24.056 11.25H24C23.8011 11.25 23.6103 11.329 23.4697 11.4697C23.329 11.6103 23.25 11.8011 23.25 12C23.25 12.1989 23.329 12.3897 23.4697 12.5303C23.6103 12.671 23.8011 12.75 24 12.75ZM19.944 11.25H20C20.1989 11.25 20.3897 11.329 20.5303 11.4697C20.671 11.6103 20.75 11.8011 20.75 12C20.75 12.1989 20.671 12.3897 20.5303 12.5303C20.3897 12.671 20.1989 12.75 20 12.75C18.093 12.75 16.739 12.752 15.71 12.89C14.705 13.025 14.125 13.279 13.702 13.702C13.279 14.125 13.025 14.705 12.89 15.711C12.752 16.739 12.75 18.093 12.75 20C12.75 20.1989 12.671 20.3897 12.5303 20.5303C12.3897 20.671 12.1989 20.75 12 20.75C11.8011 20.75 11.6103 20.671 11.4697 20.5303C11.329 20.3897 11.25 20.1989 11.25 20V19.944C11.25 18.106 11.25 16.65 11.403 15.511C11.561 14.339 11.893 13.39 12.641 12.641C13.39 11.893 14.339 11.561 15.511 11.403C16.651 11.25 18.106 11.25 19.944 11.25Z" fill="white"/>
<path d="M15.527 15.527C15 16.054 15 16.903 15 18.6C15 19.731 15 20.297 15.351 20.649C15.703 21 16.27 21 17.4 21H18.6C19.731 21 20.297 21 20.649 20.649C21 20.297 21 19.73 21 18.6V17.4C21 16.269 21 15.703 20.649 15.351C20.297 15 19.73 15 18.6 15C16.903 15 16.054 15 15.527 15.527ZM15.527 28.473C15 27.946 15 27.097 15 25.4C15 24.269 15 23.703 15.351 23.351C15.703 23 16.27 23 17.4 23H18.6C19.731 23 20.297 23 20.649 23.351C21 23.703 21 24.269 21 25.4V26.6C21 27.731 21 28.297 20.649 28.648C20.297 29 19.73 29 18.6 29C16.903 29 16.054 29 15.527 28.473ZM23 17.4C23 16.269 23 15.703 23.351 15.351C23.704 15 24.27 15 25.4 15C27.097 15 27.946 15 28.473 15.527C29 16.054 29 16.903 29 18.6C29 19.731 29 20.297 28.648 20.649C28.298 21 27.731 21 26.6 21H25.4C24.269 21 23.703 21 23.351 20.649C23 20.297 23 19.73 23 18.6V17.4ZM23.352 28.649C23 28.297 23 27.73 23 26.6V25.4C23 24.269 23 23.703 23.351 23.351C23.704 23 24.27 23 25.4 23H26.6C27.731 23 28.297 23 28.648 23.351C29 23.703 29 24.269 29 25.4C29 27.097 29 27.946 28.473 28.473C27.946 29 27.097 29 25.4 29C24.269 29 23.703 29 23.351 28.648" fill="white"/>
<path d="M32 23.25C32.1989 23.25 32.3897 23.329 32.5303 23.4697C32.671 23.6103 32.75 23.8011 32.75 24V24.056C32.75 25.894 32.75 27.35 32.597 28.489C32.439 29.661 32.107 30.61 31.359 31.359C30.61 32.107 29.661 32.439 28.489 32.597C27.349 32.75 25.894 32.75 24.056 32.75H24C23.8011 32.75 23.6103 32.671 23.4697 32.5303C23.329 32.3897 23.25 32.1989 23.25 32C23.25 31.8011 23.329 31.6103 23.4697 31.4697C23.6103 31.329 23.8011 31.25 24 31.25C25.907 31.25 27.262 31.248 28.29 31.11C29.295 30.975 29.875 30.721 30.298 30.298C30.721 29.875 30.975 29.295 31.11 28.289C31.248 27.262 31.25 25.907 31.25 24C31.25 23.8011 31.329 23.6103 31.4697 23.4697C31.6103 23.329 31.8011 23.25 32 23.25ZM12.75 24C12.75 23.8011 12.671 23.6103 12.5303 23.4697C12.3897 23.329 12.1989 23.25 12 23.25C11.8011 23.25 11.6103 23.329 11.4697 23.4697C11.329 23.6103 11.25 23.8011 11.25 24V24.056C11.25 25.894 11.25 27.35 11.403 28.489C11.561 29.661 11.893 30.61 12.641 31.359C13.39 32.107 14.339 32.439 15.511 32.597C16.651 32.75 18.106 32.75 19.944 32.75H20C20.1989 32.75 20.3897 32.671 20.5303 32.5303C20.671 32.3897 20.75 32.1989 20.75 32C20.75 31.8011 20.671 31.6103 20.5303 31.4697C20.3897 31.329 20.1989 31.25 20 31.25C18.093 31.25 16.739 31.248 15.71 31.11C14.705 30.975 14.125 30.721 13.702 30.298C13.279 29.875 13.025 29.295 12.89 28.289C12.752 27.262 12.75 25.907 12.75 24Z" fill="white"/>
</svg>
