<svg width="108" height="108" viewBox="0 0 108 108" fill="none" xmlns="http://www.w3.org/2000/svg">
<rect width="108" height="108" rx="10" fill="black" fill-opacity="0.3"/>
<path fill-rule="evenodd" clip-rule="evenodd" d="M28.8947 36.896C27.332 38.4587 27.332 40.9707 27.332 46V62C27.332 67.0293 27.332 69.5413 28.8947 71.104C30.4574 72.6667 32.9694 72.6667 37.9987 72.6667H69.9987C75.028 72.6667 77.54 72.6667 79.1027 71.104C80.6654 69.5413 80.6654 67.0293 80.6654 62V46C80.6654 40.9707 80.6654 38.4587 79.1027 36.896C77.54 35.3333 75.028 35.3333 69.9987 35.3333H37.9987C32.9694 35.3333 30.4574 35.3333 28.8947 36.896ZM35.332 40.6667C34.6248 40.6667 33.9465 40.9476 33.4464 41.4477C32.9463 41.9478 32.6654 42.6261 32.6654 43.3333C32.6654 44.0406 32.9463 44.7189 33.4464 45.219C33.9465 45.719 34.6248 46 35.332 46H40.6654C41.3726 46 42.0509 45.719 42.551 45.219C43.0511 44.7189 43.332 44.0406 43.332 43.3333C43.332 42.6261 43.0511 41.9478 42.551 41.4477C42.0509 40.9476 41.3726 40.6667 40.6654 40.6667H35.332ZM64.6654 64.6667C64.6654 63.9594 64.9463 63.2811 65.4464 62.781C65.9465 62.281 66.6248 62 67.332 62H72.6654C73.3726 62 74.0509 62.281 74.551 62.781C75.0511 63.2811 75.332 63.9594 75.332 64.6667C75.332 65.3739 75.0511 66.0522 74.551 66.5523C74.0509 67.0524 73.3726 67.3333 72.6654 67.3333H67.332C66.6248 67.3333 65.9465 67.0524 65.4464 66.5523C64.9463 66.0522 64.6654 65.3739 64.6654 64.6667ZM56.6654 54C56.6654 54.7072 56.3844 55.3855 55.8843 55.8856C55.3842 56.3857 54.7059 56.6667 53.9987 56.6667C53.2915 56.6667 52.6132 56.3857 52.1131 55.8856C51.613 55.3855 51.332 54.7072 51.332 54C51.332 53.2928 51.613 52.6145 52.1131 52.1144C52.6132 51.6143 53.2915 51.3333 53.9987 51.3333C54.7059 51.3333 55.3842 51.6143 55.8843 52.1144C56.3844 52.6145 56.6654 53.2928 56.6654 54ZM61.9987 54C61.9987 56.1217 61.1558 58.1566 59.6556 59.6569C58.1553 61.1571 56.1204 62 53.9987 62C51.877 62 49.8421 61.1571 48.3418 59.6569C46.8416 58.1566 45.9987 56.1217 45.9987 54C45.9987 51.8783 46.8416 49.8434 48.3418 48.3431C49.8421 46.8429 51.877 46 53.9987 46C56.1204 46 58.1553 46.8429 59.6556 48.3431C61.1558 49.8434 61.9987 51.8783 61.9987 54Z" fill="#000600"/>
</svg>
