<svg width="56" height="56" viewBox="0 0 56 56" fill="none" xmlns="http://www.w3.org/2000/svg">
<path d="M26.334 40.4583L18.0007 35.6667C17.4729 35.3611 17.0634 34.9517 16.7723 34.4383C16.4812 33.925 16.3351 33.3761 16.334 32.7917V23.2083C16.334 22.625 16.4801 22.0767 16.7723 21.5633C17.0645 21.05 17.474 20.64 18.0007 20.3333L26.334 15.5417C26.8618 15.2361 27.4173 15.0833 28.0007 15.0833C28.584 15.0833 29.1395 15.2361 29.6673 15.5417L38.0007 20.3333C38.5284 20.6389 38.9384 21.0489 39.2307 21.5633C39.5229 22.0778 39.6684 22.6261 39.6673 23.2083V32.7917C39.6673 33.375 39.5218 33.9239 39.2307 34.4383C38.9395 34.9528 38.5295 35.3622 38.0007 35.6667L29.6673 40.4583C29.1395 40.7639 28.584 40.9167 28.0007 40.9167C27.4173 40.9167 26.8618 40.7639 26.334 40.4583ZM11.334 19.6667V14.6667C11.334 13.75 11.6607 12.9656 12.314 12.3133C12.9673 11.6611 13.7518 11.3345 14.6673 11.3333H19.6673V14.6667H14.6673V19.6667H11.334ZM19.6673 44.6667H14.6673C13.7507 44.6667 12.9662 44.3406 12.314 43.6883C11.6618 43.0361 11.3351 42.2511 11.334 41.3333V36.3333H14.6673V41.3333H19.6673V44.6667ZM36.334 44.6667V41.3333H41.334V36.3333H44.6673V41.3333C44.6673 42.25 44.3412 43.035 43.689 43.6883C43.0368 44.3417 42.2518 44.6678 41.334 44.6667H36.334ZM41.334 19.6667V14.6667H36.334V11.3333H41.334C42.2507 11.3333 43.0357 11.66 43.689 12.3133C44.3423 12.9667 44.6684 13.7511 44.6673 14.6667V19.6667H41.334ZM21.4173 22.2083L19.6673 23.2083V25.0833L26.334 28.9583V36.625L28.0007 37.5833L29.6673 36.625V28.9583L36.334 25.0833V23.2083L34.584 22.2083L28.0007 26.0833L21.4173 22.2083Z" fill="white"/>
</svg>
