<svg width="112" height="112" viewBox="0 0 112 112" fill="none" xmlns="http://www.w3.org/2000/svg">
<rect width="112" height="112" rx="8" fill="#0C1219"/>
<g clip-path="url(#clip0_74_2779)">
<path fill-rule="evenodd" clip-rule="evenodd" d="M30.8571 27.4286C30.8571 26.5193 30.4959 25.6472 29.8529 25.0042C29.21 24.3612 28.3379 24 27.4286 24C26.5193 24 25.6472 24.3612 25.0042 25.0042C24.3612 25.6472 24 26.5193 24 27.4286V84.5714C24 86.464 25.536 88 27.4286 88H84.5714C85.4807 88 86.3528 87.6388 86.9958 86.9958C87.6388 86.3528 88 85.4807 88 84.5714C88 83.6621 87.6388 82.7901 86.9958 82.1471C86.3528 81.5041 85.4807 81.1429 84.5714 81.1429H30.8571V68.4343L40.9234 57.6823C42.2537 58.4411 43.7943 58.8709 45.4309 58.8709C47.5063 58.8709 49.4171 58.1851 50.9531 57.0149L57.4583 63.0857C56.9514 64.613 56.8562 66.2469 57.1823 67.8228C57.5084 69.3986 58.2442 70.8606 59.3155 72.0613C60.3868 73.262 61.7558 74.1591 63.2844 74.662C64.813 75.1648 66.4472 75.2558 68.0221 74.9256C69.5971 74.5955 71.0572 73.8559 72.2551 72.7815C73.4531 71.707 74.3466 70.3357 74.8455 68.8058C75.3444 67.2759 75.4311 65.6415 75.0969 64.0674C74.7626 62.4933 74.0193 61.0352 72.9417 59.84L72.9509 59.8171L78.2491 45.2663C80.3608 45.0771 82.3409 44.1596 83.8504 42.6709C85.3599 41.1823 86.3048 39.2151 86.5233 37.1063C86.7418 34.9975 86.2203 32.8784 85.0481 31.1119C83.8759 29.3453 82.126 28.0413 80.098 27.4232C78.0701 26.8051 75.8903 26.9113 73.932 27.7237C71.9738 28.536 70.3589 30.004 69.3641 31.8762C68.3692 33.7483 68.0562 35.9081 68.4787 37.9856C68.9012 40.0632 70.0329 41.9292 71.68 43.264L66.7383 56.8411C65.0651 56.7381 63.3952 57.0904 61.9063 57.8606L54.8571 51.2777C54.7421 51.1705 54.6199 51.0712 54.4914 50.9806C54.6752 49.6352 54.5567 48.2657 54.1446 46.9719C53.7324 45.6781 53.037 44.4924 52.1088 43.5012C51.1807 42.5101 50.0432 41.7383 48.7793 41.2421C47.5153 40.7459 46.1565 40.5378 44.802 40.633C43.4474 40.7281 42.1311 41.124 40.9489 41.792C39.7666 42.4599 38.7482 43.3831 37.9677 44.4942C37.1872 45.6054 36.6642 46.8766 36.4369 48.2153C36.2096 49.5541 36.2837 50.9266 36.6537 52.2331L36.5166 52.3657L30.8571 58.4V27.4286Z" fill="url(#paint0_linear_74_2779)"/>
</g>
<defs>
<linearGradient id="paint0_linear_74_2779" x1="24.3197" y1="24.3264" x2="87.6733" y2="87.68" gradientUnits="userSpaceOnUse">
<stop stop-color="#22A1FE"/>
<stop offset="1" stop-color="#FB18EE"/>
</linearGradient>
<clipPath id="clip0_74_2779">
<rect width="64" height="64" fill="white" transform="translate(24 24)"/>
</clipPath>
</defs>
</svg>
