<svg width="1726" height="696" viewBox="0 0 1726 696" fill="none" xmlns="http://www.w3.org/2000/svg">
<path d="M0.5 41C0.5 23.603 14.603 9.5 32 9.5H308C325.397 9.5 339.5 23.603 339.5 41V179V221.5V242.75V258.793C339.5 262.156 341.483 265.204 344.559 266.565L379.536 282.05C382.313 283.279 382.313 287.221 379.536 288.45L344.559 303.935C341.483 305.296 339.5 308.344 339.5 311.707V317C339.5 334.397 325.397 348.5 308 348.5H32C14.603 348.5 0.5 334.397 0.5 317V41Z" fill="#0C1219" stroke="url(#paint0_linear_74_2839)"/>
<g clip-path="url(#clip0_74_2839)">
<path d="M170 74C173.672 74 177.214 74.4688 180.625 75.4062C184.036 76.3438 187.214 77.6979 190.156 79.4688C193.099 81.2396 195.794 83.3229 198.242 85.7188C200.69 88.1146 202.786 90.8099 204.531 93.8047C206.276 96.7995 207.617 99.9896 208.555 103.375C209.492 106.76 209.974 110.302 210 114C210 117.672 209.531 121.214 208.594 124.625C207.656 128.036 206.302 131.214 204.531 134.156C202.76 137.099 200.677 139.794 198.281 142.242C195.885 144.69 193.19 146.786 190.195 148.531C187.201 150.276 184.01 151.617 180.625 152.555C177.24 153.492 173.698 153.974 170 154C166.328 154 162.786 153.531 159.375 152.594C155.964 151.656 152.786 150.302 149.844 148.531C146.901 146.76 144.206 144.677 141.758 142.281C139.31 139.885 137.214 137.19 135.469 134.195C133.724 131.201 132.383 128.01 131.445 124.625C130.508 121.24 130.026 117.698 130 114C130 110.328 130.469 106.786 131.406 103.375C132.344 99.9635 133.698 96.7865 135.469 93.8438C137.24 90.901 139.323 88.2057 141.719 85.7578C144.115 83.3099 146.81 81.2135 149.805 79.4688C152.799 77.724 155.99 76.3828 159.375 75.4453C162.76 74.5078 166.302 74.026 170 74ZM193.555 100.758L188.242 95.4453L162.5 121.188L151.758 110.445L146.445 115.758L162.5 131.812L193.555 100.758Z" fill="url(#paint1_linear_74_2839)"/>
</g>
<path d="M117 238.938C117 237.688 117.177 236.49 117.531 235.344C117.906 234.177 118.458 233.104 119.188 232.125C119.917 231.125 120.823 230.24 121.906 229.469C123.01 228.677 124.302 228.031 125.781 227.531C123.51 226.406 121.75 224.969 120.5 223.219C119.25 221.448 118.625 219.49 118.625 217.344C118.625 215.635 118.979 214.052 119.688 212.594C120.417 211.135 121.417 209.875 122.688 208.812C123.958 207.75 125.469 206.927 127.219 206.344C128.99 205.74 130.917 205.438 133 205.438C135.125 205.438 137.073 205.74 138.844 206.344C140.615 206.927 142.135 207.75 143.406 208.812C144.698 209.854 145.698 211.094 146.406 212.531C147.115 213.969 147.469 215.531 147.469 217.219C147.469 219.344 146.802 221.281 145.469 223.031C144.135 224.76 142.292 226.188 139.938 227.312C141.396 227.812 142.677 228.458 143.781 229.25C144.885 230.021 145.812 230.906 146.562 231.906C147.312 232.906 147.875 234 148.25 235.188C148.625 236.354 148.812 237.573 148.812 238.844C148.812 240.76 148.427 242.51 147.656 244.094C146.885 245.656 145.792 247.01 144.375 248.156C142.979 249.281 141.302 250.156 139.344 250.781C137.406 251.406 135.26 251.719 132.906 251.719C130.594 251.719 128.458 251.417 126.5 250.812C124.562 250.188 122.885 249.312 121.469 248.188C120.073 247.062 118.979 245.719 118.188 244.156C117.396 242.573 117 240.833 117 238.938ZM126.344 238.094C126.344 239.115 126.5 240.031 126.812 240.844C127.125 241.656 127.573 242.344 128.156 242.906C128.74 243.469 129.427 243.906 130.219 244.219C131.031 244.51 131.938 244.656 132.938 244.656C133.896 244.656 134.771 244.5 135.562 244.188C136.375 243.875 137.073 243.438 137.656 242.875C138.24 242.312 138.698 241.625 139.031 240.812C139.365 240 139.531 239.094 139.531 238.094C139.531 237.198 139.375 236.344 139.062 235.531C138.75 234.719 138.302 234.021 137.719 233.438C137.135 232.833 136.438 232.354 135.625 232C134.833 231.646 133.938 231.469 132.938 231.469C132 231.469 131.125 231.635 130.312 231.969C129.5 232.281 128.802 232.74 128.219 233.344C127.635 233.927 127.177 234.625 126.844 235.438C126.51 236.25 126.344 237.135 126.344 238.094ZM127.719 218.25C127.719 219.042 127.854 219.792 128.125 220.5C128.417 221.188 128.802 221.792 129.281 222.312C129.76 222.812 130.323 223.208 130.969 223.5C131.635 223.792 132.333 223.938 133.062 223.938C133.812 223.938 134.51 223.792 135.156 223.5C135.802 223.208 136.365 222.802 136.844 222.281C137.344 221.76 137.729 221.156 138 220.469C138.292 219.781 138.438 219.042 138.438 218.25C138.438 217.438 138.302 216.688 138.031 216C137.76 215.292 137.375 214.688 136.875 214.188C136.396 213.667 135.823 213.26 135.156 212.969C134.51 212.677 133.812 212.531 133.062 212.531C132.271 212.531 131.542 212.688 130.875 213C130.229 213.292 129.667 213.698 129.188 214.219C128.729 214.719 128.365 215.323 128.094 216.031C127.844 216.719 127.719 217.458 127.719 218.25ZM154.969 249.531V240.938C157.969 243.125 161.469 244.219 165.469 244.219C167.99 244.219 169.948 243.677 171.344 242.594C172.76 241.51 173.469 240 173.469 238.062C173.469 236.062 172.594 234.521 170.844 233.438C169.115 232.354 166.729 231.812 163.688 231.812H159.531V224.25H163.375C169.208 224.25 172.125 222.312 172.125 218.438C172.125 214.792 169.885 212.969 165.406 212.969C162.406 212.969 159.49 213.938 156.656 215.875V207.812C159.802 206.229 163.469 205.438 167.656 205.438C172.24 205.438 175.802 206.469 178.344 208.531C180.906 210.594 182.188 213.271 182.188 216.562C182.188 222.417 179.219 226.083 173.281 227.562V227.719C176.448 228.115 178.948 229.271 180.781 231.188C182.615 233.083 183.531 235.417 183.531 238.188C183.531 242.375 182 245.688 178.938 248.125C175.875 250.562 171.646 251.781 166.25 251.781C161.625 251.781 157.865 251.031 154.969 249.531ZM217.875 206.188V234.438H223.25V241.812H217.875V251H208.875V241.812H189.344V234.094C191.073 232.156 192.865 230.042 194.719 227.75C196.573 225.438 198.365 223.062 200.094 220.625C201.823 218.188 203.427 215.74 204.906 213.281C206.406 210.802 207.677 208.438 208.719 206.188H217.875ZM198.188 234.438H208.875V218.781C208.146 220.135 207.354 221.51 206.5 222.906C205.646 224.281 204.75 225.646 203.812 227C202.875 228.333 201.927 229.635 200.969 230.906C200.01 232.156 199.083 233.333 198.188 234.438Z" fill="white"/>
<path d="M100.918 301H89.2422V281.395H93.6582V297.418H100.918V301ZM114.795 301H110.707V298.99H110.652C109.714 300.558 108.324 301.342 106.482 301.342C105.124 301.342 104.053 300.959 103.27 300.193C102.495 299.419 102.107 298.389 102.107 297.104C102.107 294.387 103.716 292.82 106.934 292.4L110.734 291.895C110.734 290.363 109.905 289.598 108.246 289.598C106.578 289.598 104.992 290.094 103.488 291.088V287.834C104.09 287.524 104.91 287.251 105.949 287.014C106.997 286.777 107.95 286.658 108.807 286.658C112.799 286.658 114.795 288.65 114.795 292.633V301ZM110.734 295.312V294.369L108.191 294.697C106.788 294.88 106.086 295.513 106.086 296.598C106.086 297.09 106.255 297.495 106.592 297.814C106.938 298.124 107.403 298.279 107.986 298.279C108.798 298.279 109.458 298.001 109.969 297.445C110.479 296.88 110.734 296.169 110.734 295.312ZM131.734 301H127.428V293.221C127.428 291.051 126.653 289.967 125.104 289.967C124.356 289.967 123.741 290.254 123.258 290.828C122.775 291.402 122.533 292.132 122.533 293.016V301H118.213V287H122.533V289.215H122.588C123.618 287.51 125.117 286.658 127.086 286.658C130.185 286.658 131.734 288.581 131.734 292.428V301ZM148.865 301H144.545V299.072H144.49C143.506 300.585 142.061 301.342 140.156 301.342C138.406 301.342 136.998 300.727 135.932 299.496C134.865 298.257 134.332 296.529 134.332 294.314C134.332 291.999 134.92 290.145 136.096 288.75C137.271 287.355 138.812 286.658 140.717 286.658C142.521 286.658 143.779 287.305 144.49 288.6H144.545V280.273H148.865V301ZM144.627 294.191V293.139C144.627 292.227 144.363 291.471 143.834 290.869C143.305 290.268 142.617 289.967 141.77 289.967C140.812 289.967 140.065 290.345 139.527 291.102C138.99 291.849 138.721 292.879 138.721 294.191C138.721 295.422 138.98 296.37 139.5 297.035C140.02 297.701 140.74 298.033 141.66 298.033C142.535 298.033 143.246 297.682 143.793 296.98C144.349 296.279 144.627 295.349 144.627 294.191ZM177.111 301H172.039L168.99 295.955C168.762 295.572 168.544 295.23 168.334 294.93C168.124 294.629 167.91 294.374 167.691 294.164C167.482 293.945 167.258 293.781 167.021 293.672C166.794 293.553 166.543 293.494 166.27 293.494H165.08V301H160.664V281.395H167.664C172.422 281.395 174.801 283.172 174.801 286.727C174.801 287.41 174.696 288.044 174.486 288.627C174.277 289.201 173.98 289.721 173.598 290.186C173.215 290.65 172.75 291.051 172.203 291.389C171.665 291.726 171.064 291.99 170.398 292.182V292.236C170.69 292.327 170.973 292.478 171.246 292.688C171.52 292.888 171.784 293.125 172.039 293.398C172.294 293.672 172.536 293.968 172.764 294.287C173.001 294.597 173.215 294.902 173.406 295.203L177.111 301ZM165.08 284.703V290.158H166.994C167.942 290.158 168.703 289.885 169.277 289.338C169.861 288.782 170.152 288.094 170.152 287.273C170.152 285.56 169.127 284.703 167.076 284.703H165.08ZM191.111 295.23H181.979C182.124 297.263 183.405 298.279 185.82 298.279C187.361 298.279 188.714 297.915 189.881 297.186V300.303C188.587 300.995 186.905 301.342 184.836 301.342C182.576 301.342 180.821 300.717 179.572 299.469C178.324 298.211 177.699 296.461 177.699 294.219C177.699 291.895 178.374 290.053 179.723 288.695C181.072 287.337 182.73 286.658 184.699 286.658C186.741 286.658 188.318 287.264 189.43 288.477C190.551 289.689 191.111 291.334 191.111 293.412V295.23ZM187.105 292.578C187.105 290.573 186.294 289.57 184.672 289.57C183.979 289.57 183.378 289.857 182.867 290.432C182.366 291.006 182.061 291.721 181.951 292.578H187.105ZM207.203 301H202.896V293.221C202.896 291.051 202.122 289.967 200.572 289.967C199.825 289.967 199.21 290.254 198.727 290.828C198.243 291.402 198.002 292.132 198.002 293.016V301H193.682V287H198.002V289.215H198.057C199.087 287.51 200.586 286.658 202.555 286.658C205.654 286.658 207.203 288.581 207.203 292.428V301ZM219.098 300.836C218.46 301.173 217.498 301.342 216.213 301.342C213.169 301.342 211.646 299.76 211.646 296.598V290.186H209.377V287H211.646V283.979L215.953 282.748V287H219.098V290.186H215.953V295.846C215.953 297.304 216.532 298.033 217.689 298.033C218.145 298.033 218.615 297.901 219.098 297.637V300.836ZM234.123 295.23H224.99C225.136 297.263 226.417 298.279 228.832 298.279C230.372 298.279 231.726 297.915 232.893 297.186V300.303C231.598 300.995 229.917 301.342 227.848 301.342C225.587 301.342 223.833 300.717 222.584 299.469C221.335 298.211 220.711 296.461 220.711 294.219C220.711 291.895 221.385 290.053 222.734 288.695C224.083 287.337 225.742 286.658 227.711 286.658C229.753 286.658 231.329 287.264 232.441 288.477C233.562 289.689 234.123 291.334 234.123 293.412V295.23ZM230.117 292.578C230.117 290.573 229.306 289.57 227.684 289.57C226.991 289.57 226.389 289.857 225.879 290.432C225.378 291.006 225.072 291.721 224.963 292.578H230.117ZM250.393 301H246.072V299.072H246.018C245.033 300.585 243.589 301.342 241.684 301.342C239.934 301.342 238.525 300.727 237.459 299.496C236.393 298.257 235.859 296.529 235.859 294.314C235.859 291.999 236.447 290.145 237.623 288.75C238.799 287.355 240.339 286.658 242.244 286.658C244.049 286.658 245.307 287.305 246.018 288.6H246.072V280.273H250.393V301ZM246.154 294.191V293.139C246.154 292.227 245.89 291.471 245.361 290.869C244.833 290.268 244.145 289.967 243.297 289.967C242.34 289.967 241.592 290.345 241.055 291.102C240.517 291.849 240.248 292.879 240.248 294.191C240.248 295.422 240.508 296.37 241.027 297.035C241.547 297.701 242.267 298.033 243.188 298.033C244.062 298.033 244.773 297.682 245.32 296.98C245.876 296.279 246.154 295.349 246.154 294.191Z" fill="white"/>
<g clip-path="url(#clip1_74_2839)">
<path d="M420 13.0001H423.356V683.899H420V13.0001ZM443.863 683.899H447.22V13.0001H443.863V683.899ZM467.694 683.899H471.05V13.0001H467.694V683.899ZM491.557 683.899H494.914V13.0001H491.557V683.899ZM515.422 683.899H518.778V13.0001H515.422V683.899ZM539.285 683.899H542.641V13.0001H539.285V683.899ZM563.149 683.899H566.505V13.0001H563.149V683.899ZM587.013 683.899H590.37V13.0001H587.013V683.899ZM610.843 683.899H614.199V13.0001H610.843V683.899ZM634.707 683.899H638.064V13.0001H634.707V683.899ZM658.571 683.899H661.927V13.0001H658.571V683.899ZM682.435 683.899H685.791V13.0001H682.435V683.899ZM706.298 683.899H709.655V13.0001H706.298V683.899ZM730.162 683.899H733.519V13.0001H730.162V683.899ZM754.027 683.899H757.383V13.0001H754.027V683.899ZM777.856 683.899H781.213V13.0001H777.856V683.899ZM801.721 683.899H805.077V13.0001H801.721V683.899ZM825.584 683.899H828.94V13.0001H825.584V683.899ZM849.448 683.899H852.805V13.0001H849.448V683.899ZM873.312 683.899H876.668V13.0001H873.312V683.899ZM897.176 683.899H900.532V13.0001H897.176V683.899ZM921.006 683.899H924.363V13.0001H921.006V683.899ZM944.87 683.899H948.226V13.0001H944.87V683.899ZM968.734 683.899H972.09V13.0001H968.734V683.899ZM992.597 683.899H995.954V13.0001H992.597V683.899ZM1016.46 683.899H1019.82V13.0001H1016.46V683.899ZM1040.32 683.899H1043.68V13.0001H1040.32V683.899ZM1064.16 683.899H1067.51V13.0001H1064.16V683.899ZM1582.64 683.899H1586V13H1582.64V683.899ZM420.1 13.0001V16.3546L1586 16.3545V13L420.1 13.0001ZM420.1 36.8509V40.2054L1586 40.2053V36.8508L420.1 36.8509ZM420.1 60.7013V64.0558L1586 64.0557V60.7012L420.1 60.7013ZM420.1 84.5182V87.8727L1586 87.8726V84.5181L420.1 84.5182ZM420.1 108.369V111.723L1586 111.723V108.368L420.1 108.369ZM420.1 132.219V135.574L1586 135.573V132.219L420.1 132.219ZM420.1 156.069V159.424L1586 159.424V156.069L420.1 156.069ZM420.1 179.92V183.274L1586 183.274V179.92L420.1 179.92ZM420.1 203.771V207.125L1586 207.125V203.771L420.1 203.771ZM420.1 227.588V230.942L1586 230.942V227.587L420.1 227.588ZM420.1 251.438V254.792L1586 254.792V251.438L420.1 251.438ZM420.1 275.288V278.643L1586 278.643V275.288L420.1 275.288ZM420.1 299.139V302.493L1586 302.493V299.139L420.1 299.139ZM420.1 322.989V326.344L1586 326.344V322.989L420.1 322.989ZM420.1 346.84V350.194L1586 350.194V346.84L420.1 346.84ZM420.1 370.657V374.011L1586 374.011V370.657L420.1 370.657ZM420.1 394.507V397.862L1586 397.862V394.507L420.1 394.507ZM420.1 418.358V421.712L1586 421.712V418.358L420.1 418.358ZM420.1 442.208V445.563L1586 445.562V442.208L420.1 442.208ZM420.1 466.059V469.413L1586 469.413V466.058L420.1 466.059ZM420.1 489.909V493.263L1586 493.263V489.909L420.1 489.909ZM420.1 513.726V517.08L1586 517.08V513.726L420.1 513.726ZM420.1 537.576V540.931L1586 540.931V537.576L420.1 537.576ZM420.1 561.427V564.781L1586 564.781V561.427L420.1 561.427ZM420.1 585.277V588.632L1586 588.632V585.277L420.1 585.277ZM420.1 609.128V612.482L1586 612.482V609.128L420.1 609.128ZM420.1 632.978V636.333L1586 636.333V632.978L420.1 632.978ZM420.1 656.829V660.183L1586 660.183V656.829L420.1 656.829ZM420.1 680.646V684L1586 684V680.645L420.1 680.646Z" fill="url(#paint2_linear_74_2839)" fill-opacity="0.5"/>
<path d="M1091.24 683.899H1087.89V13.0002H1091.24V683.899Z" fill="url(#paint3_linear_74_2839)" fill-opacity="0.5"/>
<path d="M1115.11 683.899H1111.75V13.0002H1115.11V683.899Z" fill="url(#paint4_linear_74_2839)" fill-opacity="0.5"/>
<path d="M1138.97 683.899H1135.61V13.0002H1138.97V683.899Z" fill="url(#paint5_linear_74_2839)" fill-opacity="0.5"/>
<path d="M1162.83 683.899H1159.48V13.0002H1162.83V683.899Z" fill="url(#paint6_linear_74_2839)" fill-opacity="0.5"/>
<path d="M1186.7 683.899H1183.34V13.0002H1186.7V683.899Z" fill="url(#paint7_linear_74_2839)" fill-opacity="0.5"/>
<path d="M1210.53 683.899H1207.17V13.0002H1210.53V683.899Z" fill="url(#paint8_linear_74_2839)" fill-opacity="0.5"/>
<path d="M1234.39 683.899H1231.04V13.0002H1234.39V683.899Z" fill="url(#paint9_linear_74_2839)" fill-opacity="0.5"/>
<path d="M1258.26 683.899H1254.9V13.0002H1258.26V683.899Z" fill="url(#paint10_linear_74_2839)" fill-opacity="0.5"/>
<path d="M1282.12 683.899H1278.76V13.0002H1282.12V683.899Z" fill="url(#paint11_linear_74_2839)" fill-opacity="0.5"/>
<path d="M1305.98 683.899H1302.63V13.0002H1305.98V683.899Z" fill="url(#paint12_linear_74_2839)" fill-opacity="0.5"/>
<path d="M1329.85 683.899H1326.49V13.0002H1329.85V683.899Z" fill="url(#paint13_linear_74_2839)" fill-opacity="0.5"/>
<path d="M1353.68 683.899H1350.32V13.0002H1353.68V683.899Z" fill="url(#paint14_linear_74_2839)" fill-opacity="0.5"/>
<path d="M1377.54 683.899H1374.18V13.0002H1377.54V683.899Z" fill="url(#paint15_linear_74_2839)" fill-opacity="0.5"/>
<path d="M1401.4 683.899H1398.05V13.0002H1401.4V683.899Z" fill="url(#paint16_linear_74_2839)" fill-opacity="0.5"/>
<path d="M1425.27 683.899H1421.91V13.0002H1425.27V683.899Z" fill="url(#paint17_linear_74_2839)" fill-opacity="0.5"/>
<path d="M1449.13 683.899H1445.78V13.0002H1449.13V683.899Z" fill="url(#paint18_linear_74_2839)" fill-opacity="0.5"/>
<path d="M1473 683.899H1469.64V13.0002H1473V683.899Z" fill="url(#paint19_linear_74_2839)" fill-opacity="0.5"/>
<path d="M1496.83 683.899H1493.47V13.0002H1496.83V683.899Z" fill="url(#paint20_linear_74_2839)" fill-opacity="0.5"/>
<path d="M1518.92 683.899H1515.57V13.0002H1518.92V683.899Z" fill="url(#paint21_linear_74_2839)" fill-opacity="0.5"/>
<path d="M1542.79 683.899H1539.43V13.0002H1542.79V683.899Z" fill="url(#paint22_linear_74_2839)" fill-opacity="0.5"/>
<path d="M1566.65 683.899H1563.29V13.0002H1566.65V683.899Z" fill="url(#paint23_linear_74_2839)" fill-opacity="0.5"/>
</g>
<path d="M619.782 307.5C593.629 288.3 476.908 315.5 421.816 331.5H420V683.589C420 683.589 441.794 684 456.324 684H1549.68H1586V204C1562.39 209.5 1510.45 218.4 1491.56 210C1467.95 199.5 1371.69 253.5 1360.79 300C1349.89 346.5 1291.78 394.5 1268.17 387C1244.55 379.5 1126.5 274.5 1057.49 300C988.47 325.5 823.196 345 805.034 331.5C786.872 318 652.474 331.5 619.782 307.5Z" fill="url(#paint24_linear_74_2839)" fill-opacity="0.5" stroke="#CECECE"/>
<g filter="url(#filter0_d_74_2839)">
<rect x="1177" y="215" width="199" height="120" rx="16" fill="white"/>
<path d="M1239.78 255H1233.97V243.797H1235.28V253.812H1239.78V255ZM1244.67 255.188C1243.49 255.188 1242.54 254.815 1241.84 254.07C1241.13 253.32 1240.78 252.328 1240.78 251.094C1240.78 249.75 1241.15 248.701 1241.88 247.945C1242.62 247.19 1243.61 246.812 1244.86 246.812C1246.05 246.812 1246.98 247.18 1247.65 247.914C1248.32 248.648 1248.66 249.667 1248.66 250.969C1248.66 252.245 1248.29 253.268 1247.57 254.039C1246.85 254.805 1245.89 255.188 1244.67 255.188ZM1244.77 247.891C1243.94 247.891 1243.29 248.172 1242.81 248.734C1242.33 249.292 1242.09 250.062 1242.09 251.047C1242.09 251.995 1242.34 252.742 1242.82 253.289C1243.3 253.836 1243.95 254.109 1244.77 254.109C1245.59 254.109 1246.23 253.841 1246.67 253.305C1247.12 252.768 1247.34 252.005 1247.34 251.016C1247.34 250.016 1247.12 249.245 1246.67 248.703C1246.23 248.161 1245.59 247.891 1244.77 247.891ZM1260.78 247L1258.38 255H1257.05L1255.41 249.273C1255.34 249.055 1255.3 248.807 1255.28 248.531H1255.25C1255.23 248.719 1255.18 248.961 1255.09 249.258L1253.3 255H1252.02L1249.59 247H1250.94L1252.59 253.016C1252.65 253.198 1252.68 253.438 1252.7 253.734H1252.77C1252.78 253.505 1252.83 253.26 1252.91 253L1254.75 247H1255.92L1257.58 253.031C1257.63 253.224 1257.67 253.464 1257.7 253.75H1257.76C1257.77 253.547 1257.81 253.307 1257.89 253.031L1259.52 247H1260.78ZM1268.7 251.32H1263.05C1263.07 252.211 1263.31 252.898 1263.77 253.383C1264.22 253.867 1264.85 254.109 1265.66 254.109C1266.56 254.109 1267.39 253.812 1268.14 253.219V254.422C1267.44 254.932 1266.51 255.188 1265.35 255.188C1264.22 255.188 1263.33 254.826 1262.69 254.102C1262.04 253.372 1261.72 252.349 1261.72 251.031C1261.72 249.786 1262.07 248.773 1262.77 247.992C1263.48 247.206 1264.36 246.812 1265.41 246.812C1266.45 246.812 1267.26 247.151 1267.84 247.828C1268.41 248.505 1268.7 249.445 1268.7 250.648V251.32ZM1267.38 250.234C1267.38 249.495 1267.2 248.919 1266.84 248.508C1266.49 248.096 1266.01 247.891 1265.38 247.891C1264.78 247.891 1264.27 248.107 1263.84 248.539C1263.42 248.971 1263.16 249.536 1263.06 250.234H1267.38ZM1270.16 254.711V253.336C1270.85 253.852 1271.62 254.109 1272.46 254.109C1273.59 254.109 1274.15 253.734 1274.15 252.984C1274.15 252.771 1274.1 252.591 1274 252.445C1273.91 252.294 1273.78 252.161 1273.61 252.047C1273.45 251.932 1273.26 251.831 1273.03 251.742C1272.81 251.648 1272.58 251.552 1272.32 251.453C1271.97 251.312 1271.65 251.172 1271.38 251.031C1271.12 250.885 1270.89 250.724 1270.71 250.547C1270.53 250.365 1270.4 250.159 1270.3 249.93C1270.22 249.701 1270.17 249.432 1270.17 249.125C1270.17 248.75 1270.26 248.419 1270.43 248.133C1270.6 247.841 1270.83 247.599 1271.12 247.406C1271.4 247.208 1271.73 247.06 1272.09 246.961C1272.46 246.862 1272.84 246.812 1273.23 246.812C1273.93 246.812 1274.55 246.932 1275.09 247.172V248.469C1274.51 248.083 1273.83 247.891 1273.06 247.891C1272.82 247.891 1272.61 247.919 1272.41 247.977C1272.22 248.029 1272.05 248.104 1271.91 248.203C1271.78 248.302 1271.67 248.422 1271.59 248.562C1271.52 248.698 1271.48 248.849 1271.48 249.016C1271.48 249.224 1271.52 249.398 1271.59 249.539C1271.67 249.68 1271.78 249.805 1271.93 249.914C1272.08 250.023 1272.25 250.122 1272.46 250.211C1272.67 250.299 1272.91 250.396 1273.17 250.5C1273.53 250.635 1273.84 250.776 1274.12 250.922C1274.41 251.062 1274.65 251.224 1274.84 251.406C1275.04 251.583 1275.19 251.789 1275.3 252.023C1275.41 252.258 1275.46 252.536 1275.46 252.859C1275.46 253.255 1275.37 253.599 1275.2 253.891C1275.02 254.182 1274.79 254.424 1274.5 254.617C1274.21 254.81 1273.87 254.953 1273.49 255.047C1273.11 255.141 1272.71 255.188 1272.3 255.188C1271.47 255.188 1270.76 255.029 1270.16 254.711ZM1281.15 254.922C1280.85 255.089 1280.45 255.172 1279.95 255.172C1278.55 255.172 1277.85 254.391 1277.85 252.828V248.094H1276.48V247H1277.85V245.047L1279.13 244.633V247H1281.15V248.094H1279.13V252.602C1279.13 253.138 1279.22 253.521 1279.41 253.75C1279.59 253.979 1279.89 254.094 1280.31 254.094C1280.64 254.094 1280.91 254.005 1281.15 253.828V254.922ZM1288.73 250.766V255H1287.42V243.797H1290.5C1291.7 243.797 1292.62 244.089 1293.28 244.672C1293.94 245.255 1294.27 246.078 1294.27 247.141C1294.27 248.203 1293.91 249.073 1293.17 249.75C1292.44 250.427 1291.46 250.766 1290.21 250.766H1288.73ZM1288.73 244.984V249.578H1290.11C1291.02 249.578 1291.71 249.372 1292.18 248.961C1292.66 248.544 1292.9 247.958 1292.9 247.203C1292.9 245.724 1292.02 244.984 1290.27 244.984H1288.73ZM1300.39 248.297C1300.17 248.125 1299.84 248.039 1299.42 248.039C1298.88 248.039 1298.42 248.297 1298.05 248.812C1297.68 249.328 1297.5 250.031 1297.5 250.922V255H1296.22V247H1297.5V248.648H1297.53C1297.71 248.086 1297.99 247.648 1298.37 247.336C1298.74 247.018 1299.16 246.859 1299.62 246.859C1299.96 246.859 1300.21 246.896 1300.39 246.969V248.297ZM1302.44 244.969C1302.21 244.969 1302.01 244.891 1301.85 244.734C1301.69 244.578 1301.61 244.38 1301.61 244.141C1301.61 243.901 1301.69 243.703 1301.85 243.547C1302.01 243.385 1302.21 243.305 1302.44 243.305C1302.67 243.305 1302.87 243.385 1303.03 243.547C1303.2 243.703 1303.28 243.901 1303.28 244.141C1303.28 244.37 1303.2 244.565 1303.03 244.727C1302.87 244.888 1302.67 244.969 1302.44 244.969ZM1303.06 255H1301.78V247H1303.06V255ZM1311.11 254.633C1310.49 255.003 1309.77 255.188 1308.92 255.188C1307.78 255.188 1306.86 254.818 1306.16 254.078C1305.46 253.333 1305.11 252.37 1305.11 251.188C1305.11 249.87 1305.49 248.812 1306.24 248.016C1307 247.214 1308.01 246.812 1309.27 246.812C1309.97 246.812 1310.59 246.943 1311.12 247.203V248.516C1310.53 248.099 1309.9 247.891 1309.22 247.891C1308.4 247.891 1307.73 248.185 1307.2 248.773C1306.68 249.357 1306.42 250.125 1306.42 251.078C1306.42 252.016 1306.67 252.755 1307.16 253.297C1307.65 253.839 1308.31 254.109 1309.14 254.109C1309.84 254.109 1310.49 253.878 1311.11 253.414V254.633ZM1319.48 251.32H1313.83C1313.85 252.211 1314.09 252.898 1314.55 253.383C1315.01 253.867 1315.64 254.109 1316.44 254.109C1317.34 254.109 1318.17 253.812 1318.92 253.219V254.422C1318.22 254.932 1317.29 255.188 1316.13 255.188C1315 255.188 1314.11 254.826 1313.47 254.102C1312.82 253.372 1312.5 252.349 1312.5 251.031C1312.5 249.786 1312.85 248.773 1313.55 247.992C1314.26 247.206 1315.14 246.812 1316.19 246.812C1317.23 246.812 1318.04 247.151 1318.62 247.828C1319.19 248.505 1319.48 249.445 1319.48 250.648V251.32ZM1318.16 250.234C1318.16 249.495 1317.98 248.919 1317.62 248.508C1317.28 248.096 1316.79 247.891 1316.16 247.891C1315.56 247.891 1315.05 248.107 1314.62 248.539C1314.2 248.971 1313.94 249.536 1313.84 250.234H1318.16Z" fill="#B81D1D"/>
<path d="M1243.16 301.844V306.082H1240.31V301.961C1237.67 301.948 1235.21 301.349 1232.93 300.164V294.754C1233.68 295.366 1234.81 295.932 1236.31 296.453C1237.81 296.974 1239.14 297.273 1240.31 297.352V290.242C1237.27 289.109 1235.18 287.885 1234.06 286.57C1232.96 285.242 1232.4 283.628 1232.4 281.727C1232.4 279.682 1233.12 277.944 1234.57 276.512C1236.02 275.066 1237.93 274.227 1240.31 273.992V270.359H1243.16V273.914C1245.91 274.044 1247.96 274.487 1249.32 275.242V280.516C1247.49 279.409 1245.44 278.732 1243.16 278.484V285.887C1246.02 286.915 1248.06 288.094 1249.3 289.422C1250.53 290.737 1251.15 292.332 1251.15 294.207C1251.15 296.368 1250.46 298.113 1249.08 299.441C1247.7 300.757 1245.73 301.557 1243.16 301.844ZM1240.31 284.754V278.562C1238.5 278.888 1237.6 279.832 1237.6 281.395C1237.6 282.736 1238.5 283.855 1240.31 284.754ZM1243.16 291.355V297.273C1245.03 296.987 1245.96 296.056 1245.96 294.48C1245.96 293.204 1245.03 292.163 1243.16 291.355ZM1261.39 296.883H1273.26V302H1254.63V299.891C1254.63 298.458 1254.87 297.176 1255.35 296.043C1255.83 294.897 1256.44 293.875 1257.17 292.977C1257.9 292.065 1258.69 291.264 1259.55 290.574C1260.42 289.871 1261.25 289.24 1262.03 288.68C1262.85 288.094 1263.57 287.534 1264.18 287C1264.8 286.466 1265.33 285.939 1265.74 285.418C1266.17 284.884 1266.49 284.35 1266.7 283.816C1266.91 283.27 1267.01 282.69 1267.01 282.078C1267.01 280.88 1266.67 279.975 1266 279.363C1265.32 278.751 1264.28 278.445 1262.89 278.445C1260.48 278.445 1258.18 279.402 1255.98 281.316V275.887C1258.41 274.311 1261.16 273.523 1264.22 273.523C1265.64 273.523 1266.91 273.712 1268.03 274.09C1269.16 274.454 1270.12 274.982 1270.9 275.672C1271.68 276.362 1272.27 277.202 1272.68 278.191C1273.09 279.168 1273.3 280.262 1273.3 281.473C1273.3 282.762 1273.1 283.908 1272.7 284.91C1272.3 285.913 1271.78 286.824 1271.11 287.645C1270.46 288.465 1269.71 289.22 1268.85 289.91C1267.99 290.587 1267.1 291.245 1266.17 291.883C1265.55 292.326 1264.94 292.768 1264.36 293.211C1263.78 293.641 1263.27 294.07 1262.83 294.5C1262.39 294.917 1262.04 295.327 1261.78 295.73C1261.52 296.134 1261.39 296.518 1261.39 296.883ZM1278.79 301.277V296.004C1280.7 297.176 1282.74 297.762 1284.9 297.762C1286.53 297.762 1287.8 297.378 1288.71 296.609C1289.64 295.828 1290.1 294.773 1290.1 293.445C1290.1 290.672 1288.14 289.285 1284.22 289.285C1282.77 289.285 1281.11 289.396 1279.22 289.617L1280.27 273.992H1295.1V279.031H1284.98L1284.59 284.637C1285.59 284.559 1286.46 284.52 1287.19 284.52C1290.07 284.52 1292.32 285.275 1293.95 286.785C1295.57 288.296 1296.39 290.327 1296.39 292.879C1296.39 295.704 1295.42 298.016 1293.48 299.812C1291.54 301.596 1288.91 302.488 1285.59 302.488C1282.89 302.488 1280.62 302.085 1278.79 301.277ZM1315.27 273.367V302H1309.12V280.32C1308.78 280.62 1308.38 280.906 1307.91 281.18C1307.45 281.44 1306.97 281.681 1306.45 281.902C1305.92 282.111 1305.38 282.293 1304.82 282.449C1304.26 282.592 1303.71 282.697 1303.16 282.762V277.566C1304.77 277.098 1306.28 276.499 1307.7 275.77C1309.11 275.04 1310.4 274.24 1311.54 273.367H1315.27Z" fill="#B81D1D"/>
</g>
<g filter="url(#filter1_d_74_2839)">
<circle cx="1276.5" cy="385" r="10" fill="#D9D9D9"/>
<circle cx="1276.5" cy="385" r="12" stroke="#B81D1D" stroke-width="4"/>
</g>
<g filter="url(#filter2_d_74_2839)">
<rect x="1486" y="36" width="200" height="120" rx="16" fill="white"/>
<path d="M1549.39 76H1548.08V70.8906H1542.28V76H1540.97V64.7969H1542.28V69.7109H1548.08V64.7969H1549.39V76ZM1552.81 65.9688C1552.58 65.9688 1552.39 65.8906 1552.23 65.7344C1552.07 65.5781 1551.98 65.3802 1551.98 65.1406C1551.98 64.901 1552.07 64.7031 1552.23 64.5469C1552.39 64.3854 1552.58 64.3047 1552.81 64.3047C1553.05 64.3047 1553.24 64.3854 1553.41 64.5469C1553.57 64.7031 1553.66 64.901 1553.66 65.1406C1553.66 65.3698 1553.57 65.5651 1553.41 65.7266C1553.24 65.888 1553.05 65.9688 1552.81 65.9688ZM1553.44 76H1552.16V68H1553.44V76ZM1562.86 75.3594C1562.86 78.2969 1561.45 79.7656 1558.64 79.7656C1557.65 79.7656 1556.79 79.5781 1556.05 79.2031V77.9219C1556.95 78.4219 1557.81 78.6719 1558.62 78.6719C1560.59 78.6719 1561.58 77.625 1561.58 75.5312V74.6562H1561.55C1560.94 75.6771 1560.02 76.1875 1558.8 76.1875C1557.8 76.1875 1557 75.8333 1556.39 75.125C1555.79 74.4115 1555.48 73.4557 1555.48 72.2578C1555.48 70.8984 1555.81 69.8177 1556.46 69.0156C1557.12 68.2135 1558.01 67.8125 1559.15 67.8125C1560.23 67.8125 1561.03 68.2448 1561.55 69.1094H1561.58V68H1562.86V75.3594ZM1561.58 72.3828V71.2031C1561.58 70.5677 1561.36 70.0234 1560.93 69.5703C1560.5 69.1172 1559.97 68.8906 1559.33 68.8906C1558.54 68.8906 1557.92 69.1797 1557.47 69.7578C1557.02 70.3307 1556.8 71.1354 1556.8 72.1719C1556.8 73.0625 1557.01 73.776 1557.44 74.3125C1557.87 74.8438 1558.44 75.1094 1559.15 75.1094C1559.87 75.1094 1560.45 74.8542 1560.9 74.3438C1561.35 73.8333 1561.58 73.1797 1561.58 72.3828ZM1572.09 76H1570.81V71.3906C1570.81 69.724 1570.19 68.8906 1568.95 68.8906C1568.33 68.8906 1567.8 69.1328 1567.38 69.6172C1566.95 70.0964 1566.73 70.7135 1566.73 71.4688V76H1565.45V64.1562H1566.73V69.3281H1566.77C1567.38 68.3177 1568.26 67.8125 1569.39 67.8125C1571.19 67.8125 1572.09 68.8984 1572.09 71.0703V76ZM1580.95 72.3203H1575.3C1575.32 73.2109 1575.56 73.8984 1576.02 74.3828C1576.47 74.8672 1577.1 75.1094 1577.91 75.1094C1578.81 75.1094 1579.64 74.8125 1580.39 74.2188V75.4219C1579.69 75.9323 1578.76 76.1875 1577.6 76.1875C1576.47 76.1875 1575.58 75.8255 1574.94 75.1016C1574.29 74.3724 1573.97 73.349 1573.97 72.0312C1573.97 70.7865 1574.32 69.7734 1575.02 68.9922C1575.73 68.2057 1576.61 67.8125 1577.66 67.8125C1578.7 67.8125 1579.51 68.151 1580.09 68.8281C1580.66 69.5052 1580.95 70.4453 1580.95 71.6484V72.3203ZM1579.63 71.2344C1579.63 70.4948 1579.45 69.9193 1579.09 69.5078C1578.74 69.0964 1578.26 68.8906 1577.63 68.8906C1577.03 68.8906 1576.52 69.1068 1576.09 69.5391C1575.67 69.9714 1575.41 70.5365 1575.31 71.2344H1579.63ZM1582.41 75.7109V74.3359C1583.1 74.8516 1583.87 75.1094 1584.71 75.1094C1585.84 75.1094 1586.4 74.7344 1586.4 73.9844C1586.4 73.7708 1586.35 73.5911 1586.25 73.4453C1586.16 73.2943 1586.03 73.1615 1585.86 73.0469C1585.7 72.9323 1585.51 72.8307 1585.28 72.7422C1585.06 72.6484 1584.83 72.5521 1584.57 72.4531C1584.22 72.3125 1583.9 72.1719 1583.63 72.0312C1583.37 71.8854 1583.14 71.724 1582.96 71.5469C1582.78 71.3646 1582.65 71.1589 1582.55 70.9297C1582.47 70.7005 1582.42 70.4323 1582.42 70.125C1582.42 69.75 1582.51 69.4193 1582.68 69.1328C1582.85 68.8411 1583.08 68.599 1583.37 68.4062C1583.65 68.2083 1583.98 68.0599 1584.34 67.9609C1584.71 67.862 1585.09 67.8125 1585.48 67.8125C1586.18 67.8125 1586.8 67.9323 1587.34 68.1719V69.4688C1586.76 69.0833 1586.08 68.8906 1585.31 68.8906C1585.07 68.8906 1584.86 68.9193 1584.66 68.9766C1584.47 69.0286 1584.3 69.1042 1584.16 69.2031C1584.03 69.3021 1583.92 69.4219 1583.84 69.5625C1583.77 69.6979 1583.73 69.849 1583.73 70.0156C1583.73 70.224 1583.77 70.3984 1583.84 70.5391C1583.92 70.6797 1584.03 70.8047 1584.18 70.9141C1584.33 71.0234 1584.5 71.1224 1584.71 71.2109C1584.92 71.2995 1585.16 71.3958 1585.42 71.5C1585.78 71.6354 1586.09 71.776 1586.38 71.9219C1586.66 72.0625 1586.9 72.224 1587.09 72.4062C1587.29 72.5833 1587.44 72.7891 1587.55 73.0234C1587.66 73.2578 1587.71 73.5365 1587.71 73.8594C1587.71 74.2552 1587.62 74.599 1587.45 74.8906C1587.27 75.1823 1587.04 75.4245 1586.75 75.6172C1586.46 75.8099 1586.12 75.9531 1585.74 76.0469C1585.36 76.1406 1584.96 76.1875 1584.55 76.1875C1583.72 76.1875 1583.01 76.0286 1582.41 75.7109ZM1593.4 75.9219C1593.1 76.0885 1592.7 76.1719 1592.2 76.1719C1590.8 76.1719 1590.1 75.3906 1590.1 73.8281V69.0938H1588.73V68H1590.1V66.0469L1591.38 65.6328V68H1593.4V69.0938H1591.38V73.6016C1591.38 74.138 1591.47 74.5208 1591.66 74.75C1591.84 74.9792 1592.14 75.0938 1592.56 75.0938C1592.89 75.0938 1593.16 75.0052 1593.4 74.8281V75.9219ZM1600.98 71.7656V76H1599.67V64.7969H1602.75C1603.95 64.7969 1604.88 65.0885 1605.53 65.6719C1606.19 66.2552 1606.52 67.0781 1606.52 68.1406C1606.52 69.2031 1606.16 70.0729 1605.42 70.75C1604.69 71.4271 1603.71 71.7656 1602.46 71.7656H1600.98ZM1600.98 65.9844V70.5781H1602.36C1603.27 70.5781 1603.96 70.3724 1604.43 69.9609C1604.91 69.5443 1605.15 68.9583 1605.15 68.2031C1605.15 66.724 1604.27 65.9844 1602.52 65.9844H1600.98ZM1612.64 69.2969C1612.42 69.125 1612.09 69.0391 1611.67 69.0391C1611.12 69.0391 1610.67 69.2969 1610.3 69.8125C1609.93 70.3281 1609.75 71.0312 1609.75 71.9219V76H1608.47V68H1609.75V69.6484H1609.78C1609.96 69.0859 1610.24 68.6484 1610.62 68.3359C1610.99 68.0182 1611.41 67.8594 1611.88 67.8594C1612.21 67.8594 1612.46 67.8958 1612.64 67.9688V69.2969ZM1614.69 65.9688C1614.46 65.9688 1614.26 65.8906 1614.1 65.7344C1613.94 65.5781 1613.86 65.3802 1613.86 65.1406C1613.86 64.901 1613.94 64.7031 1614.1 64.5469C1614.26 64.3854 1614.46 64.3047 1614.69 64.3047C1614.92 64.3047 1615.12 64.3854 1615.28 64.5469C1615.45 64.7031 1615.53 64.901 1615.53 65.1406C1615.53 65.3698 1615.45 65.5651 1615.28 65.7266C1615.12 65.888 1614.92 65.9688 1614.69 65.9688ZM1615.31 76H1614.03V68H1615.31V76ZM1623.36 75.6328C1622.74 76.0026 1622.02 76.1875 1621.17 76.1875C1620.03 76.1875 1619.11 75.8177 1618.41 75.0781C1617.71 74.3333 1617.36 73.3698 1617.36 72.1875C1617.36 70.8698 1617.74 69.8125 1618.49 69.0156C1619.25 68.2135 1620.26 67.8125 1621.52 67.8125C1622.22 67.8125 1622.84 67.9427 1623.38 68.2031V69.5156C1622.78 69.099 1622.15 68.8906 1621.47 68.8906C1620.65 68.8906 1619.98 69.1849 1619.45 69.7734C1618.93 70.3568 1618.67 71.125 1618.67 72.0781C1618.67 73.0156 1618.92 73.7552 1619.41 74.2969C1619.9 74.8385 1620.56 75.1094 1621.39 75.1094C1622.09 75.1094 1622.74 74.8776 1623.36 74.4141V75.6328ZM1631.73 72.3203H1626.08C1626.1 73.2109 1626.34 73.8984 1626.8 74.3828C1627.26 74.8672 1627.89 75.1094 1628.69 75.1094C1629.59 75.1094 1630.42 74.8125 1631.17 74.2188V75.4219C1630.47 75.9323 1629.54 76.1875 1628.38 76.1875C1627.25 76.1875 1626.36 75.8255 1625.72 75.1016C1625.07 74.3724 1624.75 73.349 1624.75 72.0312C1624.75 70.7865 1625.1 69.7734 1625.8 68.9922C1626.51 68.2057 1627.39 67.8125 1628.44 67.8125C1629.48 67.8125 1630.29 68.151 1630.87 68.8281C1631.44 69.5052 1631.73 70.4453 1631.73 71.6484V72.3203ZM1630.41 71.2344C1630.41 70.4948 1630.23 69.9193 1629.88 69.5078C1629.53 69.0964 1629.04 68.8906 1628.41 68.8906C1627.81 68.8906 1627.3 69.1068 1626.88 69.5391C1626.45 69.9714 1626.19 70.5365 1626.09 71.2344H1630.41Z" fill="#1EA83E"/>
<path d="M1536.16 122.844V127.082H1533.31V122.961C1530.67 122.948 1528.21 122.349 1525.93 121.164V115.754C1526.68 116.366 1527.81 116.932 1529.31 117.453C1530.81 117.974 1532.14 118.273 1533.31 118.352V111.242C1530.27 110.109 1528.18 108.885 1527.06 107.57C1525.96 106.242 1525.4 104.628 1525.4 102.727C1525.4 100.682 1526.12 98.944 1527.57 97.5117C1529.02 96.0664 1530.93 95.2266 1533.31 94.9922V91.3594H1536.16V94.9141C1538.91 95.0443 1540.96 95.487 1542.32 96.2422V101.516C1540.49 100.409 1538.44 99.7318 1536.16 99.4844V106.887C1539.02 107.915 1541.06 109.094 1542.3 110.422C1543.53 111.737 1544.15 113.332 1544.15 115.207C1544.15 117.368 1543.46 119.113 1542.08 120.441C1540.7 121.757 1538.73 122.557 1536.16 122.844ZM1533.31 105.754V99.5625C1531.5 99.888 1530.6 100.832 1530.6 102.395C1530.6 103.736 1531.5 104.855 1533.31 105.754ZM1536.16 112.355V118.273C1538.03 117.987 1538.96 117.056 1538.96 115.48C1538.96 114.204 1538.03 113.163 1536.16 112.355ZM1562.26 94.3672V123H1556.11V101.32C1555.77 101.62 1555.36 101.906 1554.89 102.18C1554.44 102.44 1553.95 102.681 1553.43 102.902C1552.91 103.111 1552.37 103.293 1551.81 103.449C1551.25 103.592 1550.7 103.697 1550.15 103.762V98.5664C1551.75 98.0977 1553.26 97.4987 1554.68 96.7695C1556.1 96.0404 1557.38 95.2396 1558.53 94.3672H1562.26ZM1577.45 118.078L1574.58 127.961H1569.78L1571.77 118.078H1577.45ZM1588.25 117.883H1600.13V123H1581.5V120.891C1581.5 119.458 1581.74 118.176 1582.22 117.043C1582.7 115.897 1583.31 114.875 1584.04 113.977C1584.76 113.065 1585.56 112.264 1586.42 111.574C1587.29 110.871 1588.12 110.24 1588.9 109.68C1589.72 109.094 1590.43 108.534 1591.05 108C1591.67 107.466 1592.19 106.939 1592.61 106.418C1593.04 105.884 1593.36 105.35 1593.57 104.816C1593.77 104.27 1593.88 103.69 1593.88 103.078C1593.88 101.88 1593.54 100.975 1592.86 100.363C1592.19 99.7513 1591.15 99.4453 1589.76 99.4453C1587.35 99.4453 1585.04 100.402 1582.84 102.316V96.8867C1585.28 95.3112 1588.03 94.5234 1591.09 94.5234C1592.51 94.5234 1593.77 94.7122 1594.89 95.0898C1596.03 95.4544 1596.98 95.9818 1597.77 96.6719C1598.55 97.362 1599.14 98.2018 1599.54 99.1914C1599.96 100.168 1600.17 101.262 1600.17 102.473C1600.17 103.762 1599.97 104.908 1599.56 105.91C1599.17 106.913 1598.64 107.824 1597.98 108.645C1597.33 109.465 1596.57 110.22 1595.71 110.91C1594.86 111.587 1593.96 112.245 1593.04 112.883C1592.41 113.326 1591.81 113.768 1591.22 114.211C1590.65 114.641 1590.14 115.07 1589.7 115.5C1589.26 115.917 1588.9 116.327 1588.64 116.73C1588.38 117.134 1588.25 117.518 1588.25 117.883ZM1624.11 107.648C1624.11 110.135 1623.84 112.362 1623.29 114.328C1622.75 116.281 1621.95 117.935 1620.89 119.289C1619.85 120.643 1618.57 121.685 1617.06 122.414C1615.55 123.13 1613.84 123.488 1611.93 123.488C1609.63 123.488 1607.66 123.124 1606.01 122.395V117.316C1607.48 118.28 1609.25 118.762 1611.32 118.762C1613.44 118.762 1615.1 118.039 1616.3 116.594C1617.5 115.148 1618.1 113.059 1618.12 110.324L1618 110.285C1616.76 112.121 1614.88 113.039 1612.36 113.039C1611.21 113.039 1610.15 112.824 1609.17 112.395C1608.21 111.965 1607.37 111.372 1606.65 110.617C1605.95 109.849 1605.4 108.938 1604.99 107.883C1604.6 106.828 1604.41 105.669 1604.41 104.406C1604.41 102.935 1604.65 101.594 1605.13 100.383C1605.61 99.1719 1606.28 98.1302 1607.14 97.2578C1608.01 96.3854 1609.05 95.7148 1610.27 95.2461C1611.48 94.7643 1612.82 94.5234 1614.29 94.5234C1615.81 94.5234 1617.18 94.8229 1618.39 95.4219C1619.6 96.0078 1620.63 96.8607 1621.48 97.9805C1622.34 99.1003 1622.99 100.474 1623.43 102.102C1623.89 103.729 1624.11 105.578 1624.11 107.648ZM1617.88 104.367C1617.88 103.651 1617.79 102.98 1617.61 102.355C1617.43 101.717 1617.17 101.171 1616.85 100.715C1616.52 100.259 1616.12 99.901 1615.66 99.6406C1615.19 99.3672 1614.67 99.2305 1614.11 99.2305C1613.58 99.2305 1613.08 99.3477 1612.63 99.582C1612.19 99.8164 1611.8 100.142 1611.48 100.559C1611.15 100.962 1610.9 101.451 1610.71 102.023C1610.53 102.596 1610.44 103.215 1610.44 103.879C1610.44 104.608 1610.53 105.259 1610.71 105.832C1610.9 106.392 1611.15 106.867 1611.48 107.258C1611.82 107.648 1612.22 107.948 1612.69 108.156C1613.16 108.352 1613.68 108.449 1614.25 108.449C1614.8 108.449 1615.29 108.345 1615.73 108.137C1616.18 107.915 1616.55 107.622 1616.87 107.258C1617.19 106.893 1617.44 106.464 1617.61 105.969C1617.79 105.474 1617.88 104.94 1617.88 104.367ZM1627.45 115.461C1627.45 114.68 1627.56 113.931 1627.79 113.215C1628.02 112.486 1628.36 111.815 1628.82 111.203C1629.28 110.578 1629.84 110.025 1630.52 109.543C1631.21 109.048 1632.02 108.645 1632.94 108.332C1631.52 107.629 1630.42 106.73 1629.64 105.637C1628.86 104.53 1628.47 103.306 1628.47 101.965C1628.47 100.897 1628.69 99.9076 1629.13 98.9961C1629.59 98.0846 1630.21 97.2969 1631.01 96.6328C1631.8 95.9688 1632.75 95.4544 1633.84 95.0898C1634.95 94.7122 1636.15 94.5234 1637.45 94.5234C1638.78 94.5234 1640 94.7122 1641.11 95.0898C1642.21 95.4544 1643.16 95.9688 1643.96 96.6328C1644.76 97.2839 1645.39 98.0586 1645.83 98.957C1646.27 99.8555 1646.5 100.832 1646.5 101.887C1646.5 103.215 1646.08 104.426 1645.25 105.52C1644.41 106.6 1643.26 107.492 1641.79 108.195C1642.7 108.508 1643.5 108.911 1644.19 109.406C1644.88 109.888 1645.46 110.441 1645.93 111.066C1646.4 111.691 1646.75 112.375 1646.98 113.117C1647.22 113.846 1647.34 114.608 1647.34 115.402C1647.34 116.6 1647.1 117.694 1646.61 118.684C1646.13 119.66 1645.45 120.507 1644.56 121.223C1643.69 121.926 1642.64 122.473 1641.42 122.863C1640.21 123.254 1638.87 123.449 1637.39 123.449C1635.95 123.449 1634.61 123.26 1633.39 122.883C1632.18 122.492 1631.13 121.945 1630.25 121.242C1629.37 120.539 1628.69 119.699 1628.2 118.723C1627.7 117.733 1627.45 116.646 1627.45 115.461ZM1633.29 114.934C1633.29 115.572 1633.39 116.145 1633.59 116.652C1633.78 117.16 1634.06 117.59 1634.43 117.941C1634.79 118.293 1635.22 118.566 1635.71 118.762C1636.22 118.944 1636.79 119.035 1637.41 119.035C1638.01 119.035 1638.56 118.938 1639.05 118.742C1639.56 118.547 1640 118.273 1640.36 117.922C1640.73 117.57 1641.01 117.141 1641.22 116.633C1641.43 116.125 1641.54 115.559 1641.54 114.934C1641.54 114.374 1641.44 113.84 1641.24 113.332C1641.05 112.824 1640.77 112.388 1640.4 112.023C1640.04 111.646 1639.6 111.346 1639.09 111.125C1638.6 110.904 1638.04 110.793 1637.41 110.793C1636.83 110.793 1636.28 110.897 1635.77 111.105C1635.27 111.301 1634.83 111.587 1634.46 111.965C1634.1 112.329 1633.81 112.766 1633.61 113.273C1633.4 113.781 1633.29 114.335 1633.29 114.934ZM1634.15 102.531C1634.15 103.026 1634.24 103.495 1634.41 103.938C1634.59 104.367 1634.83 104.745 1635.13 105.07C1635.43 105.383 1635.78 105.63 1636.18 105.812C1636.6 105.995 1637.04 106.086 1637.49 106.086C1637.96 106.086 1638.4 105.995 1638.8 105.812C1639.2 105.63 1639.56 105.376 1639.86 105.051C1640.17 104.725 1640.41 104.348 1640.58 103.918C1640.76 103.488 1640.85 103.026 1640.85 102.531C1640.85 102.023 1640.77 101.555 1640.6 101.125C1640.43 100.682 1640.19 100.305 1639.88 99.9922C1639.58 99.6667 1639.22 99.4128 1638.8 99.2305C1638.4 99.0482 1637.96 98.957 1637.49 98.957C1637 98.957 1636.54 99.0547 1636.12 99.25C1635.72 99.4323 1635.37 99.6862 1635.07 100.012C1634.78 100.324 1634.56 100.702 1634.39 101.145C1634.23 101.574 1634.15 102.036 1634.15 102.531Z" fill="#1EA83E"/>
</g>
<g filter="url(#filter3_d_74_2839)">
<circle cx="1586" cy="206" r="10" fill="#D9D9D9"/>
<circle cx="1586" cy="206" r="12" stroke="#1EA83E" stroke-width="4"/>
</g>
<path d="M420 0L408.453 20H431.547L420 0ZM420 684H418V686H420V684ZM1586 684L1566 672.453V695.547L1586 684ZM418 18V684H422V18H418ZM420 686H1568V682H420V686Z" fill="#59AFFE"/>
<defs>
<filter id="filter0_d_74_2839" x="1137" y="179" width="279" height="200" filterUnits="userSpaceOnUse" color-interpolation-filters="sRGB">
<feFlood flood-opacity="0" result="BackgroundImageFix"/>
<feColorMatrix in="SourceAlpha" type="matrix" values="0 0 0 0 0 0 0 0 0 0 0 0 0 0 0 0 0 0 127 0" result="hardAlpha"/>
<feOffset dy="4"/>
<feGaussianBlur stdDeviation="20"/>
<feComposite in2="hardAlpha" operator="out"/>
<feColorMatrix type="matrix" values="0 0 0 0 0 0 0 0 0 0 0 0 0 0 0 0 0 0 0.25 0"/>
<feBlend mode="normal" in2="BackgroundImageFix" result="effect1_dropShadow_74_2839"/>
<feBlend mode="normal" in="SourceGraphic" in2="effect1_dropShadow_74_2839" result="shape"/>
</filter>
<filter id="filter1_d_74_2839" x="1234.5" y="343" width="84" height="84" filterUnits="userSpaceOnUse" color-interpolation-filters="sRGB">
<feFlood flood-opacity="0" result="BackgroundImageFix"/>
<feColorMatrix in="SourceAlpha" type="matrix" values="0 0 0 0 0 0 0 0 0 0 0 0 0 0 0 0 0 0 127 0" result="hardAlpha"/>
<feOffset/>
<feGaussianBlur stdDeviation="14"/>
<feComposite in2="hardAlpha" operator="out"/>
<feColorMatrix type="matrix" values="0 0 0 0 0 0 0 0 0 0 0 0 0 0 0 0 0 0 0.25 0"/>
<feBlend mode="normal" in2="BackgroundImageFix" result="effect1_dropShadow_74_2839"/>
<feBlend mode="normal" in="SourceGraphic" in2="effect1_dropShadow_74_2839" result="shape"/>
</filter>
<filter id="filter2_d_74_2839" x="1446" y="0" width="280" height="200" filterUnits="userSpaceOnUse" color-interpolation-filters="sRGB">
<feFlood flood-opacity="0" result="BackgroundImageFix"/>
<feColorMatrix in="SourceAlpha" type="matrix" values="0 0 0 0 0 0 0 0 0 0 0 0 0 0 0 0 0 0 127 0" result="hardAlpha"/>
<feOffset dy="4"/>
<feGaussianBlur stdDeviation="20"/>
<feComposite in2="hardAlpha" operator="out"/>
<feColorMatrix type="matrix" values="0 0 0 0 0 0 0 0 0 0 0 0 0 0 0 0 0 0 0.25 0"/>
<feBlend mode="normal" in2="BackgroundImageFix" result="effect1_dropShadow_74_2839"/>
<feBlend mode="normal" in="SourceGraphic" in2="effect1_dropShadow_74_2839" result="shape"/>
</filter>
<filter id="filter3_d_74_2839" x="1544" y="164" width="84" height="84" filterUnits="userSpaceOnUse" color-interpolation-filters="sRGB">
<feFlood flood-opacity="0" result="BackgroundImageFix"/>
<feColorMatrix in="SourceAlpha" type="matrix" values="0 0 0 0 0 0 0 0 0 0 0 0 0 0 0 0 0 0 127 0" result="hardAlpha"/>
<feOffset/>
<feGaussianBlur stdDeviation="14"/>
<feComposite in2="hardAlpha" operator="out"/>
<feColorMatrix type="matrix" values="0 0 0 0 0 0 0 0 0 0 0 0 0 0 0 0 0 0 0.25 0"/>
<feBlend mode="normal" in2="BackgroundImageFix" result="effect1_dropShadow_74_2839"/>
<feBlend mode="normal" in="SourceGraphic" in2="effect1_dropShadow_74_2839" result="shape"/>
</filter>
<linearGradient id="paint0_linear_74_2839" x1="0" y1="9" x2="388" y2="349" gradientUnits="userSpaceOnUse">
<stop stop-color="#4FB1F6"/>
<stop offset="1" stop-color="#FB18EE"/>
</linearGradient>
<linearGradient id="paint1_linear_74_2839" x1="130.4" y1="74.408" x2="209.592" y2="153.6" gradientUnits="userSpaceOnUse">
<stop stop-color="#22A1FE"/>
<stop offset="1" stop-color="#FB18EE"/>
</linearGradient>
<linearGradient id="paint2_linear_74_2839" x1="1003" y1="684" x2="1003" y2="13" gradientUnits="userSpaceOnUse">
<stop stop-color="#999999" stop-opacity="0.2"/>
<stop offset="0.513059" stop-color="#999999" stop-opacity="0"/>
</linearGradient>
<linearGradient id="paint3_linear_74_2839" x1="1003" y1="684" x2="1003" y2="13" gradientUnits="userSpaceOnUse">
<stop stop-color="#999999" stop-opacity="0.2"/>
<stop offset="0.513059" stop-color="#999999" stop-opacity="0"/>
</linearGradient>
<linearGradient id="paint4_linear_74_2839" x1="1003" y1="684" x2="1003" y2="13" gradientUnits="userSpaceOnUse">
<stop stop-color="#999999" stop-opacity="0.2"/>
<stop offset="0.513059" stop-color="#999999" stop-opacity="0"/>
</linearGradient>
<linearGradient id="paint5_linear_74_2839" x1="1003" y1="684" x2="1003" y2="13" gradientUnits="userSpaceOnUse">
<stop stop-color="#999999" stop-opacity="0.2"/>
<stop offset="0.513059" stop-color="#999999" stop-opacity="0"/>
</linearGradient>
<linearGradient id="paint6_linear_74_2839" x1="1003" y1="684" x2="1003" y2="13" gradientUnits="userSpaceOnUse">
<stop stop-color="#999999" stop-opacity="0.2"/>
<stop offset="0.513059" stop-color="#999999" stop-opacity="0"/>
</linearGradient>
<linearGradient id="paint7_linear_74_2839" x1="1003" y1="684" x2="1003" y2="13" gradientUnits="userSpaceOnUse">
<stop stop-color="#999999" stop-opacity="0.2"/>
<stop offset="0.513059" stop-color="#999999" stop-opacity="0"/>
</linearGradient>
<linearGradient id="paint8_linear_74_2839" x1="1003" y1="684" x2="1003" y2="13" gradientUnits="userSpaceOnUse">
<stop stop-color="#999999" stop-opacity="0.2"/>
<stop offset="0.513059" stop-color="#999999" stop-opacity="0"/>
</linearGradient>
<linearGradient id="paint9_linear_74_2839" x1="1003" y1="684" x2="1003" y2="13" gradientUnits="userSpaceOnUse">
<stop stop-color="#999999" stop-opacity="0.2"/>
<stop offset="0.513059" stop-color="#999999" stop-opacity="0"/>
</linearGradient>
<linearGradient id="paint10_linear_74_2839" x1="1003" y1="684" x2="1003" y2="13" gradientUnits="userSpaceOnUse">
<stop stop-color="#999999" stop-opacity="0.2"/>
<stop offset="0.513059" stop-color="#999999" stop-opacity="0"/>
</linearGradient>
<linearGradient id="paint11_linear_74_2839" x1="1003" y1="684" x2="1003" y2="13" gradientUnits="userSpaceOnUse">
<stop stop-color="#999999" stop-opacity="0.2"/>
<stop offset="0.513059" stop-color="#999999" stop-opacity="0"/>
</linearGradient>
<linearGradient id="paint12_linear_74_2839" x1="1003" y1="684" x2="1003" y2="13" gradientUnits="userSpaceOnUse">
<stop stop-color="#999999" stop-opacity="0.2"/>
<stop offset="0.513059" stop-color="#999999" stop-opacity="0"/>
</linearGradient>
<linearGradient id="paint13_linear_74_2839" x1="1003" y1="684" x2="1003" y2="13" gradientUnits="userSpaceOnUse">
<stop stop-color="#999999" stop-opacity="0.2"/>
<stop offset="0.513059" stop-color="#999999" stop-opacity="0"/>
</linearGradient>
<linearGradient id="paint14_linear_74_2839" x1="1003" y1="684" x2="1003" y2="13" gradientUnits="userSpaceOnUse">
<stop stop-color="#999999" stop-opacity="0.2"/>
<stop offset="0.513059" stop-color="#999999" stop-opacity="0"/>
</linearGradient>
<linearGradient id="paint15_linear_74_2839" x1="1003" y1="684" x2="1003" y2="13" gradientUnits="userSpaceOnUse">
<stop stop-color="#999999" stop-opacity="0.2"/>
<stop offset="0.513059" stop-color="#999999" stop-opacity="0"/>
</linearGradient>
<linearGradient id="paint16_linear_74_2839" x1="1003" y1="684" x2="1003" y2="13" gradientUnits="userSpaceOnUse">
<stop stop-color="#999999" stop-opacity="0.2"/>
<stop offset="0.513059" stop-color="#999999" stop-opacity="0"/>
</linearGradient>
<linearGradient id="paint17_linear_74_2839" x1="1003" y1="684" x2="1003" y2="13" gradientUnits="userSpaceOnUse">
<stop stop-color="#999999" stop-opacity="0.2"/>
<stop offset="0.513059" stop-color="#999999" stop-opacity="0"/>
</linearGradient>
<linearGradient id="paint18_linear_74_2839" x1="1003" y1="684" x2="1003" y2="13" gradientUnits="userSpaceOnUse">
<stop stop-color="#999999" stop-opacity="0.2"/>
<stop offset="0.513059" stop-color="#999999" stop-opacity="0"/>
</linearGradient>
<linearGradient id="paint19_linear_74_2839" x1="1003" y1="684" x2="1003" y2="13" gradientUnits="userSpaceOnUse">
<stop stop-color="#999999" stop-opacity="0.2"/>
<stop offset="0.513059" stop-color="#999999" stop-opacity="0"/>
</linearGradient>
<linearGradient id="paint20_linear_74_2839" x1="1003" y1="684" x2="1003" y2="13" gradientUnits="userSpaceOnUse">
<stop stop-color="#999999" stop-opacity="0.2"/>
<stop offset="0.513059" stop-color="#999999" stop-opacity="0"/>
</linearGradient>
<linearGradient id="paint21_linear_74_2839" x1="1003" y1="684" x2="1003" y2="13" gradientUnits="userSpaceOnUse">
<stop stop-color="#999999" stop-opacity="0.2"/>
<stop offset="0.513059" stop-color="#999999" stop-opacity="0"/>
</linearGradient>
<linearGradient id="paint22_linear_74_2839" x1="1003" y1="684" x2="1003" y2="13" gradientUnits="userSpaceOnUse">
<stop stop-color="#999999" stop-opacity="0.2"/>
<stop offset="0.513059" stop-color="#999999" stop-opacity="0"/>
</linearGradient>
<linearGradient id="paint23_linear_74_2839" x1="1003" y1="684" x2="1003" y2="13" gradientUnits="userSpaceOnUse">
<stop stop-color="#999999" stop-opacity="0.2"/>
<stop offset="0.513059" stop-color="#999999" stop-opacity="0"/>
</linearGradient>
<linearGradient id="paint24_linear_74_2839" x1="1003" y1="403.5" x2="1003" y2="684" gradientUnits="userSpaceOnUse">
<stop stop-color="#4FB1F6" stop-opacity="0.9"/>
<stop offset="1" stop-color="#4FB1F6" stop-opacity="0"/>
</linearGradient>
<clipPath id="clip0_74_2839">
<rect width="80" height="80" fill="white" transform="translate(130 74)"/>
</clipPath>
<clipPath id="clip1_74_2839">
<rect width="1166" height="647" fill="white" transform="translate(420 37)"/>
</clipPath>
</defs>
</svg>
