<svg width="44" height="44" viewBox="0 0 44 44" fill="none" xmlns="http://www.w3.org/2000/svg">
<rect width="44" height="44" rx="4" fill="#0C1219"/>
<path d="M23.734 31.816C26.3485 29.515 31 24.814 31 20.5C31 18.1131 30.0518 15.8239 28.364 14.136C26.6761 12.4482 24.3869 11.5 22 11.5C19.6131 11.5 17.3239 12.4482 15.636 14.136C13.9482 15.8239 13 18.1131 13 20.5C13 24.814 17.65 29.515 20.266 31.816C20.7432 32.2419 21.3604 32.4773 22 32.4773C22.6396 32.4773 23.2568 32.2419 23.734 31.816ZM19 20.5C19 19.7044 19.3161 18.9413 19.8787 18.3787C20.4413 17.8161 21.2044 17.5 22 17.5C22.7956 17.5 23.5587 17.8161 24.1213 18.3787C24.6839 18.9413 25 19.7044 25 20.5C25 21.2957 24.6839 22.0587 24.1213 22.6213C23.5587 23.1839 22.7956 23.5 22 23.5C21.2044 23.5 20.4413 23.1839 19.8787 22.6213C19.3161 22.0587 19 21.2957 19 20.5Z" fill="white"/>
</svg>
