<svg width="40" height="40" viewBox="0 0 40 40" fill="none" xmlns="http://www.w3.org/2000/svg">
<rect width="40" height="40" rx="4" fill="black" fill-opacity="0.3"/>
<path fill-rule="evenodd" clip-rule="evenodd" d="M9.01765 12.517C8.33398 13.2007 8.33398 14.2997 8.33398 16.5V23.5C8.33398 25.7003 8.33398 26.7993 9.01765 27.483C9.70132 28.1667 10.8003 28.1667 13.0007 28.1667H27.0007C29.201 28.1667 30.3 28.1667 30.9837 27.483C31.6673 26.7993 31.6673 25.7003 31.6673 23.5V16.5C31.6673 14.2997 31.6673 13.2007 30.9837 12.517C30.3 11.8333 29.201 11.8333 27.0007 11.8333H13.0007C10.8003 11.8333 9.70132 11.8333 9.01765 12.517ZM11.834 14.1667C11.5246 14.1667 11.2278 14.2896 11.009 14.5084C10.7902 14.7272 10.6673 15.0239 10.6673 15.3333C10.6673 15.6427 10.7902 15.9395 11.009 16.1583C11.2278 16.3771 11.5246 16.5 11.834 16.5H14.1673C14.4767 16.5 14.7735 16.3771 14.9923 16.1583C15.2111 15.9395 15.334 15.6427 15.334 15.3333C15.334 15.0239 15.2111 14.7272 14.9923 14.5084C14.7735 14.2896 14.4767 14.1667 14.1673 14.1667H11.834ZM24.6673 24.6667C24.6673 24.3572 24.7902 24.0605 25.009 23.8417C25.2278 23.6229 25.5246 23.5 25.834 23.5H28.1673C28.4767 23.5 28.7735 23.6229 28.9923 23.8417C29.2111 24.0605 29.334 24.3572 29.334 24.6667C29.334 24.9761 29.2111 25.2728 28.9923 25.4916C28.7735 25.7104 28.4767 25.8333 28.1673 25.8333H25.834C25.5246 25.8333 25.2278 25.7104 25.009 25.4916C24.7902 25.2728 24.6673 24.9761 24.6673 24.6667ZM21.1673 20C21.1673 20.3094 21.0444 20.6062 20.8256 20.825C20.6068 21.0437 20.3101 21.1667 20.0007 21.1667C19.6912 21.1667 19.3945 21.0437 19.1757 20.825C18.9569 20.6062 18.834 20.3094 18.834 20C18.834 19.6906 18.9569 19.3938 19.1757 19.175C19.3945 18.9562 19.6912 18.8333 20.0007 18.8333C20.3101 18.8333 20.6068 18.9562 20.8256 19.175C21.0444 19.3938 21.1673 19.6906 21.1673 20ZM23.5007 20C23.5007 20.9283 23.1319 21.8185 22.4755 22.4749C21.8191 23.1312 20.9289 23.5 20.0007 23.5C19.0724 23.5 18.1822 23.1312 17.5258 22.4749C16.8694 21.8185 16.5007 20.9283 16.5007 20C16.5007 19.0717 16.8694 18.1815 17.5258 17.5251C18.1822 16.8687 19.0724 16.5 20.0007 16.5C20.9289 16.5 21.8191 16.8687 22.4755 17.5251C23.1319 18.1815 23.5007 19.0717 23.5007 20Z" fill="#0C1219"/>
</svg>
