<svg width="56" height="56" viewBox="0 0 56 56" fill="none" xmlns="http://www.w3.org/2000/svg">
<path fill-rule="evenodd" clip-rule="evenodd" d="M34.6654 18C34.6654 21.6819 31.6806 24.6666 27.9987 24.6666C24.3168 24.6666 21.332 21.6819 21.332 18C21.332 14.3181 24.3168 11.3333 27.9987 11.3333C31.6806 11.3333 34.6654 14.3181 34.6654 18ZM28.0013 44.6667C41.3346 44.6667 41.3346 41.3084 41.3346 37.1667C41.3346 33.025 35.3646 29.6667 28.0013 29.6667C20.638 29.6667 14.668 33.025 14.668 37.1667C14.668 41.3084 14.668 44.6667 28.0013 44.6667Z" fill="white"/>
<g clip-path="url(#clip0_94_2526)">
<mask id="path-2-outside-1_94_2526" maskUnits="userSpaceOnUse" x="28.666" y="32.3333" width="19" height="16" fill="black">
<rect fill="white" x="28.666" y="32.3333" width="19" height="16"/>
<path fill-rule="evenodd" clip-rule="evenodd" d="M30.7266 42.7442C30.0195 41.825 29.666 41.3654 29.666 40C29.666 38.6358 30.0193 38.1761 30.7259 37.2567L30.7285 37.2533C32.1427 35.4167 34.5143 33.3333 37.9993 33.3333C41.4843 33.3333 43.856 35.4167 45.2702 37.2533L45.2721 37.2559C45.9792 38.175 46.3327 38.6346 46.3327 40C46.3327 41.3658 45.9785 41.8267 45.2702 42.7467C43.856 44.5833 41.4843 46.6667 37.9993 46.6667C34.5143 46.6667 32.1427 44.5833 30.7285 42.7467L30.7266 42.7442ZM35.7896 37.7903C36.3757 37.2043 37.1705 36.875 37.9993 36.875C38.8282 36.875 39.623 37.2043 40.2091 37.7903C40.7951 38.3764 41.1243 39.1712 41.1243 40C41.1243 40.8288 40.7951 41.6237 40.2091 42.2097C39.623 42.7958 38.8282 43.125 37.9993 43.125C37.1705 43.125 36.3757 42.7958 35.7896 42.2097C35.2036 41.6237 34.8743 40.8288 34.8743 40C34.8743 39.1712 35.2036 38.3764 35.7896 37.7903ZM36.6742 38.6742C36.3225 39.0258 36.125 39.5027 36.125 40C36.125 40.4973 36.3225 40.9742 36.6742 41.3258C37.0258 41.6775 37.5027 41.875 38 41.875C38.4973 41.875 38.9742 41.6775 39.3258 41.3258C39.6775 40.9742 39.875 40.4973 39.875 40C39.875 39.5027 39.6775 39.0258 39.3258 38.6742C38.9742 38.3225 38.4973 38.125 38 38.125C37.5027 38.125 37.0258 38.3225 36.6742 38.6742Z"/>
</mask>
<path fill-rule="evenodd" clip-rule="evenodd" d="M30.7266 42.7442C30.0195 41.825 29.666 41.3654 29.666 40C29.666 38.6358 30.0193 38.1761 30.7259 37.2567L30.7285 37.2533C32.1427 35.4167 34.5143 33.3333 37.9993 33.3333C41.4843 33.3333 43.856 35.4167 45.2702 37.2533L45.2721 37.2559C45.9792 38.175 46.3327 38.6346 46.3327 40C46.3327 41.3658 45.9785 41.8267 45.2702 42.7467C43.856 44.5833 41.4843 46.6667 37.9993 46.6667C34.5143 46.6667 32.1427 44.5833 30.7285 42.7467L30.7266 42.7442ZM35.7896 37.7903C36.3757 37.2043 37.1705 36.875 37.9993 36.875C38.8282 36.875 39.623 37.2043 40.2091 37.7903C40.7951 38.3764 41.1243 39.1712 41.1243 40C41.1243 40.8288 40.7951 41.6237 40.2091 42.2097C39.623 42.7958 38.8282 43.125 37.9993 43.125C37.1705 43.125 36.3757 42.7958 35.7896 42.2097C35.2036 41.6237 34.8743 40.8288 34.8743 40C34.8743 39.1712 35.2036 38.3764 35.7896 37.7903ZM36.6742 38.6742C36.3225 39.0258 36.125 39.5027 36.125 40C36.125 40.4973 36.3225 40.9742 36.6742 41.3258C37.0258 41.6775 37.5027 41.875 38 41.875C38.4973 41.875 38.9742 41.6775 39.3258 41.3258C39.6775 40.9742 39.875 40.4973 39.875 40C39.875 39.5027 39.6775 39.0258 39.3258 38.6742C38.9742 38.3225 38.4973 38.125 38 38.125C37.5027 38.125 37.0258 38.3225 36.6742 38.6742Z" fill="white"/>
<path d="M30.7266 42.7442L29.934 43.3539L29.934 43.3539L30.7266 42.7442ZM30.7259 37.2567L29.9331 36.6473L29.933 36.6473L30.7259 37.2567ZM30.7285 37.2533L29.9362 36.6433L29.9356 36.644L30.7285 37.2533ZM45.2702 37.2533L46.0627 36.6435L46.0625 36.6433L45.2702 37.2533ZM45.2721 37.2559L46.0647 36.6462L46.0647 36.646L45.2721 37.2559ZM45.2702 42.7467L46.0625 43.3568L46.0625 43.3567L45.2702 42.7467ZM30.7285 42.7467L29.9359 43.3564L29.9362 43.3568L30.7285 42.7467ZM35.7896 37.7903L35.0825 37.0832L35.7896 37.7903ZM40.2091 37.7903L40.9162 37.0832V37.0832L40.2091 37.7903ZM40.2091 42.2097L40.9162 42.9168L40.9162 42.9168L40.2091 42.2097ZM35.7896 42.2097L35.0825 42.9168L35.0825 42.9168L35.7896 42.2097ZM39.3258 41.3258L38.6187 40.6187L38.6187 40.6187L39.3258 41.3258ZM39.3258 38.6742L38.6187 39.3813L38.6187 39.3813L39.3258 38.6742ZM28.666 40C28.666 40.7741 28.7669 41.3782 29.0163 41.9432C29.251 42.475 29.5986 42.9179 29.934 43.3539L31.5192 42.1344C31.1475 41.6513 30.9648 41.4048 30.846 41.1356C30.7419 40.8998 30.666 40.5914 30.666 40H28.666ZM29.933 36.6473C29.5978 37.0835 29.2506 37.5264 29.0161 38.0579C28.7669 38.6228 28.666 39.2265 28.666 40H30.666C30.666 39.4093 30.7418 39.1011 30.8459 38.8652C30.9647 38.5961 31.1474 38.3494 31.5188 37.8661L29.933 36.6473ZM29.9356 36.644L29.9331 36.6473L31.5188 37.8661L31.5214 37.8627L29.9356 36.644ZM37.9993 32.3333C34.0713 32.3333 31.4404 34.6896 29.9362 36.6433L31.5209 37.8634C32.8449 36.1438 34.9574 34.3333 37.9993 34.3333V32.3333ZM46.0625 36.6433C44.5583 34.6896 41.9274 32.3333 37.9993 32.3333V34.3333C41.0413 34.3333 43.1538 36.1438 44.4778 37.8634L46.0625 36.6433ZM46.0647 36.646L46.0627 36.6435L44.4776 37.8632L44.4796 37.8657L46.0647 36.646ZM47.3327 40C47.3327 39.226 47.2318 38.6219 46.9824 38.0568C46.7477 37.525 46.4001 37.0822 46.0647 36.6462L44.4795 37.8656C44.8512 38.3487 45.0339 38.5953 45.1527 38.8644C45.2568 39.1002 45.3327 39.4087 45.3327 40H47.3327ZM46.0625 43.3567C46.3987 42.9201 46.7467 42.4768 46.9818 41.9446C47.2316 41.379 47.3327 40.7745 47.3327 40H45.3327C45.3327 40.5914 45.2567 40.9002 45.1523 41.1365C45.0332 41.4061 44.85 41.6532 44.4778 42.1366L46.0625 43.3567ZM37.9993 47.6667C41.9274 47.6667 44.5583 45.3104 46.0625 43.3568L44.4778 42.1366C43.1538 43.8563 41.0413 45.6667 37.9993 45.6667V47.6667ZM29.9362 43.3568C31.4404 45.3104 34.0713 47.6667 37.9993 47.6667V45.6667C34.9574 45.6667 32.8449 43.8563 31.5209 42.1366L29.9362 43.3568ZM29.934 43.3539L29.9359 43.3564L31.5211 42.1369L31.5192 42.1344L29.934 43.3539ZM37.9993 35.875C36.9053 35.875 35.8561 36.3096 35.0825 37.0832L36.4967 38.4974C36.8953 38.0989 37.4358 37.875 37.9993 37.875V35.875ZM40.9162 37.0832C40.1426 36.3096 39.0934 35.875 37.9993 35.875V37.875C38.5629 37.875 39.1034 38.0989 39.502 38.4974L40.9162 37.0832ZM42.1243 40C42.1243 38.906 41.6898 37.8568 40.9162 37.0832L39.502 38.4974C39.9005 38.8959 40.1243 39.4364 40.1243 40H42.1243ZM40.9162 42.9168C41.6898 42.1432 42.1243 41.094 42.1243 40H40.1243C40.1243 40.5636 39.9005 41.1041 39.502 41.5026L40.9162 42.9168ZM37.9993 44.125C39.0934 44.125 40.1426 43.6904 40.9162 42.9168L39.502 41.5026C39.1034 41.9011 38.5629 42.125 37.9993 42.125V44.125ZM35.0825 42.9168C35.8561 43.6904 36.9053 44.125 37.9993 44.125V42.125C37.4358 42.125 36.8953 41.9011 36.4967 41.5026L35.0825 42.9168ZM33.8743 40C33.8743 41.094 34.3089 42.1432 35.0825 42.9168L36.4967 41.5026C36.0982 41.1041 35.8743 40.5636 35.8743 40H33.8743ZM35.0825 37.0832C34.3089 37.8568 33.8743 38.906 33.8743 40H35.8743C35.8743 39.4364 36.0982 38.8959 36.4967 38.4974L35.0825 37.0832ZM37.125 40C37.125 39.7679 37.2172 39.5454 37.3813 39.3813L35.9671 37.9671C35.4279 38.5062 35.125 39.2375 35.125 40H37.125ZM37.3813 40.6187C37.2172 40.4546 37.125 40.2321 37.125 40H35.125C35.125 40.7625 35.4279 41.4938 35.9671 42.0329L37.3813 40.6187ZM38 40.875C37.7679 40.875 37.5454 40.7828 37.3813 40.6187L35.9671 42.0329C36.5062 42.5721 37.2375 42.875 38 42.875V40.875ZM38.6187 40.6187C38.4546 40.7828 38.2321 40.875 38 40.875V42.875C38.7625 42.875 39.4938 42.5721 40.0329 42.0329L38.6187 40.6187ZM38.875 40C38.875 40.2321 38.7828 40.4546 38.6187 40.6187L40.0329 42.0329C40.5721 41.4938 40.875 40.7625 40.875 40H38.875ZM38.6187 39.3813C38.7828 39.5454 38.875 39.7679 38.875 40H40.875C40.875 39.2375 40.5721 38.5062 40.0329 37.9671L38.6187 39.3813ZM38 39.125C38.2321 39.125 38.4546 39.2172 38.6187 39.3813L40.0329 37.9671C39.4938 37.4279 38.7625 37.125 38 37.125V39.125ZM37.3813 39.3813C37.5454 39.2172 37.7679 39.125 38 39.125V37.125C37.2375 37.125 36.5062 37.4279 35.9671 37.9671L37.3813 39.3813Z" fill="#0B131A" mask="url(#path-2-outside-1_94_2526)"/>
</g>
<defs>
<clipPath id="clip0_94_2526">
<rect width="20" height="16" fill="white" transform="translate(28 32)"/>
</clipPath>
</defs>
</svg>
