<svg width="68" height="68" viewBox="0 0 68 68" fill="none" xmlns="http://www.w3.org/2000/svg">
<rect width="68" height="68" rx="4" fill="black" fill-opacity="0.3"/>
<path d="M35.9993 25.7833L31.0826 32.3333L34.8326 37.3333C35.3826 38.0667 35.2326 39.1167 34.4993 39.6667C34.3247 39.7993 34.1255 39.8959 33.9133 39.951C33.7011 40.006 33.4801 40.0184 33.263 39.9874C33.046 39.9564 32.8373 39.8826 32.6489 39.7703C32.4606 39.6581 32.2965 39.5095 32.166 39.3333C30.416 37 28.316 34.2167 26.9993 32.4333C26.3326 31.55 24.9993 31.55 24.3326 32.4333L17.666 41.3167C16.8493 42.4333 17.6326 44 18.9993 44H48.9993C50.366 44 51.1493 42.4333 50.3326 41.3333L38.666 25.7833C38.5122 25.5742 38.3114 25.4042 38.0798 25.287C37.8482 25.1698 37.5922 25.1088 37.3326 25.1088C37.0731 25.1088 36.8171 25.1698 36.5855 25.287C36.3539 25.4042 36.1531 25.5742 35.9993 25.7833Z" fill="#000600"/>
</svg>
