<svg width="40" height="40" viewBox="0 0 40 40" fill="none" xmlns="http://www.w3.org/2000/svg">
<rect width="40" height="40" rx="4" fill="black" fill-opacity="0.3"/>
<path d="M20 9.5C18.124 9.5 16.6015 11.005 16.5262 12.8635C14.9576 13.5338 13.621 14.6508 12.6827 16.0754C11.7445 17.5 11.2462 19.1692 11.25 20.875C11.25 21.0238 11.243 21.19 11.25 21.3676C10.2131 21.9766 9.5 23.0931 9.5 24.375C9.5 26.2974 11.0776 27.875 13 27.875C13.5031 27.875 13.9887 27.7682 14.4219 27.574C15.9383 28.848 17.9158 29.625 20 29.625C22.0842 29.625 24.0618 28.848 25.5781 27.574C26.0256 27.7732 26.5101 27.8758 27 27.875C28.9224 27.875 30.5 26.2974 30.5 24.375C30.5 23.08 29.7781 21.9451 28.7237 21.3388C28.7369 21.1988 28.75 21.0588 28.75 20.875C28.754 19.1691 28.2558 17.4999 27.3176 16.0752C26.3793 14.6506 25.0425 13.5336 23.4737 12.8635C23.3976 11.005 21.8751 9.5 20 9.5ZM20 11.25C20.9765 11.25 21.75 12.0235 21.75 13C21.75 13.9765 20.9765 14.75 20 14.75C19.0235 14.75 18.25 13.9765 18.25 13C18.25 12.0235 19.0235 11.25 20 11.25ZM16.9113 14.6135C17.4975 15.7283 18.6613 16.5 20 16.5C21.3387 16.5 22.5025 15.7283 23.0888 14.6135C24.2634 15.1839 25.2535 16.074 25.9453 17.1815C26.6371 18.289 27.0027 19.5692 27 20.875C25.0776 20.875 23.5 22.4526 23.5 24.375C23.5 25.1581 23.7712 25.8678 24.2114 26.4531C22.997 27.3675 21.5201 27.8661 20 27.875C18.4798 27.8663 17.003 27.3677 15.7886 26.4531C16.2466 25.8568 16.4964 25.1269 16.5 24.375C16.5 22.4526 14.9224 20.875 13 20.875C13 18.145 14.5663 15.751 16.9113 14.6135ZM13 22.625C13.9765 22.625 14.75 23.3985 14.75 24.375C14.75 25.3515 13.9765 26.125 13 26.125C12.0235 26.125 11.25 25.3515 11.25 24.375C11.25 23.3985 12.0235 22.625 13 22.625ZM27 22.625C27.9765 22.625 28.75 23.3985 28.75 24.375C28.75 25.3515 27.9765 26.125 27 26.125C26.0235 26.125 25.25 25.3515 25.25 24.375C25.25 23.3985 26.0235 22.625 27 22.625Z" fill="#0C1219"/>
</svg>
