<svg width="967" height="403" viewBox="0 0 967 403" fill="none" xmlns="http://www.w3.org/2000/svg">
<mask id="path-1-outside-1_83_218" maskUnits="userSpaceOnUse" x="39" y="14" width="897" height="362" fill="black">
<rect fill="white" x="39" y="14" width="897" height="362"/>
<path d="M41 14H936V374H41V14Z"/>
</mask>
<path d="M41 374H39V376H41V374ZM936 372H41V376H936V372ZM43 374V14H39V374H43Z" fill="#626377" mask="url(#path-1-outside-1_83_218)"/>
<rect x="41" y="14" width="895" height="40" rx="8" fill="#06090D" fill-opacity="0.6"/>
<rect x="41" y="54" width="895" height="40" rx="8" fill="#0C1219" fill-opacity="0.6"/>
<rect x="41" y="94" width="895" height="40" rx="8" fill="#06090D" fill-opacity="0.6"/>
<rect x="41" y="134" width="895" height="40" rx="8" fill="#0C1219" fill-opacity="0.6"/>
<rect x="41" y="174" width="895" height="40" rx="8" fill="#06090D" fill-opacity="0.6"/>
<rect x="41" y="214" width="895" height="40" rx="8" fill="#0C1219" fill-opacity="0.6"/>
<rect x="41" y="254" width="895" height="40" rx="8" fill="#06090D" fill-opacity="0.6"/>
<rect x="41" y="294" width="895" height="40" rx="8" fill="#0C1219" fill-opacity="0.6"/>
<rect x="41" y="334" width="895" height="40" rx="8" fill="#06090D" fill-opacity="0.6"/>
<path d="M81 186C81 181.582 84.5817 178 89 178H133C137.418 178 141 181.582 141 186V374H81V186Z" fill="url(#paint0_linear_83_218)"/>
<path d="M189 142C189 137.582 192.582 134 197 134H241C245.418 134 249 137.582 249 142V374H189V142Z" fill="url(#paint1_linear_83_218)"/>
<path d="M297 173C297 168.582 300.582 165 305 165H349C353.418 165 357 168.582 357 173V374H297V173Z" fill="url(#paint2_linear_83_218)"/>
<path d="M405 86C405 81.5817 408.582 78 413 78H457C461.418 78 465 81.5817 465 86V374H405V86Z" fill="url(#paint3_linear_83_218)"/>
<path d="M513 196C513 191.582 516.582 188 521 188H565C569.418 188 573 191.582 573 196V374H513V196Z" fill="url(#paint4_linear_83_218)"/>
<path d="M621 62C621 57.5817 624.582 54 629 54H673C677.418 54 681 57.5817 681 62V374H621V62Z" fill="url(#paint5_linear_83_218)"/>
<path d="M729 126C729 121.582 732.582 118 737 118H781C785.418 118 789 121.582 789 126V374H729V126Z" fill="url(#paint6_linear_83_218)"/>
<path d="M837 142C837 137.582 840.582 134 845 134H889C893.418 134 897 137.582 897 142V374H837V142Z" fill="url(#paint7_linear_83_218)"/>
<path d="M5.27734 330.768C5.27734 330.467 5.22949 330.205 5.13379 329.981C5.04264 329.758 4.91504 329.574 4.75098 329.428C4.59147 329.277 4.40234 329.166 4.18359 329.093C3.96484 329.02 3.72786 328.983 3.47266 328.983C3.25391 328.983 3.03971 329.013 2.83008 329.072C2.62044 329.132 2.41536 329.214 2.21484 329.318C2.01888 329.423 1.82747 329.549 1.64062 329.694C1.45833 329.84 1.28743 330.002 1.12793 330.18V328.977C1.44238 328.671 1.79329 328.439 2.18066 328.279C2.57259 328.115 3.04883 328.033 3.60938 328.033C4.01042 328.033 4.38184 328.092 4.72363 328.211C5.06543 328.325 5.36165 328.493 5.6123 328.717C5.86296 328.94 6.05892 329.216 6.2002 329.544C6.34603 329.872 6.41895 330.248 6.41895 330.672C6.41895 331.059 6.37337 331.41 6.28223 331.725C6.19564 332.039 6.0612 332.335 5.87891 332.613C5.70117 332.891 5.47559 333.158 5.20215 333.413C4.92871 333.668 4.60742 333.928 4.23828 334.192C3.77799 334.521 3.39746 334.801 3.09668 335.033C2.80046 335.266 2.56348 335.484 2.38574 335.689C2.21257 335.89 2.08952 336.093 2.0166 336.298C1.94824 336.498 1.91406 336.731 1.91406 336.995H6.79492V338H0.745117V337.515C0.745117 337.095 0.79069 336.726 0.881836 336.407C0.972982 336.088 1.12337 335.785 1.33301 335.498C1.54264 335.211 1.81608 334.924 2.15332 334.637C2.49512 334.35 2.91211 334.026 3.4043 333.666C3.75977 333.411 4.05599 333.167 4.29297 332.935C4.53451 332.702 4.72819 332.47 4.87402 332.237C5.01986 332.005 5.1224 331.77 5.18164 331.533C5.24544 331.292 5.27734 331.036 5.27734 330.768ZM14.5195 333.058C14.5195 333.878 14.4443 334.605 14.2939 335.238C14.1481 335.872 13.9339 336.407 13.6514 336.845C13.3734 337.278 13.0293 337.608 12.6191 337.836C12.2135 338.059 11.751 338.171 11.2314 338.171C10.7393 338.171 10.2995 338.064 9.91211 337.85C9.5293 337.631 9.20573 337.314 8.94141 336.899C8.67708 336.485 8.47656 335.977 8.33984 335.375C8.20312 334.769 8.13477 334.076 8.13477 333.297C8.13477 332.44 8.2054 331.684 8.34668 331.027C8.49251 330.371 8.70443 329.822 8.98242 329.38C9.26042 328.933 9.60449 328.598 10.0146 328.375C10.4294 328.147 10.9033 328.033 11.4365 328.033C13.4919 328.033 14.5195 329.708 14.5195 333.058ZM13.3711 333.167C13.3711 330.378 12.708 328.983 11.3818 328.983C9.98275 328.983 9.2832 330.403 9.2832 333.242C9.2832 335.89 9.96908 337.214 11.3408 337.214C12.6943 337.214 13.3711 335.865 13.3711 333.167ZM22.0664 333.058C22.0664 333.878 21.9912 334.605 21.8408 335.238C21.695 335.872 21.4808 336.407 21.1982 336.845C20.9202 337.278 20.5762 337.608 20.166 337.836C19.7604 338.059 19.2979 338.171 18.7783 338.171C18.2861 338.171 17.8464 338.064 17.459 337.85C17.0762 337.631 16.7526 337.314 16.4883 336.899C16.224 336.485 16.0234 335.977 15.8867 335.375C15.75 334.769 15.6816 334.076 15.6816 333.297C15.6816 332.44 15.7523 331.684 15.8936 331.027C16.0394 330.371 16.2513 329.822 16.5293 329.38C16.8073 328.933 17.1514 328.598 17.5615 328.375C17.9762 328.147 18.4502 328.033 18.9834 328.033C21.0387 328.033 22.0664 329.708 22.0664 333.058ZM20.918 333.167C20.918 330.378 20.2549 328.983 18.9287 328.983C17.5296 328.983 16.8301 330.403 16.8301 333.242C16.8301 335.89 17.516 337.214 18.8877 337.214C20.2412 337.214 20.918 335.865 20.918 333.167Z" fill="#626377"/>
<path d="M5.81055 289.197V295.671H7.06836V296.696H5.81055V299H4.70312V296.696H0.0957031V295.726C0.524089 295.243 0.957031 294.728 1.39453 294.181C1.83203 293.629 2.24902 293.071 2.64551 292.506C3.04655 291.941 3.41569 291.378 3.75293 290.817C4.09473 290.252 4.38184 289.712 4.61426 289.197H5.81055ZM1.36035 295.671H4.70312V290.872C4.36133 291.469 4.03776 292.002 3.73242 292.472C3.42708 292.941 3.13542 293.367 2.85742 293.75C2.58398 294.133 2.32194 294.479 2.07129 294.789C1.82064 295.099 1.58366 295.393 1.36035 295.671ZM14.5195 294.058C14.5195 294.878 14.4443 295.605 14.2939 296.238C14.1481 296.872 13.9339 297.407 13.6514 297.845C13.3734 298.278 13.0293 298.608 12.6191 298.836C12.2135 299.059 11.751 299.171 11.2314 299.171C10.7393 299.171 10.2995 299.064 9.91211 298.85C9.5293 298.631 9.20573 298.314 8.94141 297.899C8.67708 297.485 8.47656 296.977 8.33984 296.375C8.20312 295.769 8.13477 295.076 8.13477 294.297C8.13477 293.44 8.2054 292.684 8.34668 292.027C8.49251 291.371 8.70443 290.822 8.98242 290.38C9.26042 289.933 9.60449 289.598 10.0146 289.375C10.4294 289.147 10.9033 289.033 11.4365 289.033C13.4919 289.033 14.5195 290.708 14.5195 294.058ZM13.3711 294.167C13.3711 291.378 12.708 289.983 11.3818 289.983C9.98275 289.983 9.2832 291.403 9.2832 294.242C9.2832 296.89 9.96908 298.214 11.3408 298.214C12.6943 298.214 13.3711 296.865 13.3711 294.167ZM22.0664 294.058C22.0664 294.878 21.9912 295.605 21.8408 296.238C21.695 296.872 21.4808 297.407 21.1982 297.845C20.9202 298.278 20.5762 298.608 20.166 298.836C19.7604 299.059 19.2979 299.171 18.7783 299.171C18.2861 299.171 17.8464 299.064 17.459 298.85C17.0762 298.631 16.7526 298.314 16.4883 297.899C16.224 297.485 16.0234 296.977 15.8867 296.375C15.75 295.769 15.6816 295.076 15.6816 294.297C15.6816 293.44 15.7523 292.684 15.8936 292.027C16.0394 291.371 16.2513 290.822 16.5293 290.38C16.8073 289.933 17.1514 289.598 17.5615 289.375C17.9762 289.147 18.4502 289.033 18.9834 289.033C21.0387 289.033 22.0664 290.708 22.0664 294.058ZM20.918 294.167C20.918 291.378 20.2549 289.983 18.9287 289.983C17.5296 289.983 16.8301 291.403 16.8301 294.242C16.8301 296.89 17.516 298.214 18.8877 298.214C20.2412 298.214 20.918 296.865 20.918 294.167Z" fill="#626377"/>
<path d="M6.98633 255.89C6.98633 256.368 6.90885 256.808 6.75391 257.209C6.59896 257.61 6.38477 257.956 6.11133 258.248C5.83789 258.54 5.51204 258.768 5.13379 258.932C4.75553 259.091 4.34538 259.171 3.90332 259.171C3.41113 259.171 2.96908 259.068 2.57715 258.863C2.18978 258.658 1.85938 258.364 1.58594 257.981C1.31706 257.594 1.11198 257.122 0.970703 256.566C0.829427 256.01 0.758789 255.384 0.758789 254.687C0.758789 253.834 0.852214 253.062 1.03906 252.369C1.23047 251.672 1.49935 251.077 1.8457 250.585C2.19661 250.088 2.61816 249.705 3.11035 249.437C3.60254 249.168 4.15169 249.033 4.75781 249.033C5.43229 249.033 5.97461 249.127 6.38477 249.313V250.373C5.87891 250.113 5.3457 249.983 4.78516 249.983C4.34766 249.983 3.95345 250.081 3.60254 250.277C3.25163 250.473 2.95085 250.751 2.7002 251.111C2.44954 251.467 2.25586 251.897 2.11914 252.403C1.98698 252.909 1.9209 253.472 1.9209 254.092H1.94824C2.39941 253.276 3.14453 252.868 4.18359 252.868C4.61198 252.868 4.99707 252.941 5.33887 253.087C5.68522 253.233 5.97917 253.44 6.2207 253.709C6.4668 253.973 6.65592 254.29 6.78809 254.659C6.92025 255.028 6.98633 255.438 6.98633 255.89ZM5.83789 256.033C5.83789 255.691 5.7946 255.384 5.70801 255.11C5.62142 254.837 5.49609 254.604 5.33203 254.413C5.17253 254.222 4.97428 254.076 4.7373 253.976C4.50033 253.871 4.23145 253.818 3.93066 253.818C3.65267 253.818 3.39518 253.871 3.1582 253.976C2.92122 254.08 2.71615 254.224 2.54297 254.406C2.36979 254.584 2.23307 254.794 2.13281 255.035C2.03711 255.272 1.98926 255.525 1.98926 255.794C1.98926 256.131 2.03711 256.448 2.13281 256.744C2.22852 257.036 2.36296 257.291 2.53613 257.51C2.70931 257.729 2.91439 257.902 3.15137 258.029C3.3929 258.152 3.65951 258.214 3.95117 258.214C4.23372 258.214 4.49121 258.161 4.72363 258.057C4.95605 257.947 5.1543 257.797 5.31836 257.605C5.48242 257.414 5.61003 257.186 5.70117 256.922C5.79232 256.653 5.83789 256.357 5.83789 256.033ZM14.5195 254.058C14.5195 254.878 14.4443 255.605 14.2939 256.238C14.1481 256.872 13.9339 257.407 13.6514 257.845C13.3734 258.278 13.0293 258.608 12.6191 258.836C12.2135 259.059 11.751 259.171 11.2314 259.171C10.7393 259.171 10.2995 259.064 9.91211 258.85C9.5293 258.631 9.20573 258.314 8.94141 257.899C8.67708 257.485 8.47656 256.977 8.33984 256.375C8.20312 255.769 8.13477 255.076 8.13477 254.297C8.13477 253.44 8.2054 252.684 8.34668 252.027C8.49251 251.371 8.70443 250.822 8.98242 250.38C9.26042 249.933 9.60449 249.598 10.0146 249.375C10.4294 249.147 10.9033 249.033 11.4365 249.033C13.4919 249.033 14.5195 250.708 14.5195 254.058ZM13.3711 254.167C13.3711 251.378 12.708 249.983 11.3818 249.983C9.98275 249.983 9.2832 251.403 9.2832 254.242C9.2832 256.89 9.96908 258.214 11.3408 258.214C12.6943 258.214 13.3711 256.865 13.3711 254.167ZM22.0664 254.058C22.0664 254.878 21.9912 255.605 21.8408 256.238C21.695 256.872 21.4808 257.407 21.1982 257.845C20.9202 258.278 20.5762 258.608 20.166 258.836C19.7604 259.059 19.2979 259.171 18.7783 259.171C18.2861 259.171 17.8464 259.064 17.459 258.85C17.0762 258.631 16.7526 258.314 16.4883 257.899C16.224 257.485 16.0234 256.977 15.8867 256.375C15.75 255.769 15.6816 255.076 15.6816 254.297C15.6816 253.44 15.7523 252.684 15.8936 252.027C16.0394 251.371 16.2513 250.822 16.5293 250.38C16.8073 249.933 17.1514 249.598 17.5615 249.375C17.9762 249.147 18.4502 249.033 18.9834 249.033C21.0387 249.033 22.0664 250.708 22.0664 254.058ZM20.918 254.167C20.918 251.378 20.2549 249.983 18.9287 249.983C17.5296 249.983 16.8301 251.403 16.8301 254.242C16.8301 256.89 17.516 258.214 18.8877 258.214C20.2412 258.214 20.918 256.865 20.918 254.167Z" fill="#626377"/>
<path d="M0.615234 216.266C0.615234 216.006 0.65625 215.746 0.738281 215.486C0.820312 215.222 0.936523 214.976 1.08691 214.748C1.24186 214.52 1.43099 214.313 1.6543 214.126C1.88216 213.939 2.13965 213.791 2.42676 213.682C2.00293 213.445 1.66569 213.142 1.41504 212.772C1.16439 212.399 1.03906 211.986 1.03906 211.535C1.03906 211.175 1.10742 210.842 1.24414 210.537C1.38542 210.232 1.5791 209.967 1.8252 209.744C2.07129 209.521 2.36296 209.348 2.7002 209.225C3.03743 209.097 3.40202 209.033 3.79395 209.033C4.19043 209.033 4.55729 209.097 4.89453 209.225C5.23177 209.352 5.52344 209.528 5.76953 209.751C6.01562 209.974 6.20703 210.239 6.34375 210.544C6.48047 210.849 6.54883 211.18 6.54883 211.535C6.54883 211.986 6.4235 212.399 6.17285 212.772C5.9222 213.142 5.58952 213.445 5.1748 213.682C5.45736 213.791 5.71029 213.939 5.93359 214.126C6.1569 214.313 6.34375 214.52 6.49414 214.748C6.64909 214.976 6.76758 215.222 6.84961 215.486C6.93164 215.746 6.97266 216.006 6.97266 216.266C6.97266 216.694 6.89518 217.086 6.74023 217.441C6.58529 217.797 6.36654 218.102 6.08398 218.357C5.80599 218.608 5.47103 218.804 5.0791 218.945C4.69173 219.087 4.26335 219.157 3.79395 219.157C3.3291 219.157 2.90299 219.087 2.51562 218.945C2.12826 218.804 1.79329 218.608 1.51074 218.357C1.22819 218.102 1.00716 217.797 0.847656 217.441C0.692708 217.086 0.615234 216.694 0.615234 216.266ZM1.83203 216.17C1.83203 216.475 1.8776 216.751 1.96875 216.997C2.06445 217.243 2.19661 217.453 2.36523 217.626C2.53841 217.799 2.74577 217.934 2.9873 218.029C3.2334 218.12 3.50456 218.166 3.80078 218.166C4.08789 218.166 4.35221 218.118 4.59375 218.022C4.83529 217.927 5.04264 217.792 5.21582 217.619C5.39355 217.446 5.53027 217.236 5.62598 216.99C5.72624 216.744 5.77637 216.471 5.77637 216.17C5.77637 215.896 5.72852 215.641 5.63281 215.404C5.54167 215.163 5.40951 214.951 5.23633 214.769C5.06315 214.586 4.85579 214.443 4.61426 214.338C4.37272 214.233 4.10156 214.181 3.80078 214.181C3.51823 214.181 3.25618 214.231 3.01465 214.331C2.77767 214.427 2.57031 214.563 2.39258 214.741C2.2194 214.914 2.08268 215.124 1.98242 215.37C1.88216 215.612 1.83203 215.878 1.83203 216.17ZM2.18066 211.624C2.18066 211.856 2.22168 212.073 2.30371 212.273C2.3903 212.469 2.50651 212.643 2.65234 212.793C2.80273 212.939 2.97591 213.055 3.17188 213.142C3.36784 213.224 3.57747 213.265 3.80078 213.265C4.02409 213.265 4.23372 213.221 4.42969 213.135C4.63021 213.048 4.80339 212.932 4.94922 212.786C5.09505 212.636 5.21126 212.463 5.29785 212.267C5.38444 212.066 5.42773 211.852 5.42773 211.624C5.42773 211.387 5.38444 211.168 5.29785 210.968C5.21582 210.767 5.10189 210.594 4.95605 210.448C4.81022 210.302 4.63704 210.188 4.43652 210.106C4.24056 210.02 4.02865 209.977 3.80078 209.977C3.55924 209.977 3.33822 210.02 3.1377 210.106C2.94173 210.193 2.77083 210.312 2.625 210.462C2.48372 210.608 2.37435 210.781 2.29688 210.981C2.2194 211.182 2.18066 211.396 2.18066 211.624ZM14.5195 214.058C14.5195 214.878 14.4443 215.605 14.2939 216.238C14.1481 216.872 13.9339 217.407 13.6514 217.845C13.3734 218.278 13.0293 218.608 12.6191 218.836C12.2135 219.059 11.751 219.171 11.2314 219.171C10.7393 219.171 10.2995 219.064 9.91211 218.85C9.5293 218.631 9.20573 218.314 8.94141 217.899C8.67708 217.485 8.47656 216.977 8.33984 216.375C8.20312 215.769 8.13477 215.076 8.13477 214.297C8.13477 213.44 8.2054 212.684 8.34668 212.027C8.49251 211.371 8.70443 210.822 8.98242 210.38C9.26042 209.933 9.60449 209.598 10.0146 209.375C10.4294 209.147 10.9033 209.033 11.4365 209.033C13.4919 209.033 14.5195 210.708 14.5195 214.058ZM13.3711 214.167C13.3711 211.378 12.708 209.983 11.3818 209.983C9.98275 209.983 9.2832 211.403 9.2832 214.242C9.2832 216.89 9.96908 218.214 11.3408 218.214C12.6943 218.214 13.3711 216.865 13.3711 214.167ZM22.0664 214.058C22.0664 214.878 21.9912 215.605 21.8408 216.238C21.695 216.872 21.4808 217.407 21.1982 217.845C20.9202 218.278 20.5762 218.608 20.166 218.836C19.7604 219.059 19.2979 219.171 18.7783 219.171C18.2861 219.171 17.8464 219.064 17.459 218.85C17.0762 218.631 16.7526 218.314 16.4883 217.899C16.224 217.485 16.0234 216.977 15.8867 216.375C15.75 215.769 15.6816 215.076 15.6816 214.297C15.6816 213.44 15.7523 212.684 15.8936 212.027C16.0394 211.371 16.2513 210.822 16.5293 210.38C16.8073 209.933 17.1514 209.598 17.5615 209.375C17.9762 209.147 18.4502 209.033 18.9834 209.033C21.0387 209.033 22.0664 210.708 22.0664 214.058ZM20.918 214.167C20.918 211.378 20.2549 209.983 18.9287 209.983C17.5296 209.983 16.8301 211.403 16.8301 214.242C16.8301 216.89 17.516 218.214 18.8877 218.214C20.2412 218.214 20.918 216.865 20.918 214.167Z" fill="#626377"/>
<path d="M4.94922 179H3.82812V170.53C3.74154 170.617 3.61393 170.717 3.44531 170.831C3.28125 170.94 3.0944 171.05 2.88477 171.159C2.67969 171.269 2.46094 171.371 2.22852 171.467C2.00065 171.562 1.77734 171.638 1.55859 171.692V170.558C1.80469 170.489 2.06445 170.398 2.33789 170.284C2.61589 170.166 2.88704 170.036 3.15137 169.895C3.42025 169.749 3.67318 169.598 3.91016 169.443C4.14714 169.284 4.35221 169.129 4.52539 168.979H4.94922V179ZM14.5195 174.058C14.5195 174.878 14.4443 175.605 14.2939 176.238C14.1481 176.872 13.9339 177.407 13.6514 177.845C13.3734 178.278 13.0293 178.608 12.6191 178.836C12.2135 179.059 11.751 179.171 11.2314 179.171C10.7393 179.171 10.2995 179.064 9.91211 178.85C9.5293 178.631 9.20573 178.314 8.94141 177.899C8.67708 177.485 8.47656 176.977 8.33984 176.375C8.20312 175.769 8.13477 175.076 8.13477 174.297C8.13477 173.44 8.2054 172.684 8.34668 172.027C8.49251 171.371 8.70443 170.822 8.98242 170.38C9.26042 169.933 9.60449 169.598 10.0146 169.375C10.4294 169.147 10.9033 169.033 11.4365 169.033C13.4919 169.033 14.5195 170.708 14.5195 174.058ZM13.3711 174.167C13.3711 171.378 12.708 169.983 11.3818 169.983C9.98275 169.983 9.2832 171.403 9.2832 174.242C9.2832 176.89 9.96908 178.214 11.3408 178.214C12.6943 178.214 13.3711 176.865 13.3711 174.167ZM22.0664 174.058C22.0664 174.878 21.9912 175.605 21.8408 176.238C21.695 176.872 21.4808 177.407 21.1982 177.845C20.9202 178.278 20.5762 178.608 20.166 178.836C19.7604 179.059 19.2979 179.171 18.7783 179.171C18.2861 179.171 17.8464 179.064 17.459 178.85C17.0762 178.631 16.7526 178.314 16.4883 177.899C16.224 177.485 16.0234 176.977 15.8867 176.375C15.75 175.769 15.6816 175.076 15.6816 174.297C15.6816 173.44 15.7523 172.684 15.8936 172.027C16.0394 171.371 16.2513 170.822 16.5293 170.38C16.8073 169.933 17.1514 169.598 17.5615 169.375C17.9762 169.147 18.4502 169.033 18.9834 169.033C21.0387 169.033 22.0664 170.708 22.0664 174.058ZM20.918 174.167C20.918 171.378 20.2549 169.983 18.9287 169.983C17.5296 169.983 16.8301 171.403 16.8301 174.242C16.8301 176.89 17.516 178.214 18.8877 178.214C20.2412 178.214 20.918 176.865 20.918 174.167ZM29.6133 174.058C29.6133 174.878 29.5381 175.605 29.3877 176.238C29.2419 176.872 29.0277 177.407 28.7451 177.845C28.4671 178.278 28.123 178.608 27.7129 178.836C27.3073 179.059 26.8447 179.171 26.3252 179.171C25.833 179.171 25.3932 179.064 25.0059 178.85C24.623 178.631 24.2995 178.314 24.0352 177.899C23.7708 177.485 23.5703 176.977 23.4336 176.375C23.2969 175.769 23.2285 175.076 23.2285 174.297C23.2285 173.44 23.2992 172.684 23.4404 172.027C23.5863 171.371 23.7982 170.822 24.0762 170.38C24.3542 169.933 24.6982 169.598 25.1084 169.375C25.5231 169.147 25.9971 169.033 26.5303 169.033C28.5856 169.033 29.6133 170.708 29.6133 174.058ZM28.4648 174.167C28.4648 171.378 27.8018 169.983 26.4756 169.983C25.0765 169.983 24.377 171.403 24.377 174.242C24.377 176.89 25.0628 178.214 26.4346 178.214C27.7881 178.214 28.4648 176.865 28.4648 174.167Z" fill="#626377"/>
<path d="M4.94922 139H3.82812V130.53C3.74154 130.617 3.61393 130.717 3.44531 130.831C3.28125 130.94 3.0944 131.05 2.88477 131.159C2.67969 131.269 2.46094 131.371 2.22852 131.467C2.00065 131.562 1.77734 131.638 1.55859 131.692V130.558C1.80469 130.489 2.06445 130.398 2.33789 130.284C2.61589 130.166 2.88704 130.036 3.15137 129.895C3.42025 129.749 3.67318 129.598 3.91016 129.443C4.14714 129.284 4.35221 129.129 4.52539 128.979H4.94922V139ZM12.8242 131.768C12.8242 131.467 12.7764 131.205 12.6807 130.981C12.5895 130.758 12.4619 130.574 12.2979 130.428C12.1383 130.277 11.9492 130.166 11.7305 130.093C11.5117 130.02 11.2747 129.983 11.0195 129.983C10.8008 129.983 10.5866 130.013 10.377 130.072C10.1673 130.132 9.96224 130.214 9.76172 130.318C9.56576 130.423 9.37435 130.549 9.1875 130.694C9.00521 130.84 8.83431 131.002 8.6748 131.18V129.977C8.98926 129.671 9.34017 129.439 9.72754 129.279C10.1195 129.115 10.5957 129.033 11.1562 129.033C11.5573 129.033 11.9287 129.092 12.2705 129.211C12.6123 129.325 12.9085 129.493 13.1592 129.717C13.4098 129.94 13.6058 130.216 13.7471 130.544C13.8929 130.872 13.9658 131.248 13.9658 131.672C13.9658 132.059 13.9202 132.41 13.8291 132.725C13.7425 133.039 13.6081 133.335 13.4258 133.613C13.248 133.891 13.0225 134.158 12.749 134.413C12.4756 134.668 12.1543 134.928 11.7852 135.192C11.3249 135.521 10.9443 135.801 10.6436 136.033C10.3473 136.266 10.1104 136.484 9.93262 136.689C9.75944 136.89 9.63639 137.093 9.56348 137.298C9.49512 137.498 9.46094 137.731 9.46094 137.995H14.3418V139H8.29199V138.515C8.29199 138.095 8.33757 137.726 8.42871 137.407C8.51986 137.088 8.67025 136.785 8.87988 136.498C9.08952 136.211 9.36296 135.924 9.7002 135.637C10.042 135.35 10.459 135.026 10.9512 134.666C11.3066 134.411 11.6029 134.167 11.8398 133.935C12.0814 133.702 12.2751 133.47 12.4209 133.237C12.5667 133.005 12.6693 132.77 12.7285 132.533C12.7923 132.292 12.8242 132.036 12.8242 131.768ZM22.0664 134.058C22.0664 134.878 21.9912 135.605 21.8408 136.238C21.695 136.872 21.4808 137.407 21.1982 137.845C20.9202 138.278 20.5762 138.608 20.166 138.836C19.7604 139.059 19.2979 139.171 18.7783 139.171C18.2861 139.171 17.8464 139.064 17.459 138.85C17.0762 138.631 16.7526 138.314 16.4883 137.899C16.224 137.485 16.0234 136.977 15.8867 136.375C15.75 135.769 15.6816 135.076 15.6816 134.297C15.6816 133.44 15.7523 132.684 15.8936 132.027C16.0394 131.371 16.2513 130.822 16.5293 130.38C16.8073 129.933 17.1514 129.598 17.5615 129.375C17.9762 129.147 18.4502 129.033 18.9834 129.033C21.0387 129.033 22.0664 130.708 22.0664 134.058ZM20.918 134.167C20.918 131.378 20.2549 129.983 18.9287 129.983C17.5296 129.983 16.8301 131.403 16.8301 134.242C16.8301 136.89 17.516 138.214 18.8877 138.214C20.2412 138.214 20.918 136.865 20.918 134.167ZM29.6133 134.058C29.6133 134.878 29.5381 135.605 29.3877 136.238C29.2419 136.872 29.0277 137.407 28.7451 137.845C28.4671 138.278 28.123 138.608 27.7129 138.836C27.3073 139.059 26.8447 139.171 26.3252 139.171C25.833 139.171 25.3932 139.064 25.0059 138.85C24.623 138.631 24.2995 138.314 24.0352 137.899C23.7708 137.485 23.5703 136.977 23.4336 136.375C23.2969 135.769 23.2285 135.076 23.2285 134.297C23.2285 133.44 23.2992 132.684 23.4404 132.027C23.5863 131.371 23.7982 130.822 24.0762 130.38C24.3542 129.933 24.6982 129.598 25.1084 129.375C25.5231 129.147 25.9971 129.033 26.5303 129.033C28.5856 129.033 29.6133 130.708 29.6133 134.058ZM28.4648 134.167C28.4648 131.378 27.8018 129.983 26.4756 129.983C25.0765 129.983 24.377 131.403 24.377 134.242C24.377 136.89 25.0628 138.214 26.4346 138.214C27.7881 138.214 28.4648 136.865 28.4648 134.167Z" fill="#626377"/>
<path d="M4.94922 99H3.82812V90.5303C3.74154 90.6169 3.61393 90.7171 3.44531 90.8311C3.28125 90.9404 3.0944 91.0498 2.88477 91.1592C2.67969 91.2686 2.46094 91.3711 2.22852 91.4668C2.00065 91.5625 1.77734 91.6377 1.55859 91.6924V90.5576C1.80469 90.4893 2.06445 90.3981 2.33789 90.2842C2.61589 90.1657 2.88704 90.0358 3.15137 89.8945C3.42025 89.7487 3.67318 89.5983 3.91016 89.4434C4.14714 89.2839 4.35221 89.1289 4.52539 88.9785H4.94922V99ZM13.3574 89.1973V95.6709H14.6152V96.6963H13.3574V99H12.25V96.6963H7.64258V95.7256C8.07096 95.2425 8.50391 94.7275 8.94141 94.1807C9.37891 93.6292 9.7959 93.071 10.1924 92.5059C10.5934 91.9408 10.9626 91.3779 11.2998 90.8174C11.6416 90.2523 11.9287 89.7122 12.1611 89.1973H13.3574ZM8.90723 95.6709H12.25V90.8721C11.9082 91.4691 11.5846 92.0023 11.2793 92.4717C10.974 92.9411 10.6823 93.3672 10.4043 93.75C10.1309 94.1328 9.86882 94.4792 9.61816 94.7891C9.36751 95.099 9.13053 95.3929 8.90723 95.6709ZM22.0664 94.0576C22.0664 94.8779 21.9912 95.6048 21.8408 96.2383C21.695 96.8717 21.4808 97.4072 21.1982 97.8447C20.9202 98.2777 20.5762 98.6081 20.166 98.8359C19.7604 99.0592 19.2979 99.1709 18.7783 99.1709C18.2861 99.1709 17.8464 99.0638 17.459 98.8496C17.0762 98.6309 16.7526 98.3141 16.4883 97.8994C16.224 97.4847 16.0234 96.9766 15.8867 96.375C15.75 95.7689 15.6816 95.0762 15.6816 94.2969C15.6816 93.4401 15.7523 92.6836 15.8936 92.0273C16.0394 91.3711 16.2513 90.8219 16.5293 90.3799C16.8073 89.9333 17.1514 89.5983 17.5615 89.375C17.9762 89.1471 18.4502 89.0332 18.9834 89.0332C21.0387 89.0332 22.0664 90.708 22.0664 94.0576ZM20.918 94.167C20.918 91.3779 20.2549 89.9834 18.9287 89.9834C17.5296 89.9834 16.8301 91.403 16.8301 94.2422C16.8301 96.89 17.516 98.2139 18.8877 98.2139C20.2412 98.2139 20.918 96.8649 20.918 94.167ZM29.6133 94.0576C29.6133 94.8779 29.5381 95.6048 29.3877 96.2383C29.2419 96.8717 29.0277 97.4072 28.7451 97.8447C28.4671 98.2777 28.123 98.6081 27.7129 98.8359C27.3073 99.0592 26.8447 99.1709 26.3252 99.1709C25.833 99.1709 25.3932 99.0638 25.0059 98.8496C24.623 98.6309 24.2995 98.3141 24.0352 97.8994C23.7708 97.4847 23.5703 96.9766 23.4336 96.375C23.2969 95.7689 23.2285 95.0762 23.2285 94.2969C23.2285 93.4401 23.2992 92.6836 23.4404 92.0273C23.5863 91.3711 23.7982 90.8219 24.0762 90.3799C24.3542 89.9333 24.6982 89.5983 25.1084 89.375C25.5231 89.1471 25.9971 89.0332 26.5303 89.0332C28.5856 89.0332 29.6133 90.708 29.6133 94.0576ZM28.4648 94.167C28.4648 91.3779 27.8018 89.9834 26.4756 89.9834C25.0765 89.9834 24.377 91.403 24.377 94.2422C24.377 96.89 25.0628 98.2139 26.4346 98.2139C27.7881 98.2139 28.4648 96.8649 28.4648 94.167Z" fill="#626377"/>
<path d="M4.94922 59H3.82812V50.5303C3.74154 50.6169 3.61393 50.7171 3.44531 50.8311C3.28125 50.9404 3.0944 51.0498 2.88477 51.1592C2.67969 51.2686 2.46094 51.3711 2.22852 51.4668C2.00065 51.5625 1.77734 51.6377 1.55859 51.6924V50.5576C1.80469 50.4893 2.06445 50.3981 2.33789 50.2842C2.61589 50.1657 2.88704 50.0358 3.15137 49.8945C3.42025 49.7487 3.67318 49.5983 3.91016 49.4434C4.14714 49.2839 4.35221 49.1289 4.52539 48.9785H4.94922V59ZM14.5332 55.8896C14.5332 56.3682 14.4557 56.8079 14.3008 57.209C14.1458 57.61 13.9316 57.9564 13.6582 58.248C13.3848 58.5397 13.0589 58.7676 12.6807 58.9316C12.3024 59.0911 11.8923 59.1709 11.4502 59.1709C10.958 59.1709 10.516 59.0684 10.124 58.8633C9.73665 58.6582 9.40625 58.3643 9.13281 57.9814C8.86393 57.5941 8.65885 57.1224 8.51758 56.5664C8.3763 56.0104 8.30566 55.3838 8.30566 54.6865C8.30566 53.8343 8.39909 53.0618 8.58594 52.3691C8.77734 51.6719 9.04622 51.0771 9.39258 50.585C9.74349 50.0882 10.165 49.7054 10.6572 49.4365C11.1494 49.1676 11.6986 49.0332 12.3047 49.0332C12.9792 49.0332 13.5215 49.1266 13.9316 49.3135V50.373C13.4258 50.1133 12.8926 49.9834 12.332 49.9834C11.8945 49.9834 11.5003 50.0814 11.1494 50.2773C10.7985 50.4733 10.4977 50.7513 10.2471 51.1113C9.99642 51.4668 9.80273 51.8975 9.66602 52.4033C9.53385 52.9092 9.46777 53.472 9.46777 54.0918H9.49512C9.94629 53.276 10.6914 52.8682 11.7305 52.8682C12.1589 52.8682 12.5439 52.9411 12.8857 53.0869C13.2321 53.2327 13.526 53.4401 13.7676 53.709C14.0137 53.9733 14.2028 54.29 14.335 54.6592C14.4671 55.0283 14.5332 55.4385 14.5332 55.8896ZM13.3848 56.0332C13.3848 55.6914 13.3415 55.3838 13.2549 55.1104C13.1683 54.8369 13.043 54.6045 12.8789 54.4131C12.7194 54.2217 12.5212 54.0758 12.2842 53.9756C12.0472 53.8708 11.7783 53.8184 11.4775 53.8184C11.1995 53.8184 10.9421 53.8708 10.7051 53.9756C10.4681 54.0804 10.263 54.224 10.0898 54.4062C9.91667 54.584 9.77995 54.7936 9.67969 55.0352C9.58398 55.2721 9.53613 55.5251 9.53613 55.7939C9.53613 56.1312 9.58398 56.4479 9.67969 56.7441C9.77539 57.0358 9.90983 57.291 10.083 57.5098C10.2562 57.7285 10.4613 57.9017 10.6982 58.0293C10.9398 58.1523 11.2064 58.2139 11.498 58.2139C11.7806 58.2139 12.0381 58.1615 12.2705 58.0566C12.5029 57.9473 12.7012 57.7969 12.8652 57.6055C13.0293 57.4141 13.1569 57.1862 13.248 56.9219C13.3392 56.653 13.3848 56.3568 13.3848 56.0332ZM22.0664 54.0576C22.0664 54.8779 21.9912 55.6048 21.8408 56.2383C21.695 56.8717 21.4808 57.4072 21.1982 57.8447C20.9202 58.2777 20.5762 58.6081 20.166 58.8359C19.7604 59.0592 19.2979 59.1709 18.7783 59.1709C18.2861 59.1709 17.8464 59.0638 17.459 58.8496C17.0762 58.6309 16.7526 58.3141 16.4883 57.8994C16.224 57.4847 16.0234 56.9766 15.8867 56.375C15.75 55.7689 15.6816 55.0762 15.6816 54.2969C15.6816 53.4401 15.7523 52.6836 15.8936 52.0273C16.0394 51.3711 16.2513 50.8219 16.5293 50.3799C16.8073 49.9333 17.1514 49.5983 17.5615 49.375C17.9762 49.1471 18.4502 49.0332 18.9834 49.0332C21.0387 49.0332 22.0664 50.708 22.0664 54.0576ZM20.918 54.167C20.918 51.3779 20.2549 49.9834 18.9287 49.9834C17.5296 49.9834 16.8301 51.403 16.8301 54.2422C16.8301 56.89 17.516 58.2139 18.8877 58.2139C20.2412 58.2139 20.918 56.8649 20.918 54.167ZM29.6133 54.0576C29.6133 54.8779 29.5381 55.6048 29.3877 56.2383C29.2419 56.8717 29.0277 57.4072 28.7451 57.8447C28.4671 58.2777 28.123 58.6081 27.7129 58.8359C27.3073 59.0592 26.8447 59.1709 26.3252 59.1709C25.833 59.1709 25.3932 59.0638 25.0059 58.8496C24.623 58.6309 24.2995 58.3141 24.0352 57.8994C23.7708 57.4847 23.5703 56.9766 23.4336 56.375C23.2969 55.7689 23.2285 55.0762 23.2285 54.2969C23.2285 53.4401 23.2992 52.6836 23.4404 52.0273C23.5863 51.3711 23.7982 50.8219 24.0762 50.3799C24.3542 49.9333 24.6982 49.5983 25.1084 49.375C25.5231 49.1471 25.9971 49.0332 26.5303 49.0332C28.5856 49.0332 29.6133 50.708 29.6133 54.0576ZM28.4648 54.167C28.4648 51.3779 27.8018 49.9834 26.4756 49.9834C25.0765 49.9834 24.377 51.403 24.377 54.2422C24.377 56.89 25.0628 58.2139 26.4346 58.2139C27.7881 58.2139 28.4648 56.8649 28.4648 54.167Z" fill="#626377"/>
<path d="M103.953 394.555C103.953 396.055 103.604 397.203 102.906 398C102.214 398.797 101.208 399.195 99.8906 399.195C99.3021 399.195 98.7578 399.094 98.2578 398.891V396.523C98.6901 396.852 99.1745 397.016 99.7109 397.016C100.862 397.016 101.438 396.161 101.438 394.453V387.797H103.953V394.555ZM112.82 399H110.484V397.852H110.453C109.917 398.747 109.122 399.195 108.07 399.195C107.294 399.195 106.682 398.977 106.234 398.539C105.792 398.096 105.57 397.508 105.57 396.773C105.57 395.221 106.49 394.326 108.328 394.086L110.5 393.797C110.5 392.922 110.026 392.484 109.078 392.484C108.125 392.484 107.219 392.768 106.359 393.336V391.477C106.703 391.299 107.172 391.143 107.766 391.008C108.365 390.872 108.909 390.805 109.398 390.805C111.68 390.805 112.82 391.943 112.82 394.219V399ZM110.5 395.75V395.211L109.047 395.398C108.245 395.503 107.844 395.865 107.844 396.484C107.844 396.766 107.94 396.997 108.133 397.18C108.331 397.357 108.596 397.445 108.93 397.445C109.393 397.445 109.771 397.286 110.062 396.969C110.354 396.646 110.5 396.24 110.5 395.75ZM122.5 399H120.039V394.555C120.039 393.315 119.596 392.695 118.711 392.695C118.284 392.695 117.932 392.859 117.656 393.188C117.38 393.516 117.242 393.932 117.242 394.438V399H114.773V391H117.242V392.266H117.273C117.862 391.292 118.719 390.805 119.844 390.805C121.615 390.805 122.5 391.904 122.5 394.102V399ZM125.562 399.195C125.156 399.195 124.818 399.07 124.547 398.82C124.276 398.57 124.141 398.263 124.141 397.898C124.141 397.523 124.279 397.216 124.555 396.977C124.836 396.737 125.185 396.617 125.602 396.617C126.023 396.617 126.367 396.74 126.633 396.984C126.904 397.224 127.039 397.529 127.039 397.898C127.039 398.279 126.901 398.591 126.625 398.836C126.354 399.076 126 399.195 125.562 399.195Z" fill="#626377"/>
<path d="M210.758 389.852H206.805V392.602H210.438V394.648H206.805V399H204.281V387.797H210.758V389.852ZM219.023 399H216.688V397.852H216.656C216.12 398.747 215.326 399.195 214.273 399.195C213.497 399.195 212.885 398.977 212.438 398.539C211.995 398.096 211.773 397.508 211.773 396.773C211.773 395.221 212.693 394.326 214.531 394.086L216.703 393.797C216.703 392.922 216.229 392.484 215.281 392.484C214.328 392.484 213.422 392.768 212.562 393.336V391.477C212.906 391.299 213.375 391.143 213.969 391.008C214.568 390.872 215.112 390.805 215.602 390.805C217.883 390.805 219.023 391.943 219.023 394.219V399ZM216.703 395.75V395.211L215.25 395.398C214.448 395.503 214.047 395.865 214.047 396.484C214.047 396.766 214.143 396.997 214.336 397.18C214.534 397.357 214.799 397.445 215.133 397.445C215.596 397.445 215.974 397.286 216.266 396.969C216.557 396.646 216.703 396.24 216.703 395.75ZM223.477 398.07H223.445V399H220.977V387.156H223.445V392.203H223.477C224.086 391.271 224.953 390.805 226.078 390.805C227.109 390.805 227.904 391.159 228.461 391.867C229.018 392.576 229.297 393.544 229.297 394.773C229.297 396.107 228.971 397.177 228.32 397.984C227.669 398.792 226.799 399.195 225.711 399.195C224.727 399.195 223.982 398.82 223.477 398.07ZM223.406 394.695V395.516C223.406 396.031 223.555 396.458 223.852 396.797C224.148 397.135 224.529 397.305 224.992 397.305C225.555 397.305 225.99 397.089 226.297 396.656C226.609 396.219 226.766 395.602 226.766 394.805C226.766 394.143 226.622 393.628 226.336 393.258C226.055 392.883 225.651 392.695 225.125 392.695C224.63 392.695 224.219 392.88 223.891 393.25C223.568 393.62 223.406 394.102 223.406 394.695ZM232 399.195C231.594 399.195 231.255 399.07 230.984 398.82C230.714 398.57 230.578 398.263 230.578 397.898C230.578 397.523 230.716 397.216 230.992 396.977C231.273 396.737 231.622 396.617 232.039 396.617C232.461 396.617 232.805 396.74 233.07 396.984C233.341 397.224 233.477 397.529 233.477 397.898C233.477 398.279 233.339 398.591 233.062 398.836C232.792 399.076 232.438 399.195 232 399.195Z" fill="#626377"/>
<path d="M323.047 399H320.555V392.297C320.555 391.573 320.586 390.773 320.648 389.898H320.586C320.456 390.586 320.339 391.081 320.234 391.383L317.609 399H315.547L312.875 391.461C312.802 391.258 312.685 390.737 312.523 389.898H312.453C312.521 391.003 312.555 391.971 312.555 392.805V399H310.281V387.797H313.977L316.266 394.438C316.448 394.969 316.581 395.503 316.664 396.039H316.711C316.852 395.419 317 394.88 317.156 394.422L319.445 387.797H323.047V399ZM332.008 399H329.672V397.852H329.641C329.104 398.747 328.31 399.195 327.258 399.195C326.482 399.195 325.87 398.977 325.422 398.539C324.979 398.096 324.758 397.508 324.758 396.773C324.758 395.221 325.677 394.326 327.516 394.086L329.688 393.797C329.688 392.922 329.214 392.484 328.266 392.484C327.312 392.484 326.406 392.768 325.547 393.336V391.477C325.891 391.299 326.359 391.143 326.953 391.008C327.552 390.872 328.096 390.805 328.586 390.805C330.867 390.805 332.008 391.943 332.008 394.219V399ZM329.688 395.75V395.211L328.234 395.398C327.432 395.503 327.031 395.865 327.031 396.484C327.031 396.766 327.128 396.997 327.32 397.18C327.518 397.357 327.784 397.445 328.117 397.445C328.581 397.445 328.958 397.286 329.25 396.969C329.542 396.646 329.688 396.24 329.688 395.75ZM339.18 393.227C338.883 393.065 338.536 392.984 338.141 392.984C337.604 392.984 337.185 393.182 336.883 393.578C336.581 393.969 336.43 394.503 336.43 395.18V399H333.961V391H336.43V392.484H336.461C336.852 391.401 337.555 390.859 338.57 390.859C338.831 390.859 339.034 390.891 339.18 390.953V393.227ZM341.438 399.195C341.031 399.195 340.693 399.07 340.422 398.82C340.151 398.57 340.016 398.263 340.016 397.898C340.016 397.523 340.154 397.216 340.43 396.977C340.711 396.737 341.06 396.617 341.477 396.617C341.898 396.617 342.242 396.74 342.508 396.984C342.779 397.224 342.914 397.529 342.914 397.898C342.914 398.279 342.776 398.591 342.5 398.836C342.229 399.076 341.875 399.195 341.438 399.195Z" fill="#626377"/>
<path d="M430.133 399H427.383L426.586 396.508H422.602L421.812 399H419.078L423.156 387.797H426.148L430.133 399ZM426.008 394.57L424.805 390.805C424.716 390.523 424.654 390.188 424.617 389.797H424.555C424.529 390.125 424.464 390.451 424.359 390.773L423.141 394.57H426.008ZM433.789 398.07H433.758V402.68H431.289V391H433.758V392.203H433.789C434.398 391.271 435.255 390.805 436.359 390.805C437.396 390.805 438.195 391.161 438.758 391.875C439.326 392.583 439.609 393.549 439.609 394.773C439.609 396.107 439.279 397.177 438.617 397.984C437.961 398.792 437.086 399.195 435.992 399.195C435.029 399.195 434.294 398.82 433.789 398.07ZM433.719 394.789V395.43C433.719 395.982 433.865 396.432 434.156 396.781C434.448 397.13 434.831 397.305 435.305 397.305C435.867 397.305 436.302 397.089 436.609 396.656C436.922 396.219 437.078 395.602 437.078 394.805C437.078 393.398 436.531 392.695 435.438 392.695C434.932 392.695 434.518 392.888 434.195 393.273C433.878 393.654 433.719 394.159 433.719 394.789ZM446.43 393.227C446.133 393.065 445.786 392.984 445.391 392.984C444.854 392.984 444.435 393.182 444.133 393.578C443.831 393.969 443.68 394.503 443.68 395.18V399H441.211V391H443.68V392.484H443.711C444.102 391.401 444.805 390.859 445.82 390.859C446.081 390.859 446.284 390.891 446.43 390.953V393.227ZM448.688 399.195C448.281 399.195 447.943 399.07 447.672 398.82C447.401 398.57 447.266 398.263 447.266 397.898C447.266 397.523 447.404 397.216 447.68 396.977C447.961 396.737 448.31 396.617 448.727 396.617C449.148 396.617 449.492 396.74 449.758 396.984C450.029 397.224 450.164 397.529 450.164 397.898C450.164 398.279 450.026 398.591 449.75 398.836C449.479 399.076 449.125 399.195 448.688 399.195Z" fill="#626377"/>
<path d="M530.953 394.555C530.953 396.055 530.604 397.203 529.906 398C529.214 398.797 528.208 399.195 526.891 399.195C526.302 399.195 525.758 399.094 525.258 398.891V396.523C525.69 396.852 526.174 397.016 526.711 397.016C527.862 397.016 528.438 396.161 528.438 394.453V387.797H530.953V394.555ZM540.766 399H538.305V397.781H538.266C537.656 398.724 536.841 399.195 535.82 399.195C533.966 399.195 533.039 398.073 533.039 395.828V391H535.5V395.609C535.5 396.74 535.948 397.305 536.844 397.305C537.286 397.305 537.641 397.151 537.906 396.844C538.172 396.531 538.305 396.109 538.305 395.578V391H540.766V399ZM550.578 399H548.117V394.555C548.117 393.315 547.674 392.695 546.789 392.695C546.362 392.695 546.01 392.859 545.734 393.188C545.458 393.516 545.32 393.932 545.32 394.438V399H542.852V391H545.32V392.266H545.352C545.94 391.292 546.797 390.805 547.922 390.805C549.693 390.805 550.578 391.904 550.578 394.102V399ZM559.727 395.703H554.508C554.591 396.865 555.323 397.445 556.703 397.445C557.583 397.445 558.357 397.237 559.023 396.82V398.602C558.284 398.997 557.323 399.195 556.141 399.195C554.849 399.195 553.846 398.839 553.133 398.125C552.419 397.406 552.062 396.406 552.062 395.125C552.062 393.797 552.448 392.745 553.219 391.969C553.99 391.193 554.938 390.805 556.062 390.805C557.229 390.805 558.13 391.151 558.766 391.844C559.406 392.536 559.727 393.477 559.727 394.664V395.703ZM557.438 394.188C557.438 393.042 556.974 392.469 556.047 392.469C555.651 392.469 555.307 392.633 555.016 392.961C554.729 393.289 554.555 393.698 554.492 394.188H557.438Z" fill="#626377"/>
<path d="M641.953 394.555C641.953 396.055 641.604 397.203 640.906 398C640.214 398.797 639.208 399.195 637.891 399.195C637.302 399.195 636.758 399.094 636.258 398.891V396.523C636.69 396.852 637.174 397.016 637.711 397.016C638.862 397.016 639.438 396.161 639.438 394.453V387.797H641.953V394.555ZM651.766 399H649.305V397.781H649.266C648.656 398.724 647.841 399.195 646.82 399.195C644.966 399.195 644.039 398.073 644.039 395.828V391H646.5V395.609C646.5 396.74 646.948 397.305 647.844 397.305C648.286 397.305 648.641 397.151 648.906 396.844C649.172 396.531 649.305 396.109 649.305 395.578V391H651.766V399ZM656.32 399H653.852V387.156H656.32V399ZM666.016 391L662.766 399.641C661.984 401.719 660.807 402.758 659.234 402.758C658.635 402.758 658.143 402.69 657.758 402.555V400.586C658.086 400.779 658.443 400.875 658.828 400.875C659.464 400.875 659.906 400.576 660.156 399.977L660.578 398.984L657.328 391H660.062L661.555 395.867C661.648 396.169 661.721 396.526 661.773 396.938H661.805C661.852 396.635 661.938 396.284 662.062 395.883L663.57 391H666.016Z" fill="#626377"/>
<path d="M752.133 399H749.383L748.586 396.508H744.602L743.812 399H741.078L745.156 387.797H748.148L752.133 399ZM748.008 394.57L746.805 390.805C746.716 390.523 746.654 390.188 746.617 389.797H746.555C746.529 390.125 746.464 390.451 746.359 390.773L745.141 394.57H748.008ZM760.891 399H758.43V397.781H758.391C757.781 398.724 756.966 399.195 755.945 399.195C754.091 399.195 753.164 398.073 753.164 395.828V391H755.625V395.609C755.625 396.74 756.073 397.305 756.969 397.305C757.411 397.305 757.766 397.151 758.031 396.844C758.297 396.531 758.43 396.109 758.43 395.578V391H760.891V399ZM770.82 398.086C770.82 399.57 770.391 400.719 769.531 401.531C768.672 402.349 767.427 402.758 765.797 402.758C764.719 402.758 763.865 402.604 763.234 402.297V400.219C764.057 400.698 764.888 400.938 765.727 400.938C766.56 400.938 767.206 400.716 767.664 400.273C768.122 399.836 768.352 399.24 768.352 398.484V397.852H768.32C767.758 398.747 766.927 399.195 765.828 399.195C764.807 399.195 763.997 398.836 763.398 398.117C762.799 397.398 762.5 396.435 762.5 395.227C762.5 393.872 762.833 392.797 763.5 392C764.167 391.203 765.044 390.805 766.133 390.805C767.107 390.805 767.836 391.18 768.32 391.93H768.352V391H770.82V398.086ZM768.383 395.156V394.523C768.383 394.018 768.232 393.589 767.93 393.234C767.633 392.875 767.245 392.695 766.766 392.695C766.219 392.695 765.789 392.909 765.477 393.336C765.164 393.763 765.008 394.365 765.008 395.141C765.008 395.807 765.156 396.336 765.453 396.727C765.75 397.112 766.156 397.305 766.672 397.305C767.182 397.305 767.594 397.109 767.906 396.719C768.224 396.323 768.383 395.802 768.383 395.156ZM773.984 399.195C773.578 399.195 773.24 399.07 772.969 398.82C772.698 398.57 772.562 398.263 772.562 397.898C772.562 397.523 772.701 397.216 772.977 396.977C773.258 396.737 773.607 396.617 774.023 396.617C774.445 396.617 774.789 396.74 775.055 396.984C775.326 397.224 775.461 397.529 775.461 397.898C775.461 398.279 775.323 398.591 775.047 398.836C774.776 399.076 774.422 399.195 773.984 399.195Z" fill="#626377"/>
<path d="M851.766 398.57V396.07C852.219 396.451 852.711 396.737 853.242 396.93C853.773 397.117 854.31 397.211 854.852 397.211C855.169 397.211 855.445 397.182 855.68 397.125C855.919 397.068 856.117 396.99 856.273 396.891C856.435 396.786 856.555 396.667 856.633 396.531C856.711 396.391 856.75 396.24 856.75 396.078C856.75 395.859 856.688 395.664 856.562 395.492C856.438 395.32 856.266 395.161 856.047 395.016C855.833 394.87 855.578 394.729 855.281 394.594C854.984 394.458 854.664 394.32 854.32 394.18C853.445 393.815 852.792 393.37 852.359 392.844C851.932 392.318 851.719 391.682 851.719 390.938C851.719 390.354 851.836 389.854 852.07 389.438C852.305 389.016 852.622 388.669 853.023 388.398C853.43 388.128 853.898 387.93 854.43 387.805C854.961 387.674 855.523 387.609 856.117 387.609C856.701 387.609 857.216 387.646 857.664 387.719C858.117 387.786 858.534 387.893 858.914 388.039V390.375C858.727 390.245 858.521 390.13 858.297 390.031C858.078 389.932 857.852 389.852 857.617 389.789C857.383 389.721 857.148 389.672 856.914 389.641C856.685 389.609 856.466 389.594 856.258 389.594C855.971 389.594 855.711 389.622 855.477 389.68C855.242 389.732 855.044 389.807 854.883 389.906C854.721 390.005 854.596 390.125 854.508 390.266C854.419 390.401 854.375 390.555 854.375 390.727C854.375 390.914 854.424 391.083 854.523 391.234C854.622 391.38 854.763 391.521 854.945 391.656C855.128 391.786 855.349 391.917 855.609 392.047C855.87 392.172 856.164 392.302 856.492 392.438C856.94 392.625 857.341 392.826 857.695 393.039C858.055 393.247 858.362 393.484 858.617 393.75C858.872 394.016 859.068 394.32 859.203 394.664C859.339 395.003 859.406 395.398 859.406 395.852C859.406 396.477 859.286 397.003 859.047 397.43C858.812 397.852 858.492 398.195 858.086 398.461C857.68 398.721 857.206 398.909 856.664 399.023C856.128 399.138 855.56 399.195 854.961 399.195C854.346 399.195 853.76 399.143 853.203 399.039C852.651 398.935 852.172 398.779 851.766 398.57ZM868.195 395.703H862.977C863.06 396.865 863.792 397.445 865.172 397.445C866.052 397.445 866.826 397.237 867.492 396.82V398.602C866.753 398.997 865.792 399.195 864.609 399.195C863.318 399.195 862.315 398.839 861.602 398.125C860.888 397.406 860.531 396.406 860.531 395.125C860.531 393.797 860.917 392.745 861.688 391.969C862.458 391.193 863.406 390.805 864.531 390.805C865.698 390.805 866.599 391.151 867.234 391.844C867.875 392.536 868.195 393.477 868.195 394.664V395.703ZM865.906 394.188C865.906 393.042 865.443 392.469 864.516 392.469C864.12 392.469 863.776 392.633 863.484 392.961C863.198 393.289 863.023 393.698 862.961 394.188H865.906ZM872.164 398.07H872.133V402.68H869.664V391H872.133V392.203H872.164C872.773 391.271 873.63 390.805 874.734 390.805C875.771 390.805 876.57 391.161 877.133 391.875C877.701 392.583 877.984 393.549 877.984 394.773C877.984 396.107 877.654 397.177 876.992 397.984C876.336 398.792 875.461 399.195 874.367 399.195C873.404 399.195 872.669 398.82 872.164 398.07ZM872.094 394.789V395.43C872.094 395.982 872.24 396.432 872.531 396.781C872.823 397.13 873.206 397.305 873.68 397.305C874.242 397.305 874.677 397.089 874.984 396.656C875.297 396.219 875.453 395.602 875.453 394.805C875.453 393.398 874.906 392.695 873.812 392.695C873.307 392.695 872.893 392.888 872.57 393.273C872.253 393.654 872.094 394.159 872.094 394.789ZM880.688 399.195C880.281 399.195 879.943 399.07 879.672 398.82C879.401 398.57 879.266 398.263 879.266 397.898C879.266 397.523 879.404 397.216 879.68 396.977C879.961 396.737 880.31 396.617 880.727 396.617C881.148 396.617 881.492 396.74 881.758 396.984C882.029 397.224 882.164 397.529 882.164 397.898C882.164 398.279 882.026 398.591 881.75 398.836C881.479 399.076 881.125 399.195 880.688 399.195Z" fill="#626377"/>
<g filter="url(#filter0_d_83_218)">
<rect x="807" y="36" width="120" height="73" rx="8" fill="white"/>
<path d="M838.371 62H833.285V52.1973H834.434V60.9609H838.371V62ZM844.735 62H843.614V60.9062H843.587C843.099 61.7448 842.382 62.1641 841.434 62.1641C840.736 62.1641 840.189 61.9795 839.793 61.6104C839.401 61.2412 839.205 60.7513 839.205 60.1406C839.205 58.8327 839.975 58.0716 841.516 57.8574L843.614 57.5635C843.614 56.374 843.133 55.7793 842.172 55.7793C841.329 55.7793 840.568 56.0664 839.889 56.6406V55.4922C840.577 55.0547 841.37 54.8359 842.268 54.8359C843.913 54.8359 844.735 55.7064 844.735 57.4473V62ZM843.614 58.459L841.926 58.6914C841.406 58.7643 841.014 58.8942 840.75 59.0811C840.486 59.2633 840.354 59.5892 840.354 60.0586C840.354 60.4004 840.474 60.6807 840.716 60.8994C840.962 61.1136 841.288 61.2207 841.693 61.2207C842.249 61.2207 842.707 61.027 843.067 60.6396C843.432 60.2477 843.614 59.7533 843.614 59.1562V58.459ZM846.424 61.7471V60.5439C847.035 60.9951 847.707 61.2207 848.44 61.2207C849.425 61.2207 849.917 60.8926 849.917 60.2363C849.917 60.0495 849.874 59.8923 849.787 59.7646C849.705 59.6325 849.591 59.5163 849.445 59.416C849.304 59.3158 849.135 59.2269 848.939 59.1494C848.748 59.0674 848.541 58.9831 848.317 58.8965C848.007 58.7734 847.734 58.6504 847.497 58.5273C847.265 58.3997 847.069 58.2585 846.909 58.1035C846.754 57.944 846.636 57.764 846.554 57.5635C846.476 57.363 846.438 57.1283 846.438 56.8594C846.438 56.5312 846.513 56.2419 846.663 55.9912C846.813 55.736 847.014 55.5241 847.265 55.3555C847.515 55.1823 847.8 55.0524 848.119 54.9658C848.443 54.8792 848.775 54.8359 849.117 54.8359C849.723 54.8359 850.266 54.9408 850.744 55.1504V56.2852C850.229 55.9479 849.637 55.7793 848.967 55.7793C848.757 55.7793 848.568 55.8044 848.399 55.8545C848.231 55.9001 848.085 55.9661 847.962 56.0527C847.843 56.1393 847.75 56.2441 847.682 56.3672C847.618 56.4857 847.586 56.6178 847.586 56.7637C847.586 56.946 847.618 57.0986 847.682 57.2217C847.75 57.3447 847.848 57.4541 847.976 57.5498C848.103 57.6455 848.258 57.7321 848.44 57.8096C848.623 57.887 848.83 57.9714 849.062 58.0625C849.372 58.181 849.65 58.304 849.896 58.4316C850.143 58.5547 850.352 58.696 850.525 58.8555C850.699 59.0104 850.831 59.1904 850.922 59.3955C851.018 59.6006 851.065 59.8444 851.065 60.127C851.065 60.4733 850.988 60.7741 850.833 61.0293C850.683 61.2845 850.48 61.4964 850.225 61.665C849.969 61.8337 849.675 61.959 849.343 62.041C849.01 62.123 848.661 62.1641 848.297 62.1641C847.577 62.1641 846.952 62.0251 846.424 61.7471ZM856.042 61.9316C855.778 62.0775 855.429 62.1504 854.996 62.1504C853.77 62.1504 853.157 61.4668 853.157 60.0996V55.957H851.954V55H853.157V53.291L854.278 52.9287V55H856.042V55.957H854.278V59.9014C854.278 60.3708 854.358 60.7057 854.518 60.9062C854.677 61.1068 854.941 61.207 855.311 61.207C855.593 61.207 855.837 61.1296 856.042 60.9746V61.9316ZM871.525 62H870.384V55.4238C870.384 54.9043 870.416 54.2686 870.479 53.5166H870.452C870.343 53.9587 870.245 54.2754 870.158 54.4668L866.809 62H866.248L862.905 54.5215C862.81 54.3027 862.712 53.9678 862.611 53.5166H862.584C862.62 53.9085 862.639 54.5488 862.639 55.4375V62H861.531V52.1973H863.049L866.057 59.0332C866.289 59.5573 866.439 59.9492 866.508 60.209H866.549C866.745 59.6712 866.902 59.2702 867.021 59.0059L870.09 52.1973H871.525V62ZM876.885 62.1641C875.85 62.1641 875.023 61.8382 874.403 61.1865C873.788 60.5303 873.48 59.6621 873.48 58.582C873.48 57.4062 873.802 56.488 874.444 55.8271C875.087 55.1663 875.955 54.8359 877.049 54.8359C878.092 54.8359 878.906 55.1572 879.489 55.7998C880.077 56.4424 880.371 57.3333 880.371 58.4727C880.371 59.5892 880.054 60.4847 879.421 61.1592C878.792 61.8291 877.947 62.1641 876.885 62.1641ZM876.967 55.7793C876.247 55.7793 875.677 56.0254 875.258 56.5176C874.839 57.0052 874.629 57.6797 874.629 58.541C874.629 59.3704 874.841 60.0244 875.265 60.5029C875.688 60.9814 876.256 61.2207 876.967 61.2207C877.691 61.2207 878.247 60.986 878.635 60.5166C879.027 60.0472 879.223 59.3796 879.223 58.5137C879.223 57.6387 879.027 56.9642 878.635 56.4902C878.247 56.0163 877.691 55.7793 876.967 55.7793ZM887.973 62H886.852V58.0078C886.852 56.5221 886.309 55.7793 885.225 55.7793C884.664 55.7793 884.199 55.9912 883.83 56.415C883.465 56.8343 883.283 57.3652 883.283 58.0078V62H882.162V55H883.283V56.1621H883.311C883.839 55.278 884.605 54.8359 885.607 54.8359C886.373 54.8359 886.959 55.0843 887.364 55.5811C887.77 56.0732 887.973 56.7865 887.973 57.7207V62ZM893.339 61.9316C893.075 62.0775 892.726 62.1504 892.293 62.1504C891.067 62.1504 890.454 61.4668 890.454 60.0996V55.957H889.251V55H890.454V53.291L891.575 52.9287V55H893.339V55.957H891.575V59.9014C891.575 60.3708 891.655 60.7057 891.814 60.9062C891.974 61.1068 892.238 61.207 892.607 61.207C892.89 61.207 893.134 61.1296 893.339 60.9746V61.9316ZM900.646 62H899.525V57.9668C899.525 56.5085 898.983 55.7793 897.898 55.7793C897.352 55.7793 896.891 55.9912 896.518 56.415C896.144 56.8343 895.957 57.3743 895.957 58.0352V62H894.836V51.6367H895.957V56.1621H895.984C896.522 55.278 897.288 54.8359 898.281 54.8359C899.858 54.8359 900.646 55.7861 900.646 57.6865V62Z" fill="#FB18EE"/>
<path d="M836.898 91.9062V94.4492H835.188V91.9766C833.602 91.9688 832.125 91.6094 830.758 90.8984V87.6523C831.211 88.0195 831.887 88.3594 832.785 88.6719C833.684 88.9844 834.484 89.1641 835.188 89.2109V84.9453C833.359 84.2656 832.109 83.5312 831.438 82.7422C830.773 81.9453 830.441 80.9766 830.441 79.8359C830.441 78.6094 830.875 77.5664 831.742 76.707C832.609 75.8398 833.758 75.3359 835.188 75.1953V73.0156H836.898V75.1484C838.547 75.2266 839.777 75.4922 840.59 75.9453V79.1094C839.496 78.4453 838.266 78.0391 836.898 77.8906V82.332C838.609 82.9492 839.836 83.6562 840.578 84.4531C841.32 85.2422 841.691 86.1992 841.691 87.3242C841.691 88.6211 841.277 89.668 840.449 90.4648C839.621 91.2539 838.438 91.7344 836.898 91.9062ZM835.188 81.6523V77.9375C834.102 78.1328 833.559 78.6992 833.559 79.6367C833.559 80.4414 834.102 81.1133 835.188 81.6523ZM836.898 85.6133V89.1641C838.016 88.9922 838.574 88.4336 838.574 87.4883C838.574 86.7227 838.016 86.0977 836.898 85.6133ZM852.555 74.8203V92H848.863V78.9922C848.66 79.1719 848.418 79.3438 848.137 79.5078C847.863 79.6641 847.57 79.8086 847.258 79.9414C846.945 80.0664 846.621 80.1758 846.285 80.2695C845.949 80.3555 845.617 80.418 845.289 80.457V77.3398C846.25 77.0586 847.156 76.6992 848.008 76.2617C848.859 75.8242 849.629 75.3438 850.316 74.8203H852.555ZM861.672 89.0469L859.949 94.9766H857.066L858.262 89.0469H861.672ZM868.152 88.9297H875.277V92H864.098V90.7344C864.098 89.875 864.242 89.1055 864.531 88.4258C864.82 87.7383 865.184 87.125 865.621 86.5859C866.059 86.0391 866.535 85.5586 867.051 85.1445C867.574 84.7227 868.07 84.3438 868.539 84.0078C869.031 83.6562 869.461 83.3203 869.828 83C870.203 82.6797 870.516 82.3633 870.766 82.0508C871.023 81.7305 871.215 81.4102 871.34 81.0898C871.465 80.7617 871.527 80.4141 871.527 80.0469C871.527 79.3281 871.324 78.7852 870.918 78.418C870.512 78.0508 869.891 77.8672 869.055 77.8672C867.609 77.8672 866.227 78.4414 864.906 79.5898V76.332C866.367 75.3867 868.016 74.9141 869.852 74.9141C870.703 74.9141 871.465 75.0273 872.137 75.2539C872.816 75.4727 873.391 75.7891 873.859 76.2031C874.328 76.6172 874.684 77.1211 874.926 77.7148C875.176 78.3008 875.301 78.957 875.301 79.6836C875.301 80.457 875.18 81.1445 874.938 81.7461C874.703 82.3477 874.387 82.8945 873.988 83.3867C873.598 83.8789 873.145 84.332 872.629 84.7461C872.113 85.1523 871.578 85.5469 871.023 85.9297C870.648 86.1953 870.285 86.4609 869.934 86.7266C869.59 86.9844 869.285 87.2422 869.02 87.5C868.754 87.75 868.543 87.9961 868.387 88.2383C868.23 88.4805 868.152 88.7109 868.152 88.9297ZM883.738 92.293C879.738 92.293 877.738 89.4844 877.738 83.8672C877.738 80.9531 878.277 78.7344 879.355 77.2109C880.441 75.6797 882.012 74.9141 884.066 74.9141C887.973 74.9141 889.926 77.7695 889.926 83.4805C889.926 86.3242 889.391 88.5039 888.32 90.0195C887.258 91.5352 885.73 92.293 883.738 92.293ZM883.902 77.7383C882.301 77.7383 881.5 79.75 881.5 83.7734C881.5 87.5625 882.285 89.457 883.855 89.457C885.387 89.457 886.152 87.5039 886.152 83.5977C886.152 79.6914 885.402 77.7383 883.902 77.7383ZM891.672 87.4766C891.672 87.0078 891.738 86.5586 891.871 86.1289C892.012 85.6914 892.219 85.2891 892.492 84.9219C892.766 84.5469 893.105 84.2148 893.512 83.9258C893.926 83.6289 894.41 83.3867 894.965 83.1992C894.113 82.7773 893.453 82.2383 892.984 81.582C892.516 80.918 892.281 80.1836 892.281 79.3789C892.281 78.7383 892.414 78.1445 892.68 77.5977C892.953 77.0508 893.328 76.5781 893.805 76.1797C894.281 75.7812 894.848 75.4727 895.504 75.2539C896.168 75.0273 896.891 74.9141 897.672 74.9141C898.469 74.9141 899.199 75.0273 899.863 75.2539C900.527 75.4727 901.098 75.7812 901.574 76.1797C902.059 76.5703 902.434 77.0352 902.699 77.5742C902.965 78.1133 903.098 78.6992 903.098 79.332C903.098 80.1289 902.848 80.8555 902.348 81.5117C901.848 82.1602 901.156 82.6953 900.273 83.1172C900.82 83.3047 901.301 83.5469 901.715 83.8438C902.129 84.1328 902.477 84.4648 902.758 84.8398C903.039 85.2148 903.25 85.625 903.391 86.0703C903.531 86.5078 903.602 86.9648 903.602 87.4414C903.602 88.1602 903.457 88.8164 903.168 89.4102C902.879 89.9961 902.469 90.5039 901.938 90.9336C901.414 91.3555 900.785 91.6836 900.051 91.918C899.324 92.1523 898.52 92.2695 897.637 92.2695C896.77 92.2695 895.969 92.1562 895.234 91.9297C894.508 91.6953 893.879 91.3672 893.348 90.9453C892.824 90.5234 892.414 90.0195 892.117 89.4336C891.82 88.8398 891.672 88.1875 891.672 87.4766ZM895.176 87.1602C895.176 87.543 895.234 87.8867 895.352 88.1914C895.469 88.4961 895.637 88.7539 895.855 88.9648C896.074 89.1758 896.332 89.3398 896.629 89.457C896.934 89.5664 897.273 89.6211 897.648 89.6211C898.008 89.6211 898.336 89.5625 898.633 89.4453C898.938 89.3281 899.199 89.1641 899.418 88.9531C899.637 88.7422 899.809 88.4844 899.934 88.1797C900.059 87.875 900.121 87.5352 900.121 87.1602C900.121 86.8242 900.062 86.5039 899.945 86.1992C899.828 85.8945 899.66 85.6328 899.441 85.4141C899.223 85.1875 898.961 85.0078 898.656 84.875C898.359 84.7422 898.023 84.6758 897.648 84.6758C897.297 84.6758 896.969 84.7383 896.664 84.8633C896.359 84.9805 896.098 85.1523 895.879 85.3789C895.66 85.5977 895.488 85.8594 895.363 86.1641C895.238 86.4688 895.176 86.8008 895.176 87.1602ZM895.691 79.7188C895.691 80.0156 895.742 80.2969 895.844 80.5625C895.953 80.8203 896.098 81.0469 896.277 81.2422C896.457 81.4297 896.668 81.5781 896.91 81.6875C897.16 81.7969 897.422 81.8516 897.695 81.8516C897.977 81.8516 898.238 81.7969 898.48 81.6875C898.723 81.5781 898.934 81.4258 899.113 81.2305C899.301 81.0352 899.445 80.8086 899.547 80.5508C899.656 80.293 899.711 80.0156 899.711 79.7188C899.711 79.4141 899.66 79.1328 899.559 78.875C899.457 78.6094 899.312 78.3828 899.125 78.1953C898.945 78 898.73 77.8477 898.48 77.7383C898.238 77.6289 897.977 77.5742 897.695 77.5742C897.398 77.5742 897.125 77.6328 896.875 77.75C896.633 77.8594 896.422 78.0117 896.242 78.207C896.07 78.3945 895.934 78.6211 895.832 78.8867C895.738 79.1445 895.691 79.4219 895.691 79.7188Z" fill="#FB18EE"/>
</g>
<g filter="url(#filter1_d_83_218)">
<circle cx="867" cy="135" r="6" fill="#D9D9D9"/>
<circle cx="867" cy="135" r="8" stroke="#FB18EE" stroke-width="4"/>
</g>
<defs>
<filter id="filter0_d_83_218" x="767" y="0" width="200" height="153" filterUnits="userSpaceOnUse" color-interpolation-filters="sRGB">
<feFlood flood-opacity="0" result="BackgroundImageFix"/>
<feColorMatrix in="SourceAlpha" type="matrix" values="0 0 0 0 0 0 0 0 0 0 0 0 0 0 0 0 0 0 127 0" result="hardAlpha"/>
<feOffset dy="4"/>
<feGaussianBlur stdDeviation="20"/>
<feComposite in2="hardAlpha" operator="out"/>
<feColorMatrix type="matrix" values="0 0 0 0 0 0 0 0 0 0 0 0 0 0 0 0 0 0 0.25 0"/>
<feBlend mode="normal" in2="BackgroundImageFix" result="effect1_dropShadow_83_218"/>
<feBlend mode="normal" in="SourceGraphic" in2="effect1_dropShadow_83_218" result="shape"/>
</filter>
<filter id="filter1_d_83_218" x="829" y="97" width="76" height="76" filterUnits="userSpaceOnUse" color-interpolation-filters="sRGB">
<feFlood flood-opacity="0" result="BackgroundImageFix"/>
<feColorMatrix in="SourceAlpha" type="matrix" values="0 0 0 0 0 0 0 0 0 0 0 0 0 0 0 0 0 0 127 0" result="hardAlpha"/>
<feOffset/>
<feGaussianBlur stdDeviation="14"/>
<feComposite in2="hardAlpha" operator="out"/>
<feColorMatrix type="matrix" values="0 0 0 0 0 0 0 0 0 0 0 0 0 0 0 0 0 0 0.25 0"/>
<feBlend mode="normal" in2="BackgroundImageFix" result="effect1_dropShadow_83_218"/>
<feBlend mode="normal" in="SourceGraphic" in2="effect1_dropShadow_83_218" result="shape"/>
</filter>
<linearGradient id="paint0_linear_83_218" x1="111" y1="178" x2="111" y2="374" gradientUnits="userSpaceOnUse">
<stop stop-color="#4FB1F6"/>
<stop offset="1" stop-color="#4FB1F6" stop-opacity="0.1"/>
</linearGradient>
<linearGradient id="paint1_linear_83_218" x1="219" y1="134" x2="219" y2="374" gradientUnits="userSpaceOnUse">
<stop stop-color="#4FB1F6"/>
<stop offset="1" stop-color="#4FB1F6" stop-opacity="0.1"/>
</linearGradient>
<linearGradient id="paint2_linear_83_218" x1="327" y1="165" x2="327" y2="374" gradientUnits="userSpaceOnUse">
<stop stop-color="#4FB1F6"/>
<stop offset="1" stop-color="#4FB1F6" stop-opacity="0.1"/>
</linearGradient>
<linearGradient id="paint3_linear_83_218" x1="435" y1="78" x2="435" y2="374" gradientUnits="userSpaceOnUse">
<stop stop-color="#4FB1F6"/>
<stop offset="1" stop-color="#4FB1F6" stop-opacity="0.1"/>
</linearGradient>
<linearGradient id="paint4_linear_83_218" x1="543" y1="188" x2="543" y2="374" gradientUnits="userSpaceOnUse">
<stop stop-color="#4FB1F6"/>
<stop offset="1" stop-color="#4FB1F6" stop-opacity="0.1"/>
</linearGradient>
<linearGradient id="paint5_linear_83_218" x1="651" y1="54" x2="651" y2="374" gradientUnits="userSpaceOnUse">
<stop stop-color="#4FB1F6"/>
<stop offset="1" stop-color="#4FB1F6" stop-opacity="0.1"/>
</linearGradient>
<linearGradient id="paint6_linear_83_218" x1="759" y1="118" x2="759" y2="374" gradientUnits="userSpaceOnUse">
<stop stop-color="#4FB1F6"/>
<stop offset="1" stop-color="#4FB1F6" stop-opacity="0.1"/>
</linearGradient>
<linearGradient id="paint7_linear_83_218" x1="867" y1="134" x2="867" y2="374" gradientUnits="userSpaceOnUse">
<stop stop-color="#FB18EE"/>
<stop offset="1" stop-color="#FB18EE" stop-opacity="0.1"/>
</linearGradient>
</defs>
</svg>
