<svg width="68" height="68" viewBox="0 0 68 68" fill="none" xmlns="http://www.w3.org/2000/svg">
<rect width="68" height="68" rx="4" fill="black" fill-opacity="0.3"/>
<path d="M24 16.5L17.75 24H21.5V30.25H26.5V24H30.25L24 16.5ZM41.5 16.5V22.75H37.75L44 30.25L50.25 22.75H46.5V16.5H41.5ZM47.7575 32.5081C47.345 32.5175 46.9597 32.697 46.4341 33.2578L45.9214 33.8023L45.3891 33.2773C44.812 32.7085 44.3566 32.5515 43.895 32.5718C43.4334 32.5921 42.8907 32.8347 42.2837 33.326L41.7978 33.7191L41.3364 33.2991C40.6411 32.6701 40.0485 32.4837 39.4809 32.513C39.0678 32.5345 38.6391 32.6901 38.2114 32.9623L41.4121 38.7191C42.6195 39.4575 45.0866 39.7354 46.7832 38.8804L49.8765 33.1502C49.2898 32.911 48.7624 32.6659 48.3066 32.5718C48.1416 32.5377 47.9884 32.5126 47.8402 32.5081C47.8126 32.5074 47.785 32.5074 47.7574 32.5081H47.7575ZM20.875 32.75C17.75 32.75 17.75 32.75 17.75 35.875V48.3793C17.75 51.5 17.75 51.5 20.875 51.5H27.125C30.25 51.5 30.25 51.5 30.25 48.375V35.875C30.25 32.75 30.25 32.75 27.125 32.75H20.875ZM40.7285 40.023V40.0231C39.3195 41.0186 38.1882 42.7354 37.75 45.25C37.3254 47.6872 37.9943 49.3331 39.1782 50.4549C40.3622 51.5768 42.1393 52.1532 43.9438 52.1298C45.7485 52.1063 47.5482 51.4805 48.7583 50.3379C49.9684 49.1952 50.6529 47.5703 50.2648 45.2451C49.8634 42.8422 48.8272 41.1711 47.5155 40.1597C45.2903 41.3359 42.5082 41.0859 40.7285 40.023Z" fill="#000600"/>
</svg>
