<svg width="56" height="56" viewBox="0 0 56 56" fill="none" xmlns="http://www.w3.org/2000/svg">
<path fill-rule="evenodd" clip-rule="evenodd" d="M31.7989 11.5867C31.1822 11.3333 30.3989 11.3333 28.8339 11.3333C27.2689 11.3333 26.4872 11.3333 25.8689 11.5867C25.0479 11.9237 24.3945 12.5729 24.0522 13.3917C23.8955 13.7633 23.8355 14.1983 23.8105 14.83C23.7994 15.2877 23.6717 15.7349 23.4396 16.1295C23.2075 16.5241 22.8785 16.853 22.4839 17.085C22.0818 17.3085 21.6298 17.4269 21.1697 17.4292C20.7097 17.4316 20.2565 17.3178 19.8522 17.0983C19.2889 16.8017 18.8805 16.6383 18.4772 16.585C17.5948 16.4691 16.7023 16.7063 15.9939 17.245C15.4639 17.6483 15.0722 18.3217 14.2905 19.6667C13.5072 21.0117 13.1172 21.6833 13.0289 22.3417C12.9122 23.2183 13.1522 24.105 13.6955 24.8067C13.9422 25.1267 14.2905 25.395 14.8289 25.7317C15.6239 26.2267 16.1339 27.07 16.1339 28C16.1339 28.93 15.6239 29.7733 14.8305 30.2667C14.2905 30.605 13.9422 30.8733 13.6939 31.1933C13.4257 31.5399 13.2288 31.9362 13.1147 32.3593C13.0005 32.7824 12.9714 33.2239 13.0289 33.6583C13.1172 34.315 13.5072 34.9883 14.2905 36.3333C15.0739 37.6783 15.4639 38.35 15.9939 38.755C16.7005 39.2933 17.5939 39.53 18.4772 39.415C18.8805 39.3617 19.2889 39.1983 19.8522 38.9017C20.2567 38.682 20.7102 38.568 21.1706 38.5703C21.6309 38.5726 22.0832 38.6912 22.4855 38.915C23.2955 39.3817 23.7755 40.24 23.8105 41.17C23.8355 41.8033 23.8955 42.2367 24.0522 42.6083C24.3922 43.425 25.0455 44.075 25.8689 44.4133C26.4855 44.6667 27.2689 44.6667 28.8339 44.6667C30.3989 44.6667 31.1822 44.6667 31.7989 44.4133C32.6198 44.0763 33.2732 43.4271 33.6155 42.6083C33.7722 42.2367 33.8322 41.8033 33.8572 41.17C33.8905 40.24 34.3722 39.38 35.1839 38.915C35.586 38.6915 36.038 38.5731 36.498 38.5708C36.958 38.5684 37.4112 38.6822 37.8155 38.9017C38.3789 39.1983 38.7872 39.3617 39.1905 39.415C40.0739 39.5317 40.9672 39.2933 41.6739 38.755C42.2039 38.3517 42.5955 37.6783 43.3772 36.3333C44.1605 34.9883 44.5505 34.3167 44.6389 33.6583C44.6961 33.2238 44.6667 32.7822 44.5523 32.3591C44.4378 31.936 44.2407 31.5398 43.9722 31.1933C43.7255 30.8733 43.3772 30.605 42.8389 30.2683C42.0439 29.7733 41.5339 28.93 41.5339 28C41.5339 27.07 42.0439 26.2267 42.8372 25.7333C43.3772 25.395 43.7255 25.1267 43.9739 24.8067C44.2421 24.4601 44.4389 24.0638 44.5531 23.6407C44.6672 23.2176 44.6964 22.7761 44.6389 22.3417C44.5505 21.685 44.1605 21.0117 43.3772 19.6667C42.5939 18.3217 42.2039 17.65 41.6739 17.245C40.9654 16.7063 40.0729 16.4691 39.1905 16.585C38.7872 16.6383 38.3789 16.8017 37.8155 17.0983C37.411 17.318 36.9575 17.432 36.4971 17.4297C36.0368 17.4274 35.5845 17.3088 35.1822 17.085C34.7879 16.8528 34.4592 16.5238 34.2274 16.1293C33.9955 15.7347 33.8681 15.2875 33.8572 14.83C33.8322 14.1967 33.7722 13.7633 33.6155 13.3917C33.4461 12.9862 33.1985 12.6181 32.8868 12.3084C32.5751 11.9987 32.2054 11.7535 31.7989 11.5867ZM28.8339 33C31.6172 33 33.8722 30.7617 33.8722 28C33.8722 25.2383 31.6155 23 28.8339 23C26.0505 23 23.7955 25.2383 23.7955 28C23.7955 30.7617 26.0522 33 28.8339 33Z" fill="white"/>
</svg>
