<svg width="40" height="40" viewBox="0 0 40 40" fill="none" xmlns="http://www.w3.org/2000/svg">
<path d="M6.29662 6.09165C5.99496 6.69165 5.84662 7.43498 5.54996 8.91831L4.55329 13.9016C4.41204 14.5811 4.41094 15.2822 4.55008 15.9621C4.68921 16.642 4.96563 17.2864 5.36244 17.8557C5.75924 18.4251 6.26807 18.9075 6.85777 19.2733C7.44748 19.6392 8.10565 19.8809 8.792 19.9836C9.47834 20.0862 10.1784 20.0478 10.8494 19.8705C11.5203 19.6932 12.1481 19.3808 12.6941 18.9525C13.2402 18.5242 13.693 17.989 14.025 17.3795C14.3571 16.7701 14.5612 16.0994 14.625 15.4083L14.7416 14.2583C14.6785 14.9897 14.7686 15.7262 15.0062 16.4208C15.2438 17.1154 15.6237 17.7529 16.1216 18.2923C16.6195 18.8318 17.2244 19.2615 17.8978 19.5539C18.5711 19.8464 19.2981 19.9951 20.0322 19.9907C20.7663 19.9863 21.4914 19.8288 22.1612 19.5282C22.831 19.2277 23.4307 18.7908 23.9221 18.2453C24.4134 17.6999 24.7856 17.058 25.0148 16.3605C25.244 15.6631 25.3253 14.9256 25.2533 14.195L25.375 15.4083C25.4387 16.0994 25.6429 16.7701 25.9749 17.3795C26.3069 17.989 26.7598 18.5242 27.3058 18.9525C27.8519 19.3808 28.4796 19.6932 29.1505 19.8705C29.8215 20.0478 30.5216 20.0862 31.2079 19.9836C31.8943 19.8809 32.5524 19.6392 33.1421 19.2733C33.7318 18.9075 34.2407 18.4251 34.6375 17.8557C35.0343 17.2864 35.3107 16.642 35.4498 15.9621C35.589 15.2822 35.5879 14.5811 35.4466 13.9016L34.45 8.91831C34.1533 7.43498 34.005 6.69331 33.7033 6.09165C33.389 5.46504 32.9464 4.91154 32.4043 4.46706C31.8622 4.02259 31.2327 3.69707 30.5566 3.51165C29.9066 3.33331 29.15 3.33331 27.6366 3.33331H12.3633C10.85 3.33331 10.0933 3.33331 9.44329 3.51165C8.76724 3.69707 8.13773 4.02259 7.59563 4.46706C7.05353 4.91154 6.61095 5.46504 6.29662 6.09165ZM30.4483 22.5C31.7505 22.5033 33.0314 22.1697 34.1666 21.5316V23.3333C34.1666 29.6183 34.1666 32.7616 32.2133 34.7133C30.6416 36.2866 28.3 36.5916 24.1666 36.6516V30.8333C24.1666 29.275 24.1666 28.4966 23.8316 27.9166C23.6122 27.5366 23.2966 27.2211 22.9166 27.0016C22.3366 26.6666 21.5583 26.6666 20 26.6666C18.4416 26.6666 17.6633 26.6666 17.0833 27.0016C16.7033 27.2211 16.3877 27.5366 16.1683 27.9166C15.8333 28.4966 15.8333 29.275 15.8333 30.8333V36.6516C11.7 36.5916 9.35829 36.285 7.78662 34.7133C5.83329 32.7616 5.83329 29.6183 5.83329 23.3333V21.5316C6.96898 22.17 8.25051 22.5036 9.55329 22.5C11.4794 22.5014 13.3338 21.7696 14.74 20.4533C16.1731 21.7734 18.0515 22.5043 20 22.5C21.9484 22.5041 23.8267 21.7733 25.26 20.4533C26.6661 21.7696 28.5222 22.5014 30.4483 22.5Z" fill="#CECECE"/>
</svg>
