<svg width="40" height="40" viewBox="0 0 40 40" fill="none" xmlns="http://www.w3.org/2000/svg">
<path fill-rule="evenodd" clip-rule="evenodd" d="M15.9869 5.33334C15.7248 5.57052 15.4493 5.79255 15.1619 5.99834C14.6652 6.33167 14.1069 6.56167 13.5202 6.67834C13.2652 6.72834 12.9986 6.75 12.4669 6.79167C11.1319 6.89834 10.4636 6.95167 9.9069 7.14834C9.2704 7.37307 8.69229 7.73745 8.21498 8.21475C7.73768 8.69206 7.3733 9.27017 7.14857 9.90667C6.9519 10.4633 6.89857 11.1317 6.7919 12.4667C6.77372 12.8196 6.73588 13.1713 6.67857 13.52C6.5619 14.1067 6.3319 14.665 5.99857 15.1617C5.85357 15.3783 5.68023 15.5817 5.33357 15.9867C4.46523 17.0067 4.03023 17.5167 3.77523 18.05C3.1869 19.2833 3.1869 20.7167 3.77523 21.95C4.03023 22.4833 4.46523 22.9933 5.33357 24.0133C5.68023 24.4183 5.85357 24.6217 5.99857 24.8383C6.3319 25.335 6.5619 25.8933 6.67857 26.48C6.72857 26.735 6.75023 27.0017 6.7919 27.5333C6.89857 28.8683 6.9519 29.5367 7.14857 30.0933C7.3733 30.7298 7.73768 31.3079 8.21498 31.7853C8.69229 32.2626 9.2704 32.6269 9.9069 32.8517C10.4636 33.0483 11.1319 33.1017 12.4669 33.2083C12.9986 33.25 13.2652 33.2717 13.5202 33.3217C14.1069 33.4383 14.6652 33.67 15.1619 34.0017C15.3786 34.1467 15.5819 34.32 15.9869 34.6667C17.0069 35.535 17.5169 35.97 18.0502 36.225C19.2836 36.8133 20.7169 36.8133 21.9502 36.225C22.4836 35.97 22.9936 35.535 24.0136 34.6667C24.4186 34.32 24.6219 34.1467 24.8386 34.0017C25.3352 33.6683 25.8936 33.4383 26.4802 33.3217C26.7352 33.2717 27.0019 33.25 27.5336 33.2083C28.8686 33.1017 29.5369 33.0483 30.0936 32.8517C30.7301 32.6269 31.3082 32.2626 31.7855 31.7853C32.2628 31.3079 32.6272 30.7298 32.8519 30.0933C33.0486 29.5367 33.1019 28.8683 33.2086 27.5333C33.2502 27.0017 33.2719 26.735 33.3219 26.48C33.4386 25.8933 33.6702 25.335 34.0019 24.8383C34.1469 24.6217 34.3202 24.4183 34.6669 24.0133C35.5352 22.9933 35.9702 22.4833 36.2252 21.95C36.8136 20.7167 36.8136 19.2833 36.2252 18.05C35.9702 17.5167 35.5352 17.0067 34.6669 15.9867C34.4297 15.7245 34.2077 15.4491 34.0019 15.1617C33.6689 14.6648 33.4378 14.1068 33.3219 13.52C33.2646 13.1713 33.2268 12.8196 33.2086 12.4667C33.1019 11.1317 33.0486 10.4633 32.8519 9.90667C32.6272 9.27017 32.2628 8.69206 31.7855 8.21475C31.3082 7.73745 30.7301 7.37307 30.0936 7.14834C29.5369 6.95167 28.8686 6.89834 27.5336 6.79167C27.1806 6.77349 26.829 6.73565 26.4802 6.67834C25.8934 6.56248 25.3354 6.33135 24.8386 5.99834C24.5515 5.79211 24.276 5.5701 24.0136 5.33334C22.9936 4.465 22.4836 4.03 21.9502 3.775C21.3414 3.48397 20.6751 3.33292 20.0002 3.33292C19.3254 3.33292 18.6591 3.48397 18.0502 3.775C17.5169 4.03 17.0069 4.465 15.9869 5.33334ZM27.2886 16.4383C27.5241 16.1805 27.6512 15.8418 27.6433 15.4927C27.6354 15.1435 27.4932 14.8109 27.2463 14.5639C26.9994 14.317 26.6667 14.1748 26.3176 14.1669C25.9684 14.159 25.6297 14.2861 25.3719 14.5217L17.2886 22.605L14.6286 19.9467C14.3707 19.7111 14.032 19.584 13.6829 19.5919C13.3338 19.5998 13.0011 19.742 12.7542 19.9889C12.5072 20.2359 12.365 20.5685 12.3571 20.9177C12.3493 21.2668 12.4763 21.6055 12.7119 21.8633L16.3286 25.48C16.5829 25.7338 16.9276 25.8764 17.2869 25.8764C17.6462 25.8764 17.9909 25.7338 18.2452 25.48L27.2886 16.4383Z" fill="#22A1FE"/>
</svg>
