<svg width="64" height="64" viewBox="0 0 64 64" fill="none" xmlns="http://www.w3.org/2000/svg">
<g clip-path="url(#clip0_73_2735)">
<path d="M21.9817 19.5733L4.96835 22.04L4.66702 22.1013C4.21086 22.2224 3.79501 22.4624 3.46193 22.7968C3.12886 23.1312 2.89049 23.5479 2.77118 24.0046C2.65187 24.4612 2.65589 24.9413 2.78283 25.3959C2.90976 25.8505 3.15506 26.2632 3.49369 26.592L15.819 38.5893L12.9124 55.536L12.8777 55.8293C12.8498 56.3011 12.9477 56.7718 13.1616 57.1933C13.3754 57.6148 13.6974 57.9719 14.0946 58.228C14.4918 58.4841 14.9499 58.6301 15.4221 58.6509C15.8942 58.6718 16.3635 58.5668 16.7817 58.3466L31.9977 50.3466L47.179 58.3466L47.4457 58.4693C47.8858 58.6427 48.3642 58.6958 48.8317 58.6233C49.2992 58.5508 49.739 58.3553 50.1059 58.0567C50.4729 57.7581 50.7538 57.3673 50.9199 56.9243C51.086 56.4814 51.1312 56.0022 51.051 55.536L48.1417 38.5893L60.4724 26.5893L60.6804 26.3626C60.9775 25.9967 61.1723 25.5585 61.2449 25.0928C61.3176 24.627 61.2655 24.1503 61.0939 23.7113C60.9224 23.2722 60.6375 22.8865 60.2683 22.5933C59.8991 22.3002 59.4589 22.1102 58.9924 22.0426L41.979 19.5733L34.3737 4.15998C34.1536 3.7134 33.8129 3.33735 33.3902 3.07439C32.9675 2.81143 32.4795 2.67206 31.9817 2.67206C31.4838 2.67206 30.9959 2.81143 30.5732 3.07439C30.1504 3.33735 29.8098 3.7134 29.5897 4.15998L21.9817 19.5733Z" fill="url(#paint0_linear_73_2735)"/>
</g>
<defs>
<linearGradient id="paint0_linear_73_2735" x1="2.97721" y1="2.95754" x2="58.3372" y2="60.8979" gradientUnits="userSpaceOnUse">
<stop stop-color="#22A1FE"/>
<stop offset="1" stop-color="#FB18EE"/>
</linearGradient>
<clipPath id="clip0_73_2735">
<rect width="64" height="64" fill="white"/>
</clipPath>
</defs>
</svg>
