<svg width="56" height="56" viewBox="0 0 56 56" fill="none" xmlns="http://www.w3.org/2000/svg">
<path d="M12.8327 16.3334C11.9044 16.3334 11.0142 15.9646 10.3578 15.3082C9.70143 14.6518 9.33268 13.7616 9.33268 12.8334C9.33268 11.9051 9.70143 11.0149 10.3578 10.3585C11.0142 9.7021 11.9044 9.33335 12.8327 9.33335C13.7609 9.33335 14.6512 9.7021 15.3076 10.3585C15.9639 11.0149 16.3327 11.9051 16.3327 12.8334C16.3327 13.7616 15.9639 14.6518 15.3076 15.3082C14.6512 15.9646 13.7609 16.3334 12.8327 16.3334ZM49.956 27.02L28.956 6.02002C28.116 5.18002 26.9493 4.66669 25.666 4.66669H9.33268C6.74268 4.66669 4.66602 6.74335 4.66602 9.33335V25.6667C4.66602 26.95 5.17935 28.1167 6.04268 28.9567L27.0193 49.9567C27.8827 50.7967 29.0493 51.3334 30.3327 51.3334C31.616 51.3334 32.7827 50.7967 33.6227 49.9567L49.956 33.6234C50.8193 32.7834 51.3327 31.6167 51.3327 30.3334C51.3327 29.0267 50.796 27.86 49.956 27.02Z" fill="url(#paint0_linear_91_1853)"/>
<defs>
<linearGradient id="paint0_linear_91_1853" x1="4.8991" y1="4.90466" x2="51.0945" y2="51.1" gradientUnits="userSpaceOnUse">
<stop stop-color="#22A1FE"/>
<stop offset="1" stop-color="#FB18EE"/>
</linearGradient>
</defs>
</svg>
