<svg width="44" height="44" viewBox="0 0 44 44" fill="none" xmlns="http://www.w3.org/2000/svg">
<rect width="44" height="44" rx="4" fill="#0C1219"/>
<path d="M15.5 17C15.1022 17 14.7206 16.842 14.4393 16.5607C14.158 16.2794 14 15.8978 14 15.5C14 15.1022 14.158 14.7206 14.4393 14.4393C14.7206 14.158 15.1022 14 15.5 14C15.8978 14 16.2794 14.158 16.5607 14.4393C16.842 14.7206 17 15.1022 17 15.5C17 15.8978 16.842 16.2794 16.5607 16.5607C16.2794 16.842 15.8978 17 15.5 17ZM31.41 21.58L22.41 12.58C22.05 12.22 21.55 12 21 12H14C12.89 12 12 12.89 12 14V21C12 21.55 12.22 22.05 12.59 22.41L21.58 31.41C21.95 31.77 22.45 32 23 32C23.55 32 24.05 31.77 24.41 31.41L31.41 24.41C31.78 24.05 32 23.55 32 23C32 22.44 31.77 21.94 31.41 21.58Z" fill="white"/>
</svg>
