<svg width="64" height="64" viewBox="0 0 64 64" fill="none" xmlns="http://www.w3.org/2000/svg">
<path d="M15.9993 34.6667H5.33268C3.73268 34.6667 2.66602 35.7333 2.66602 37.3333V58.6667C2.66602 60.2667 3.73268 61.3333 5.33268 61.3333H15.9993C17.5993 61.3333 18.666 60.2667 18.666 58.6667V37.3333C18.666 35.7333 17.5993 34.6667 15.9993 34.6667ZM58.666 24H47.9994C46.3993 24 45.3327 25.0667 45.3327 26.6667V58.6667C45.3327 60.2667 46.3993 61.3333 47.9994 61.3333H58.666C60.266 61.3333 61.3327 60.2667 61.3327 58.6667V26.6667C61.3327 25.0667 60.266 24 58.666 24ZM37.3327 2.66666H26.666C25.066 2.66666 23.9993 3.73332 23.9993 5.33332V58.6667C23.9993 60.2667 25.066 61.3333 26.666 61.3333H37.3327C38.9327 61.3333 39.9994 60.2667 39.9994 58.6667V5.33332C39.9994 3.73332 38.9327 2.66666 37.3327 2.66666Z" fill="url(#paint0_linear_72_2714)"/>
<defs>
<linearGradient id="paint0_linear_72_2714" x1="2.95903" y1="2.96582" x2="61.0332" y2="61.04" gradientUnits="userSpaceOnUse">
<stop stop-color="#22A1FE"/>
<stop offset="1" stop-color="#FB18EE"/>
</linearGradient>
</defs>
</svg>
