<svg width="56" height="56" viewBox="0 0 56 56" fill="none" xmlns="http://www.w3.org/2000/svg">
<path fill-rule="evenodd" clip-rule="evenodd" d="M43.167 21.34C43.0753 21.3333 42.9737 21.3333 42.867 21.3333H38.6587C35.212 21.3333 32.2637 24.0467 32.2637 27.5833C32.2637 31.12 35.2137 33.8333 38.6587 33.8333H42.867C42.9737 33.8333 43.0753 33.8333 43.1703 33.8267C43.8787 33.784 44.5474 33.4852 45.0518 32.986C45.5562 32.4868 45.8619 31.8212 45.912 31.1133C45.9187 31.0133 45.9187 30.905 45.9187 30.805V24.3617C45.9187 24.2617 45.9187 24.1533 45.912 24.0533C45.8619 23.3454 45.5562 22.6799 45.0518 22.1807C44.5474 21.6815 43.8787 21.3827 43.1703 21.34M38.2903 29.25C39.177 29.25 39.8953 28.5033 39.8953 27.5833C39.8953 26.6633 39.177 25.9167 38.2903 25.9167C37.402 25.9167 36.6837 26.6633 36.6837 27.5833C36.6837 28.5033 37.402 29.25 38.2903 29.25Z" fill="white"/>
<path fill-rule="evenodd" clip-rule="evenodd" d="M42.864 36.3333C42.9216 36.331 42.979 36.3423 43.0314 36.3663C43.0838 36.3904 43.1298 36.4264 43.1657 36.4715C43.2016 36.5167 43.2263 36.5696 43.2379 36.6261C43.2495 36.6826 43.2476 36.7411 43.2323 36.7967C42.899 37.9833 42.3673 38.9967 41.5157 39.8467C40.2673 41.0967 38.6857 41.6483 36.7323 41.9117C34.8323 42.1667 32.4073 42.1667 29.344 42.1667H25.824C22.7607 42.1667 20.334 42.1667 18.4357 41.9117C16.4823 41.6483 14.9007 41.095 13.6523 39.8483C12.4057 38.6 11.8523 37.0183 11.589 35.065C11.334 33.165 11.334 30.74 11.334 27.6767V27.49C11.334 24.4267 11.334 22 11.589 20.1C11.8523 18.1467 12.4057 16.565 13.6523 15.3167C14.9007 14.07 16.4823 13.5167 18.4357 13.2533C20.3357 13 22.7607 13 25.824 13H29.344C32.4073 13 34.834 13 36.7323 13.255C38.6857 13.5183 40.2673 14.0717 41.5157 15.3183C42.3673 16.1717 42.899 17.1833 43.2323 18.37C43.2476 18.4256 43.2495 18.484 43.2379 18.5405C43.2263 18.597 43.2016 18.65 43.1657 18.6951C43.1298 18.7403 43.0838 18.7763 43.0314 18.8003C42.979 18.8243 42.9216 18.8356 42.864 18.8333H38.6573C33.929 18.8333 29.7623 22.5667 29.7623 27.5833C29.7623 32.6 33.929 36.3333 38.6573 36.3333H42.864ZM17.584 19.6667C17.2525 19.6667 16.9345 19.7984 16.7001 20.0328C16.4657 20.2672 16.334 20.5851 16.334 20.9167C16.334 21.2482 16.4657 21.5661 16.7001 21.8005C16.9345 22.035 17.2525 22.1667 17.584 22.1667H24.2507C24.5822 22.1667 24.9001 22.035 25.1345 21.8005C25.369 21.5661 25.5007 21.2482 25.5007 20.9167C25.5007 20.5851 25.369 20.2672 25.1345 20.0328C24.9001 19.7984 24.5822 19.6667 24.2507 19.6667H17.584Z" fill="white"/>
</svg>
