<svg width="40" height="40" viewBox="0 0 40 40" fill="none" xmlns="http://www.w3.org/2000/svg">
<path d="M19.9999 36.6666C29.2049 36.6666 36.6666 33.31 36.6666 29.1666C36.6666 27.0566 34.7283 25.15 31.6083 23.785C29.7049 27.2783 26.8033 30.29 23.1166 31.865C22.1311 32.2844 21.071 32.5006 19.9999 32.5006C18.9288 32.5006 17.8688 32.2844 16.8833 31.865C13.1966 30.29 10.2949 27.2783 8.39158 23.7866C5.27158 25.1483 3.33325 27.0566 3.33325 29.1666C3.33325 33.31 10.7949 36.6666 19.9999 36.6666Z" fill="#CECECE"/>
<path fill-rule="evenodd" clip-rule="evenodd" d="M8.33325 14.1916C8.33325 8.19498 13.5566 3.33331 19.9999 3.33331C26.4433 3.33331 31.6666 8.19498 31.6666 14.1916C31.6666 20.1416 27.9433 27.0833 22.1333 29.5666C21.4585 29.853 20.7329 30.0005 19.9999 30.0005C19.2669 30.0005 18.5414 29.853 17.8666 29.5666C12.0566 27.0833 8.33325 20.14 8.33325 14.1916ZM19.9999 18.3333C20.884 18.3333 21.7318 17.9821 22.3569 17.357C22.9821 16.7319 23.3333 15.884 23.3333 15C23.3333 14.1159 22.9821 13.2681 22.3569 12.643C21.7318 12.0178 20.884 11.6666 19.9999 11.6666C19.1159 11.6666 18.268 12.0178 17.6429 12.643C17.0178 13.2681 16.6666 14.1159 16.6666 15C16.6666 15.884 17.0178 16.7319 17.6429 17.357C18.268 17.9821 19.1159 18.3333 19.9999 18.3333Z" fill="#CECECE"/>
</svg>
