<svg width="40" height="46" viewBox="0 0 40 46" fill="none" xmlns="http://www.w3.org/2000/svg">
<path d="M6.29638 6.09165C5.99471 6.69165 5.84638 7.43498 5.54971 8.91831L4.55305 13.9016C4.41179 14.5811 4.4107 15.2822 4.54983 15.9621C4.68896 16.642 4.96539 17.2864 5.36219 17.8557C5.759 18.4251 6.26782 18.9075 6.85753 19.2733C7.44723 19.6392 8.1054 19.8809 8.79175 19.9836C9.4781 20.0862 10.1782 20.0478 10.8491 19.8705C11.5201 19.6932 12.1478 19.3808 12.6939 18.9525C13.2399 18.5242 13.6928 17.989 14.0248 17.3795C14.3568 16.7701 14.5609 16.0994 14.6247 15.4083L14.7414 14.2583C14.6782 14.9897 14.7683 15.7262 15.0059 16.4208C15.2435 17.1154 15.6234 17.7529 16.1213 18.2923C16.6192 18.8318 17.2242 19.2615 17.8975 19.5539C18.5709 19.8464 19.2978 19.9951 20.0319 19.9907C20.766 19.9863 21.4912 19.8288 22.1609 19.5282C22.8307 19.2277 23.4305 18.7908 23.9218 18.2453C24.4132 17.6999 24.7854 17.058 25.0146 16.3605C25.2438 15.6631 25.325 14.9256 25.253 14.195L25.3747 15.4083C25.4385 16.0994 25.6426 16.7701 25.9746 17.3795C26.3066 17.989 26.7595 18.5242 27.3056 18.9525C27.8516 19.3808 28.4793 19.6932 29.1503 19.8705C29.8212 20.0478 30.5213 20.0862 31.2077 19.9836C31.894 19.8809 32.5522 19.6392 33.1419 19.2733C33.7316 18.9075 34.2404 18.4251 34.6372 17.8557C35.034 17.2864 35.3105 16.642 35.4496 15.9621C35.5887 15.2822 35.5876 14.5811 35.4464 13.9016L34.4497 8.91831C34.153 7.43498 34.0047 6.69331 33.703 6.09165C33.3887 5.46504 32.9461 4.91154 32.404 4.46706C31.8619 4.02259 31.2324 3.69707 30.5564 3.51165C29.9064 3.33331 29.1497 3.33331 27.6364 3.33331H12.363C10.8497 3.33331 10.093 3.33331 9.44305 3.51165C8.76699 3.69707 8.13748 4.02259 7.59538 4.46706C7.05328 4.91154 6.61071 5.46504 6.29638 6.09165ZM30.448 22.5C31.7503 22.5033 33.0312 22.1697 34.1664 21.5316V23.3333C34.1664 29.6183 34.1664 32.7616 32.213 34.7133C30.6414 36.2866 28.2997 36.5916 24.1664 36.6516V30.8333C24.1664 29.275 24.1664 28.4966 23.8314 27.9166C23.612 27.5366 23.2964 27.2211 22.9164 27.0016C22.3364 26.6666 21.558 26.6666 19.9997 26.6666C18.4414 26.6666 17.663 26.6666 17.083 27.0016C16.703 27.2211 16.3875 27.5366 16.168 27.9166C15.833 28.4966 15.833 29.275 15.833 30.8333V36.6516C11.6997 36.5916 9.35805 36.285 7.78638 34.7133C5.83305 32.7616 5.83305 29.6183 5.83305 23.3333V21.5316C6.96873 22.17 8.25027 22.5036 9.55305 22.5C11.4791 22.5014 13.3336 21.7696 14.7397 20.4533C16.1728 21.7734 18.0512 22.5043 19.9997 22.5C21.9482 22.5041 23.8265 21.7733 25.2597 20.4533C26.6659 21.7696 28.5219 22.5014 30.448 22.5Z" fill="#4FB1F6"/>
<rect x="4" y="42" width="32" height="4" rx="2" fill="#4FB1F6"/>
</svg>
